<?xml version="1.0" encoding="UTF-8"?>
<svg id="Layer_1" xmlns="http://www.w3.org/2000/svg" viewBox="0 0 983.22 1080">
  <defs>
    <style>
      .cls-1 {
        fill: #bf6066;
      }
    </style>
  </defs>
  <path class="cls-1" d="M491.61,0s-14.34,0-18.19,10.22c-3.88,10.24-5.03,20.49-23.24,21.4-18.19.94-21.21-20.46-55.88-16.21-34.66,4.28-39.93,26.64-39.93,26.64,0,0-36.21-23.06-57.02-10.43-20.84,12.65-33.65,57.37-33.65,57.37,0,0-5.97-8.02-18.94-20.14-12.97-12.12-44.91-21.18-50.2-7.51-5.3,13.67,10.4,22.87,23.72,33.65,13.32,10.75,17.25,33.46,24.42,51.89,7.17,18.43,17.76,9.74,22.55,23.06,4.76,13.32,28.16,38.22,43.86,41.14,15.7,2.91,28.86,3.42,45.58,26.45,16.74,23.06,42.53,38.44,67.62,42.69,15.44,2.63,38.1.8,53.27-1v265.93c-1.51-2.76-3.58-8.96-6.26-22.27-6.37-31.64-12.29-33.46-20.71-64.42-8.42-30.96-15.37-77.85-60.1-125.66-44.73-47.8-76.83-27.66-137.6-80.24-60.78-52.58-58.73-89.8-81.95-104.14-23.22-14.34-27.66,27.66-8.88,71.7,18.78,44.05,27.66,65.56,91.17,117.8,63.51,52.24,54.97,70,96.29,113.36,41.32,43.36,65.56,67.95,95.61,86.73,20.76,12.97,29.2,41.5,32.44,57.9v31.32c-4.71-9.99-18.98-37.79-39.95-56.28-25.95-22.88-54.8-36.88-87.07-52.75-32.27-15.88-43.36-39.27-51.33-58.62-7.97-19.35-28.91-63.28-71.7-94.24-42.8-30.96-84-39.61-100.16-56-16.16-16.39-45.98-33.46-57.82-65.11-11.84-31.64-16.85-50.76-27.09-76.26-10.24-25.5-54.86-14.57-35.74,24.81,19.12,39.38,30.96,50.31,41.66,88.55,10.7,38.24,41.43,84.91,70.57,117.69,29.14,32.78,76.26,86.96,123.83,117.91,47.58,30.96,104.03,20.03,124.06,28,20.03,7.97,64.14,35.91,80.18,58.96,13.06,18.76,26.01,57.98,30.56,71.66v86.52c-9.53-20.25-34.81-71.12-60.67-98.77-32.78-35.05-87.87-80.58-157.86-106.53-70-25.95-124.17-28-154.45-56.23-30.27-28.23-48.26-68.52-60.09-87.87-11.84-19.35-39.61-22.31-40.06-.23-.46,22.08,16.39,33.01,29.59,51.9,13.2,18.89,40.06,81.72,65.33,107.67,25.27,25.95,55.54,51.44,119.96,63.51,64.42,12.06,120.64,5.46,160.94,27.31,40.29,21.85,70.57,76.26,83.54,113.14,7.16,20.36,11.4,36.8,13.77,47.47v66.97c-1.3-1.14-2.79-2.43-4.67-4.05-9.56-8.19-15.03-21.17-30.28-51.22-15.25-30.05-41.2-45.3-71.7-58.96-30.5-13.66-60.1-37.1-84.23-52.13-24.13-15.03-45.3.68-34.6,22.76,10.7,22.08,51.22,91.74,92.65,119.28,41.43,27.54,81.04,25.72,103.12,29.59,14.45,2.53,24.48,20.91,29.71,33.34v134.29c0,7.76,5.25,14.88,12.87,16.34,10.26,1.97,19.23-5.84,19.23-15.74v-134.94c5.24-12.43,15.26-30.76,29.68-33.28,22.08-3.87,61.69-2.05,103.12-29.59,41.43-27.54,81.95-97.2,92.65-119.28,10.7-22.08-10.47-37.79-34.6-22.76-24.13,15.02-53.72,38.47-84.22,52.13-30.5,13.66-56.46,28.91-71.71,58.96-15.25,30.05-20.72,43.03-30.27,51.22-1.87,1.6-3.35,2.89-4.64,4.03v-67.05c2.37-10.68,6.61-27.08,13.75-47.37,12.97-36.88,43.25-91.28,83.54-113.14,40.29-21.85,96.52-15.25,160.94-27.31,64.42-12.07,94.7-37.56,119.96-63.51,25.27-25.95,52.13-88.78,65.33-107.67,13.2-18.89,30.05-29.82,29.59-51.9-.46-22.08-28.23-19.12-40.06.23-11.84,19.35-29.82,59.64-60.1,87.87-30.28,28.23-84.45,30.28-154.45,56.23-70,25.95-125.08,71.48-157.86,106.53-25.84,27.63-51.1,78.44-60.64,98.72v-86.54c4.57-13.74,17.5-52.87,30.54-71.59,16.05-23.05,60.15-50.99,80.18-58.96,20.03-7.97,76.48,2.96,124.06-28,47.58-30.96,94.7-85.13,123.83-117.91,29.14-32.78,59.87-79.44,70.57-117.69,10.7-38.24,22.54-49.17,41.66-88.55,19.12-39.38-25.5-50.31-35.74-24.81-10.24,25.5-15.25,44.62-27.09,76.26-11.84,31.64-41.66,48.71-57.82,65.11-16.16,16.39-57.36,25.04-100.16,56-42.8,30.96-63.74,74.89-71.7,94.24-7.97,19.35-19.06,42.74-51.33,58.62-32.27,15.88-61.12,29.88-87.07,52.75-20.94,18.46-35.2,46.2-39.93,56.23v-31.39c3.26-16.42,11.71-44.85,32.41-57.79,30.05-18.78,54.29-43.36,95.61-86.73,41.32-43.36,32.78-61.12,96.29-113.36,63.51-52.24,72.39-73.75,91.17-117.8,18.78-44.05,14.34-86.05-8.88-71.7-23.22,14.34-21.17,51.56-81.95,104.14-60.78,52.58-92.87,32.44-137.6,80.24-44.73,47.8-51.67,94.7-60.09,125.66-8.42,30.96-14.34,32.78-20.72,64.42-2.67,13.25-4.73,19.45-6.24,22.23v-265.89c15.16,1.8,37.81,3.63,53.24,1,25.09-4.25,50.88-19.63,67.62-42.69,16.72-23.03,29.88-23.54,45.58-26.45,15.7-2.92,39.1-27.82,43.87-41.14,4.79-13.32,15.38-4.63,22.55-23.06,7.17-18.43,11.1-41.14,24.42-51.89,13.32-10.78,29.02-19.98,23.72-33.65-5.29-13.67-37.23-4.6-50.2,7.51-12.97,12.12-18.94,20.14-18.94,20.14,0,0-12.81-44.72-33.65-57.37-20.81-12.62-57.02,10.43-57.02,10.43,0,0-5.27-22.36-39.93-26.64-34.67-4.25-37.69,17.14-55.88,16.21-18.22-.91-19.36-11.15-23.24-21.4-3.85-10.22-18.19-10.22-18.19-10.22M635.35,158.98c12.81-22.01,8.88-41.99,13.99-63.5,3.96-16.59,19.46-32.45,26.37-38.86,1.99-1.84,5.06-1.54,6.75.58,1.78,2.24,3.92,5.54,5.49,9.92,3.24,9.04-2.57,15.03-2.06,31.75.53,16.74-7.17,29.37-19.29,54.99-7.62,16.1-25.51,27.41-37.74,33.58-4.04,2.04-8.27-2.36-6.08-6.32,3.06-5.54,7.24-12.97,12.58-22.16ZM553.74,95.65c2.11-20.67,15.18-37.68,25.6-48.2,3.32-3.35,8.89-.19,7.71,4.38-2.1,8.11-3.75,18.57-2.74,29.65,2.22,24.26,10.24,27.5,6.31,69.84-2.77,29.85-19.46,46.55-29.07,53.81-2.98,2.25-7.26.09-7.29-3.64-.04-4.18.03-10.53.33-20.13.86-26.8-4.44-50.53-.86-85.7ZM528.65,248.11c9.9-7.17,26.12-18.21,35.83-24.78,3.32-2.24,7.74.56,7.08,4.52-1.49,8.99-5.2,22.09-14.4,30.67-10.3,9.61-28.28,9.34-38.8,8.16-3.86-.43-5.47-5.12-2.7-7.84,2.86-2.8,7.03-6.42,12.99-10.73ZM316.63,153.88c-12.12-25.62-19.82-38.25-19.28-54.99.51-16.72-5.3-22.71-2.06-31.75,1.57-4.38,3.7-7.68,5.49-9.92,1.69-2.12,4.76-2.43,6.75-.58,6.91,6.41,22.41,22.27,26.37,38.86,5.11,21.5,1.18,41.48,13.99,63.5,5.34,9.19,9.52,16.62,12.58,22.16,2.18,3.96-2.04,8.35-6.08,6.32-12.22-6.17-30.11-17.48-37.74-33.58ZM398.9,81.47c1.01-11.07-.64-21.54-2.74-29.65-1.18-4.57,4.39-7.73,7.71-4.38,10.42,10.51,23.49,27.53,25.6,48.2,3.58,35.17-1.71,58.9-.86,85.7.31,9.61.37,15.95.33,20.13-.04,3.73-4.32,5.89-7.29,3.64-9.61-7.26-26.3-23.96-29.07-53.81-3.93-42.34,4.09-45.58,6.31-69.84ZM426.05,258.51c-9.21-8.57-12.91-21.67-14.4-30.67-.66-3.95,3.76-6.76,7.08-4.52,9.71,6.57,25.93,17.61,35.83,24.78,5.96,4.31,10.13,7.93,12.99,10.73,2.78,2.71,1.16,7.41-2.7,7.84-10.52,1.17-28.51,1.44-38.81-8.16Z"/>
</svg>