<?xml version="1.0" encoding="UTF-8"?>
<svg id="Layer_1" xmlns="http://www.w3.org/2000/svg" viewBox="0 0 1080 560.38">
  <defs>
    <style>
      .cls-1 {
        fill: #912933;
      }
    </style>
  </defs>
  <path class="cls-1" d="M479.67,408.77c-51.06,22.73-86.05,83.64-69.13,138.04,25.88-90.61,126.33-133.38,202.06-75.73,22.54,17.32,40.21,42.74,50.58,75.73,11-34.72.06-74.69-23.42-102.9-37.13-46.21-106.82-60.56-160.09-35.14Z"/>
  <path class="cls-1" d="M374.58,533.24H14.43c-7.5,0-13.57,6.08-13.57,13.57s6.08,13.57,13.57,13.57h360.15c7.5,0,13.57-6.08,13.57-13.57s-6.08-13.57-13.57-13.57Z"/>
  <path class="cls-1" d="M539.92,387.3c7.5,0,13.57-6.08,13.57-13.57V13.57c0-7.5-6.08-13.57-13.57-13.57s-13.57,6.08-13.57,13.57v360.15c0,7.5,6.08,13.57,13.57,13.57Z"/>
  <path class="cls-1" d="M411.56,434.25c2.65,2.65,6.12,3.98,9.6,3.98s6.95-1.33,9.6-3.98c5.3-5.3,5.3-13.89,0-19.19l-254.66-254.67c-5.3-5.3-13.89-5.3-19.19,0-5.3,5.3-5.3,13.89,0,19.19l254.66,254.67Z"/>
  <path class="cls-1" d="M383.34,460.71l-160.91-51.71c-2.28-.73-3.66,2.46-1.56,3.62l147.87,81.18c4.37,2.4,9.87.56,11.92-3.99l7.86-17.44c2.1-4.66-.32-10.1-5.18-11.67Z"/>
  <path class="cls-1" d="M454.6,383.94c1.47,4.77,6.7,7.27,11.34,5.42l17.78-7.07c4.74-1.89,6.79-7.48,4.38-11.99l-79.72-149.03c-1.13-2.11-4.34-.77-3.63,1.52l49.85,161.16Z"/>
  <path class="cls-1" d="M1065.57,533.24h-360.15c-7.5,0-13.57,6.08-13.57,13.57s6.08,13.57,13.57,13.57h360.15c7.5,0,13.57-6.08,13.57-13.57s-6.08-13.57-13.57-13.57Z"/>
  <path class="cls-1" d="M923.1,160.39c-5.3-5.3-13.89-5.3-19.19,0l-254.66,254.67c-5.3,5.3-5.3,13.89,0,19.19,2.65,2.65,6.12,3.98,9.6,3.98s6.95-1.33,9.6-3.98l254.66-254.67c5.3-5.3,5.3-13.89,0-19.19Z"/>
  <path class="cls-1" d="M711.26,493.8l147.87-81.18c2.1-1.15.72-4.35-1.56-3.62l-160.91,51.71c-4.86,1.56-7.28,7.01-5.18,11.67l7.86,17.44c2.05,4.55,7.55,6.39,11.92,3.99Z"/>
  <path class="cls-1" d="M596.28,382.29l17.78,7.07c4.64,1.85,9.86-.65,11.34-5.42l49.85-161.16c.71-2.29-2.5-3.63-3.63-1.52l-79.72,149.03c-2.41,4.51-.36,10.1,4.38,11.99Z"/>
</svg>