<?xml version="1.0" encoding="UTF-8"?>
<svg id="Layer_1" xmlns="http://www.w3.org/2000/svg" viewBox="0 0 1080 909.92">
  <defs>
    <style>
      .cls-1 {
        fill: #bf6066;
      }
    </style>
  </defs>
  <g>
    <ellipse class="cls-1" cx="1047.16" cy="212.13" rx="106.52" ry="30.7" transform="translate(717.05 1228.29) rotate(-83.45)"/>
    <path class="cls-1" d="M1008.84,308.7s-143.92-62.04-188.17-91.03c-44.24-28.99-67.13-41.19-67.13-41.19,0,0,35.47-23.9,74.5-30,39.03-6.1,60.39-7.25,60.39-7.25,0,0-31.28-11.19-68.78-4.96s-81.24,28.35-114.24,62.49c-32.99,34.14-104.7,65.79-161.72,86.2-57.02,20.41-123.77,40.81-159.81,64.46-36.04,23.65-57.02,46.53-70.37,32.8-13.35-13.73-16.66-59.82,9.66-85.76,26.32-25.94,45.64-24.13,77.94-36.09,32.29-11.96,77.3-43.49,93.07-56.97,15.77-13.48,15-31.28,15-31.28l-33.06,28.99s-29.5-29.75-56.2-41.45c-26.7-11.7-60.26-6.36-112.65,1.78-52.38,8.14-105.78,17.04-139.35,24.92-33.56,7.88-72.47,22.12-94.85,33.31-22.38,11.19-46.22,17.99-60.52,6.17-14.3-11.82-17.93-18.12-2.86-24.98,15.07-6.87,107.56-52.45,135.59-65.6,28.03-13.16,73.42-32.61,132.92-45.39,59.5-12.78,87.92-22.12,102.6-25.36,14.68-3.24,16.4-18.88,16.4-18.88l-98.6,28.23s17.93-33.56,48.25-45.96c30.32-12.4,65.92-.83,104.83-1.78C490.62,23.14,647-.25,696.59,0c49.58.25,161.72,25.43,221.48,51.87,59.76,26.45,80.35,35.85,98.91,41.7,18.56,5.85,23.9,6.87,23.9,6.87,0,0-32.8,28.23-37.89,98.66-5.09,70.44,5.85,109.59,5.85,109.59Z"/>
    <path class="cls-1" d="M414.59,169.1s-21.55-.76-26.32,27.27c-4.77,28.03-4.77,55.12-4.77,55.12l-40.24,15.64s-4.58-40.43,0-60.65c4.58-20.22,1.08-23.84-2.03-26.13-3.11-2.29-6.55-.57-6.55-.57,0,0-15.07,37-22.12,48.44-7.06,11.44-25.94,36.04-25.94,36.04,0,0-10.68,59.5-13.92,97.45-3.24,37.95-19.83,71.33-31.66,79.53-11.82,8.2-24.79,4.39-22.89-21.36,1.91-25.75,8.01-102.22,8.01-102.79s18.31-45.01,38.65-77.3c20.34-32.29,44.75-68.4,44.75-68.4,0,0,65.35-5.59,81.88-6.1,16.53-.51,23.14,3.81,23.14,3.81Z"/>
    <path class="cls-1" d="M289.49,175.96s-48.82,67.89-67.64,112.9c-18.82,45.01-43.74,135.79-70.94,142.91-27.21,7.12-43.74-10.43-29.5-38.4,14.24-27.97,41.45-112.65,54.16-145.96,12.71-33.31,26.45-55.24,26.45-55.24l87.47-16.21Z"/>
    <path class="cls-1" d="M403.72,349.89s8.39,50.92-9.92,57.02c-18.31,6.1-21.74-36.23-21.74-36.23l31.66-20.79Z"/>
  </g>
  <g>
    <ellipse class="cls-1" cx="32.84" cy="697.78" rx="106.52" ry="30.7" transform="translate(-664.14 650.87) rotate(-83.45)"/>
    <path class="cls-1" d="M71.16,601.22s143.92,62.04,188.17,91.03c44.24,28.99,67.13,41.19,67.13,41.19,0,0-35.47,23.9-74.5,30-39.03,6.1-60.39,7.25-60.39,7.25,0,0,31.28,11.19,68.78,4.96,37.51-6.23,81.24-28.35,114.24-62.49,32.99-34.14,104.7-65.79,161.72-86.2,57.02-20.41,123.77-40.81,159.81-64.46,36.04-23.65,57.02-46.53,70.37-32.8,13.35,13.73,16.66,59.82-9.66,85.76-26.32,25.94-45.64,24.13-77.94,36.09-32.29,11.96-77.3,43.49-93.07,56.97-15.77,13.48-15,31.28-15,31.28l33.06-28.99s29.5,29.75,56.2,41.45c26.7,11.7,60.26,6.36,112.65-1.78,52.38-8.14,105.78-17.04,139.35-24.92,33.56-7.88,72.47-22.12,94.85-33.31,22.38-11.19,46.22-17.99,60.52-6.17,14.3,11.82,17.93,18.12,2.86,24.98-15.07,6.87-107.56,52.45-135.59,65.6-28.03,13.16-73.42,32.61-132.92,45.39-59.5,12.78-87.92,22.12-102.6,25.36-14.68,3.24-16.4,18.88-16.4,18.88l98.6-28.23s-17.93,33.56-48.25,45.96c-30.32,12.4-65.92.83-104.83,1.78-38.9.95-195.29,24.35-244.87,24.09s-161.72-25.43-221.48-51.87c-59.76-26.45-80.35-35.85-98.91-41.7-18.56-5.85-23.9-6.87-23.9-6.87,0,0,32.8-28.23,37.89-98.66,5.09-70.44-5.85-109.59-5.85-109.59Z"/>
    <path class="cls-1" d="M665.41,740.82s21.55.76,26.32-27.27c4.77-28.03,4.77-55.12,4.77-55.12l40.24-15.64s4.58,40.43,0,60.65c-4.58,20.22-1.08,23.84,2.03,26.13,3.11,2.29,6.55.57,6.55.57,0,0,15.07-37,22.12-48.44,7.06-11.44,25.94-36.04,25.94-36.04,0,0,10.68-59.5,13.92-97.45,3.24-37.95,19.83-71.33,31.66-79.53,11.82-8.2,24.79-4.39,22.89,21.36-1.91,25.75-8.01,102.22-8.01,102.79s-18.31,45.01-38.65,77.3c-20.34,32.29-44.75,68.4-44.75,68.4,0,0-65.35,5.59-81.88,6.1-16.53.51-23.14-3.81-23.14-3.81Z"/>
    <path class="cls-1" d="M790.51,733.95s48.82-67.89,67.64-112.9c18.82-45.01,43.74-135.79,70.94-142.91,27.21-7.12,43.74,10.43,29.5,38.4-14.24,27.97-41.45,112.65-54.16,145.96-12.71,33.31-26.45,55.24-26.45,55.24l-87.47,16.21Z"/>
    <path class="cls-1" d="M676.28,560.03s-8.39-50.92,9.92-57.02c18.31-6.1,21.74,36.23,21.74,36.23l-31.66,20.79Z"/>
  </g>
</svg>