<?xml version="1.0" encoding="UTF-8"?>
<svg id="Layer_1" xmlns="http://www.w3.org/2000/svg" viewBox="0 0 1080 1003.21">
  <defs>
    <style>
      .cls-1 {
        fill: #bf6066;
      }
    </style>
  </defs>
  <path class="cls-1" d="M607.41,368.84l-16.92-19.24,27.85,6.29-24.23-22.98s-1.9,7.3-27.79,9.2c-25.89,1.9-41.09-18.53-41.09-18.53,0,0,3.62,17.46,12.71,21.56,9.09,4.1,49.35,22.09,49.35,22.09l-10.87-15.14,31,16.75Z"/>
  <path class="cls-1" d="M477.25,466.82c-8.31-7.36-20.66-26.37-34.2-36.1-13.54-9.74-22.33,2.85-22.33,2.85,0,0-10.69-16.87-22.8-3.09-7.89,8.98,14.49,19,14.49,19,0,0-8.79-1.19-9.74,10.45-.95,11.64,3.56,21.38,29.22,23.04,25.65,1.66,71.49-10.45,71.49-10.45,0,0-17.82,1.66-26.13-5.7Z"/>
  <path class="cls-1" d="M565.61,277.51c25.18-3.56,79.09,30.88,79.09,30.88,0,0-27.31-39.66-64.84-47.03-37.53-7.36-71.02,14.49-71.02,14.49l30.4,9.03s1.19-3.8,26.36-7.36Z"/>
  <path class="cls-1" d="M531.88,311.84s6.24-12.47,29.22-7.66c22.98,4.81,39.37,26.01,39.37,26.01,0,0-8.19-27.43-40.08-33.31-31.89-5.88-28.5,14.96-28.5,14.96Z"/>
  <path class="cls-1" d="M437.64,268.19c-15.85,1.07-12.47,16.69-12.47,16.69,0,0,.71-11.88,16.78-12.05,7.07-.08,12.23,3.27,15.78,7.03-4.68-5.97-11.64-12.23-20.09-11.66Z"/>
  <path class="cls-1" d="M1078.42,840.21c-5.07-33.77-58.48-42.07-72.35-41.1-1.8-3.93-3.79-7.69-6.04-11.16-28.03-43.23-137.76-95.48-161.52-119.24-23.75-23.75-35.63-45.13,5.7-65.56,41.33-20.42,106.41-9.98,143.94-55.1,37.53-45.13,70.31-92.63,12.59-171.02-57.72-78.38-72.68-57-89.07-141.8-16.39-84.8-42.04-112.59-73.39-136.81-31.35-24.23-51.31-12.83-51.31-12.83,0,0-21.14-61.52-71.97-78.15-50.83-16.63-94.53-1.9-140.61,9.98l-46.08,11.87s-38-4.75-81.23,19c-43.23,23.75-59.38,50.36-91.68,103.56-32.3,53.21-74.34,133.61-122.44,129.69-48.1-3.92-69.83-27.79-87.29-49.52-17.46-21.73-58.43-35.63-97.27-5.7-38.83,29.93-63.77,72.8-37.65,78.74,26.13,5.94,42.99-7.84,42.99-7.84,0,0-50.83,9.03-38.95-16.39,11.88-25.42,52.26-65.08,97.86-37.53,45.6,27.55,54.39,41.8,107.84,64.37,53.44,22.56,86.22,4.04,86.22,4.04,0,0-52.26,39.19-121.61,27.08-69.36-12.11-129.21,19.48-160.33,64.84-31.11,45.37-29.45,113.06-7.36,157.24,22.09,44.18,75.77,77.43,75.77,77.43,0,0-26.6-73.16,20.43-106.89,47.03-33.73,100.71-52.25,128.74-71.49,28.03-19.24,75.77-69.6,75.77-69.6,0,0-69.12,87.53-117.57,120.66-48.46,33.14-90.14,96.91-74.82,200.23,15.32,103.32,60.33,116.62,95.01,116.62s37.53-29.93,37.53-29.93c0,0-29.21,23.99-61.04,10.69-31.83-13.3-45.84-90.5-45.84-90.5,0,0,11.88,25.18,33.49,44.89,21.61,19.71,36.58,17.1,36.58,17.1,0,0-21.61-19.48-22.33-64.84-.71-45.37,3.92-115.91,42.75-160.45,38.83-44.54,61.64-53.44,62.71-53.44s-84.08,63.77-86.58,149.64c-2.49,85.86,27.2,116.98,82.06,137.17,17.48,6.43,32.44,11.49,44.65,16.73-15.54,10.86-48.21,36.17-45.49,55.24,2.71,18.95,56.02,12.8,81.46,8.76-4,30.9-11.51,39.22-11.51,39.22,0,0,33.49-9.11,56.21-34.38,20.89,6.56,48.78,18.75,72.65,40.91,44.89,41.69,80.16,91.92,126.48,88.36,46.32-3.56,64.84-46.67,94.77-54.16,29.93-7.48,40.26-7.48,40.26-7.48,0,0-42.04-3.21-88.71,12.47-46.67,15.68-67.1,18.65-106.41-13.66-39.31-32.31-68.88-56.17-68.88-56.17,0,0,21.02,9.26,65.91,37.05,44.89,27.79,76.36,37.88,114.61,19.6,38.24-18.29-21.38-37.77,19.48-51.3,40.85-13.54,70.31,1.19,128.02,26.36,57.72,25.18,110.21,46.32,182.89,15.32,72.68-31,77.31-55.22,71.97-90.85ZM695.3,465.4c11.36,27.75,22.25,37.51,26.44,40.44.76,8.84,2.09,18.54,4.22,28.73-11-2.06-21.32-7.2-29.01-15.19-9.56-10.42-16.22-22.65-20.72-36.02,6.55-6.89,12.37-14.33,17.53-22.25.5,1.44.98,2.91,1.54,4.29ZM722.38,458.75s-2.87,18.36-.82,44.93c-4.75-7.91-16.53-28.32-18.42-39.47-1.07-6.32-1.35-12.08-1.36-16.59,1.13-2.04,2.27-4.06,3.35-6.12l17.25,17.25ZM690.78,283.93c-2.44,65.78-6.62,113.53-3.01,148.3-4.27,11.84-9.48,23.58-16.01,34.3-9.37-46.38,1.16-102.13,6.17-144.28,5.53-39.94,11.09-96.03-9.1-134.4,12.13,20.75,23.57,52.22,21.95,96.08ZM659.55,173.92c-.45-.55-.83-1.15-1.29-1.68.43.55.86,1.11,1.29,1.68ZM320.25,846.98c-2.16-13.57,32.75-28.99,42.18-32.89,12.78,8.38,19.65,18.9,19.78,35.9-28.25,4.52-60.01,9.25-61.96-3.01ZM978.29,910.39c-57.7,17.82-76.58,18.53-160.66-20.66-84.08-39.19-147.86-46.32-176.36-19.6-28.5,26.72,56.29,66.98-9.62,61.64-65.91-5.34-95.13-43.47-126.12-69.48-18.98-15.92-41.29-19.67-62.69-19.3,14.18-48.89-49.9-76.18-49.9-76.18,0,0,3.56-59.5,22.09-86.93,18.53-27.43,43.82-49.16,83.01-48.81,17.83.16,30.23.18,38.5.14,10.45,14.62,20.82,29.3,30.99,44.1,16.75,26.81,44.26,55.43,33.96,89.37,14.09-33.15-10.69-66.25-24.53-95.08-14.99-28.13-30.52-55.88-46.3-83.58l-9.46-21.58s-102.61,8.55-119.71-13.54c-17.1-22.09-10.45-104.99-10.93-119.24-.47-14.25-12.59-72.09-5.11-93.11,4.94-13.87,12.62-25.55,18.44-36.2l11.37.34-13.54,7.36,26.36-3.09-8.79,5.7,30.8-7.81c-2.96,3.41-6.16,6.75-9.42,9.71-10.21,9.26-23.99,19.72-32.18,30.52-8.19,10.81-7.48,26.36,1.21,40.62,8.69,14.25,20.29,13.89,16.61,7.84-3.68-6.06-.24-13.18,7.36-8.31,7.6,4.87,10.57,14.73,26.13,15.2,15.56.47,6.35-27.14,6.35-27.14,0,0,1.96,15.68-7.3,20.66-9.26,4.99-13.18-11.58-28.15-15.85-14.96-4.28-9.8,10.87-9.8,10.87,0,0-7.13-4.63-10.87-24.58-3.74-19.95,24.41-34.56,43.29-54.87,18.88-20.31,14.07-41.36,14.07-41.36,0,0-1.43,9.24-4.04,16.72-.19.55-.5,1.18-.77,1.79-1.05-1.95-2.63-4.45-4.86-6.81,2.05,2.62,3.66,5.15,4.75,7.06-2.12,4.67-6.28,10.77-11.38,16.79-5.46-1.21-21.31-4.92-30.25-9.2-5.28-2.52-8.56-4.84-10.57-6.57.14-.46.35-.93.46-1.38,3.92-14.97,3.92-48.46,3.92-48.46,0,0,2.97-1.91,8.12-5.08,4.37,3.35,20.79,16.03,28.57,23.61,9.03,8.79,13.06,15.68,13.06,15.68,0,0,5.46-10.69-5.46-25.65-8.4-11.51-18.01-19.18-22.03-22.13,25.25-14.81,67.86-38.08,105.99-50.56,58.79-19.24,99.76-17.81,99.76-17.81,0,0,6.94,5.15,15.55,16.07,38.62,52.67,13.48,140.13,7.64,200.49-2.61,31.78-5.51,67.43,2.47,99.19-3.38,4.98-7.04,9.73-11.15,14.03-19.92,19.6-43.5,36.24-66.89,51.8,25.82-12.7,51.09-25.93,74.28-43.43,2.96-2.41,5.78-4.94,8.46-7.56,4.88,12.61,11.91,24.35,22,34.62,8.58,8.01,19.69,12.88,31.14,14.33,7.52,35.03,24.8,75.73,62.92,107.86,84.56,71.26,161.99,94.53,195.24,149.64,20.92,34.67,29.43,74.22,32.86,98.79-10.15,7.1-22.95,13.49-38.94,18.42ZM1020.72,889.5c.17-19.34-1.09-46.33-7.58-70.43,10.6-1.49,28.85-1.55,33.57,14.37,4.68,15.75-2.25,37.96-25.99,56.06Z"/>
</svg>