<?xml version="1.0" encoding="UTF-8"?>
<svg id="Layer_1" xmlns="http://www.w3.org/2000/svg" viewBox="0 0 1080 821.83">
  <defs>
    <style>
      .cls-1 {
        fill: #bf6066;
      }
    </style>
  </defs>
  <path class="cls-1" d="M953.08,0s175.85,91.59,113.57,282.08c-62.28,190.5-68.5,236.82-81.45,384.9-3.75,42.85-6.5,129.12-8.51,153.17-.41,4.87-7.57,4.75-7.81-.12-6.81-136.66-30.9-485.51-111.05-440.25-103.8,58.62-211.26,268.65-254,357.8-42.74,89.14-258.88,84.26-396.87,84.26H.59s-13.43-54.95,87.92-107.46c101.36-52.51,272.32-153.86,272.32-153.86,0,0,28.49,74.49,119.67,74.49s195.38-159.97,295.52-330.93C876.15,133.1,953.08,0,953.08,0Z"/>
</svg>