<?xml version="1.0" encoding="UTF-8"?>
<svg id="Layer_1" xmlns="http://www.w3.org/2000/svg" viewBox="0 0 632.07 1080">
  <defs>
    <style>
      .cls-1 {
        fill: #bf6066;
      }
    </style>
  </defs>
  <path class="cls-1" d="M259.28,103.94c49.41,31.86,65.97,32.61,65.97,32.61,0,0,19.81-53.18-19.57-89.8-39.38-36.62-81.27-5.27-81.27-5.27,0,0-14.55,30.6,34.87,62.46Z"/>
  <path class="cls-1" d="M314.72,180.69c65.47,6.52,73.99-55.43,73.99-55.43,0,0-12.29,18.81-46.15,24.08-33.86,5.27-55.68-2.01-105.6-43.15-49.91-41.13-12.04-84.28-12.04-84.28,0,0-17.31-31.35-40.14-19.06-22.82,12.29-23.08,58.19,2.01,97.57,25.08,39.38,62.46,73.74,127.92,80.27Z"/>
  <path class="cls-1" d="M181.11,343.65s3.18,48.5-1.34,64.05c-4.52,15.55-14.88,68.06-14.88,68.06,0,0,17.22-44.31,27.26-58.19,10.03-13.88,6.19-61.54,6.19-61.54,0,0,8.03-.25,30.1,1,22.07,1.25,11.04,60.37,11.04,60.37,0,0-78.26,77.59-72.91,130.1,5.35,52.51,97.32,113.71,183.61,157.19,86.29,43.48,167.22,64.55,167.22,64.55,0,0,3.68-64.55-9.03-125.08-12.71-60.53-61.87-136.79-117.56-169.39-55.68-32.61-107.57-48.12-107.57-48.12,0,0-.13-28.22-.13-44.9s15.74-34.05,15.74-34.05c0,0,16.87,8.42,34.93,8.34,18.06-.08,33.86-14.67,33.86-53.05s-37.21-59.49-37.21-59.49c0,0-.17,3.01,0,28.59.17,25.58-12.21,37.63-25.25,37.29-13.04-.33-22.07-9.53-22.07-22.74s.38-26.3-1.88-46.36c-2.26-20.07-33.11-19.06-33.11-19.06,0,0,3.26-10.41,19.06-16.68s26.71-6.27,26.71-6.27c0,0-67.22-4.26-117.89,47.91-38.6,39.75-35.53,92.81-35.53,92.81l40.63,4.68Z"/>
  <path class="cls-1" d="M507.35,800.67c-67.89-34.11-231.77-110.03-292.64-147.15-60.87-37.12-60.87-88.63-60.87-88.63,0,0-15.39,81.27,28.43,138.79,43.81,57.53,141.14,117.72,141.14,117.72,74.58,43.81,173.57,105.69,200.67,157.86,27.09,52.17,1.67,82.27,1.67,82.27,0,0,81.61-31.44,102.68-91.97,21.07-60.53-53.18-134.78-121.07-168.89Z"/>
  <path class="cls-1" d="M439.8,928.09c-63.54-44.15-163.54-101-232.77-151.17-69.23-50.17-74.91-114.04-74.91-114.04,0,0,8.02,92.97,46.15,132.44,38.13,39.46,84.62,76.92,146.2,115.72,61.59,38.79,96.6,60.87,92.59,96.65-4.01,35.79-61.54,72.24-61.54,72.24,0,0,70.9-6.02,114.38-28.76,43.48-22.74,33.44-78.93-30.1-123.08Z"/>
  <path class="cls-1" d="M376.92,1024.74c6.02-47.16-30.1-63.96-111.37-112.62-81.27-48.66-99.83-108.11-99.83-108.11,0,0-12.54,20.82-14.49,53.18-1.95,32.36,31.55,63.21,57.38,87.29,25.84,24.08,45.9,46.16,45.15,79.51-.75,33.36-40.39,46.91-40.39,46.91,0,0,25.33,8.03,55.43,9.03,30.1,1,102.09-8.03,108.11-55.18Z"/>
  <path class="cls-1" d="M233.7,1020.73c3.01-35.62-33.61-50.67-71.99-89.3-38.38-38.63-26.84-83.53-26.84-83.53,0,0-18.56,17.06-31.61,32.11-13.04,15.05-46.65,39.63-37.87,96.07,8.78,56.44,48.16,76.5,86.79,85.45,38.63,8.95,78.51-5.18,81.52-40.8Z"/>
  <path class="cls-1" d="M42.14,928.76c5.35-59.53,46.82-60.53,70.57-98.33,23.75-37.79,15.72-80.94,10.37-98.33-5.35-17.39-14.38-38.13-14.38-38.13,0,0-50.17,56.86-77.59,88.96C3.68,815.05-3.34,858.53,1.34,916.72c4.68,58.19,62.6,108.03,62.6,108.03,0,0-27.15-36.45-21.8-95.98Z"/>
</svg>