<?xml version="1.0" encoding="UTF-8"?>
<svg id="Layer_1" xmlns="http://www.w3.org/2000/svg" viewBox="0 0 1080 685.56">
  <defs>
    <style>
      .cls-1 {
        fill: #bf6066;
      }
    </style>
  </defs>
  <g>
    <path class="cls-1" d="M561.68,257.79c0-3.01,7.41-2.39,7.55-11.63.14-9.24-7.7-25.96-20.04-27.09l-9.19-.84-9.19.84c-12.34,1.13-20.18,17.85-20.04,27.09.14,9.24,7.55,8.62,7.55,11.63s-6.11-.31-6.09,5.12c.02,5.43,5.87,247.19,5.87,247.19.33,13.69,10.04,24.6,21.9,24.6s21.58-10.91,21.9-24.6c0,0,5.84-241.77,5.87-247.19.02-5.43-6.09-2.11-6.09-5.12Z"/>
    <g>
      <path class="cls-1" d="M536.76,228.83s-8.37-65.41-53.16-146.4C454.01,28.93,383.56,8.19,339.15.28c-14.87-2.65-25.13,14.41-15.91,26.38,24.19,31.4,62.9,77.2,92.63,91.28,46.69,22.12,68.27,8.1,82.58,36.13,14.3,28.03,30.49,74.76,30.49,74.76h7.83Z"/>
      <path class="cls-1" d="M543.24,228.83s8.37-65.41,53.16-146.4C625.99,28.93,696.44,8.19,740.85.28c14.87-2.65,25.13,14.41,15.91,26.38-24.19,31.4-62.9,77.2-92.63,91.28-46.69,22.12-68.27,8.1-82.58,36.13-14.3,28.03-30.49,74.76-30.49,74.76h-7.83Z"/>
    </g>
  </g>
  <g>
    <path class="cls-1" d="M426.53,679.41c-.62-2.61-6.02-19.65-7.17-32.99-8.56-104.69,42.61-182.68,110.49-244.49,4.73-4.17,4.21-10.25,1.4-14.1,1.21-.4,2.38-1.06,3.36-2.12,3.47-3.61,3.72-9.76.59-13.76-22.15-28.01-55.01-53.4-82.83-72.72-24.17-16.87-51.64-29.01-80.07-30.96-1.98-.14-3.84-.97-5.35-2.44-28.89-28.22-63.5-52.53-99.24-65.56-36.45-13.18-76.1-9.86-112.63.1-8.92,2.47-17.72,5.41-26.44,8.61-.82.3-1.6.48-2.46.51-14,.52-43.94-1.68-54.56-28.64-6.32-16.19-2.28-32.64,4.04-45.83,1.29-2.69,3.6-4.55,6.21-5.19,64.79-15.93,132.63-15.41,192.22,18.36,43.97,23.07,85.7,51.56,125.89,82.42,39.95,31.18,78.8,64.97,114.7,101.5,3.53,3.83,9.2,3.43,12.29-.89,2.99-4.15,2.49-10.3-1.1-13.75-85.49-79.4-178.49-150.85-282.44-192.8-.35-.14-.71-.27-1.08-.38-75.48-22.65-156.06-5.68-227.77,27.1-3.05,1.34-5.98,2.66-8.75,3.96-6.17,2.89-7.82,12.05-3.21,17.6l45.15,54.53c3.04,3.68,3.37,9.21,1.04,13.54-3.82,7.11-7.48,19.26.31,33.31,12.43,22.35,155.24,125.02,179,138.3,8.93,5,15.92,7.23,21.18,8.07,5.52.89,8.96,7.05,7.75,13.32-3.19,16.5-2.65,46.84,24.35,89.08,18.23,28.52,40.41,53.79,62.61,78.16,20.84,22.88,42.38,44.91,64.33,66.35,6.29,6.14,18.43,18.79,19.23,17.89.81-.9-.44-3.5-1.05-6.11ZM129.29,214.53c1.31-2.07,3.22-3.49,5.38-4.09,7.06-1.99,14.14-3.81,21.26-5.3,66.37-16.19,124.83,4.67,174.92,50.15,6.24,5.66,3.84,17.16-3.91,19.17-4.65,1.21-9.27,2.5-13.91,3.78-26.75,7.55-53.26,16.33-79.46,26.14-.64.24-1.25.4-1.91.47-18.26,2.04-62.18,3.18-90.96-26.81-27.53-28.7-18.11-52.9-11.42-63.52ZM237.86,366.47c-24.93-29.97-11.89-49.87-3.29-58.29,1.02-1,2.23-1.66,3.52-2.07,10.05-3.15,20.12-6.19,30.22-9.03,27.9-7.32,57.08-15.71,85.49-18.64,2.2-.3,4.4-.49,6.51-.69,2.79.1,5.5.3,8.29.69,49.5,5.03,98.49,41.77,134.81,82.94-.02,0-.05,0-.07,0-59.68-3.97-118.34,13.71-175.16,32.46-1.78.63-3.56,1.3-5.34,1.94-19.91,1.56-60.21.47-84.96-29.3ZM429.62,521.34c-3.51,9.86-6.26,20.06-8.41,30.45-.9,4.31-3.84,7.6-7.62,8.33-23.9,4.61-60.73,3.25-92.94-34.19-43.61-50.58-5.82-107.16,8.88-125.53,1.34-1.68,3.07-2.84,5-3.33,19.03-4.84,38.25-8.75,57.39-12.5,40.68-6.75,83.54-12.67,123.76-1.65,1.8.8,3.65.62,5.37.03.34.45.72.91,1.06,1.37.09.13.22.19.31.31-1.03.39-2.07,1.02-3.08,1.99-36.99,38.22-69.65,82.02-89.71,134.7Z"/>
    <path class="cls-1" d="M652.42,685.51c.81.9,12.94-11.75,19.23-17.89,21.95-21.45,43.49-43.47,64.33-66.35,22.19-24.37,44.38-49.64,62.61-78.16,26.99-42.25,27.53-72.58,24.35-89.08-1.21-6.28,2.23-12.44,7.75-13.32,5.25-.84,12.25-3.08,21.18-8.07,23.76-13.28,166.58-115.95,179-138.3,7.79-14.06,4.13-26.2.31-33.31-2.32-4.32-2-9.86,1.04-13.54l45.15-54.53c4.6-5.56,2.95-14.71-3.21-17.6-2.77-1.3-5.69-2.62-8.75-3.96-71.7-32.78-152.29-49.75-227.77-27.1-.36.11-.72.24-1.08.38-103.95,41.95-196.95,113.41-282.44,192.8-3.59,3.45-4.08,9.6-1.1,13.75,3.09,4.32,8.76,4.71,12.29.89,35.9-36.53,74.75-70.32,114.7-101.5,40.2-30.86,81.92-59.35,125.89-82.42,59.59-33.77,127.43-34.3,192.22-18.36,2.6.64,4.92,2.5,6.21,5.19,6.32,13.19,10.36,29.63,4.04,45.83-10.63,26.96-40.56,29.16-54.56,28.64-.86-.03-1.64-.21-2.46-.51-8.71-3.21-17.51-6.15-26.44-8.61-36.53-9.96-76.18-13.28-112.63-.1-35.74,13.02-70.36,37.34-99.24,65.56-1.51,1.48-3.38,2.31-5.35,2.44-28.43,1.96-55.91,14.09-80.07,30.96-27.82,19.32-60.68,44.72-82.83,72.72-3.13,4-2.87,10.15.59,13.76.98,1.06,2.15,1.72,3.36,2.12-2.81,3.85-3.33,9.93,1.4,14.1,67.88,61.81,119.06,139.8,110.49,244.49-1.15,13.34-6.55,30.39-7.17,32.99-.62,2.61-1.86,5.21-1.05,6.11ZM939.29,278.05c-28.77,29.99-72.69,28.84-90.96,26.81-.67-.07-1.28-.23-1.91-.47-26.2-9.81-52.71-18.59-79.46-26.14-4.64-1.29-9.26-2.57-13.91-3.78-7.74-2.02-10.15-13.51-3.91-19.17,50.09-45.48,108.55-66.34,174.92-50.15,7.12,1.49,14.2,3.31,21.26,5.3,2.16.61,4.07,2.02,5.38,4.09,6.69,10.62,16.11,34.82-11.42,63.52ZM757.18,395.77c-1.78-.64-3.56-1.31-5.34-1.94-56.82-18.75-115.48-36.44-175.16-32.46-.02,0-.05,0-.07,0,36.31-41.17,85.31-77.91,134.81-82.94,2.79-.39,5.5-.59,8.29-.69,2.11.2,4.31.39,6.51.69,28.41,2.93,57.58,11.32,85.49,18.64,10.1,2.84,20.17,5.88,30.22,9.03,1.29.4,2.5,1.07,3.52,2.07,8.6,8.42,21.63,28.32-3.29,58.29-24.74,29.78-65.05,30.86-84.96,29.3ZM560.66,386.64c-1.01-.97-2.05-1.6-3.08-1.99.09-.13.23-.18.31-.31.34-.46.71-.91,1.06-1.37,1.72.59,3.56.76,5.37-.03,40.22-11.02,83.09-5.1,123.76,1.65,19.15,3.75,38.37,7.66,57.39,12.5,1.93.49,3.66,1.65,5,3.33,14.69,18.36,52.49,74.94,8.88,125.53-32.21,37.44-69.04,38.8-92.94,34.19-3.79-.73-6.73-4.03-7.62-8.33-2.16-10.39-4.91-20.59-8.41-30.45-20.07-52.68-52.73-96.48-89.71-134.7Z"/>
  </g>
</svg>