<?xml version="1.0" encoding="UTF-8"?>
<svg id="Layer_1" xmlns="http://www.w3.org/2000/svg" viewBox="0 0 1080 962.74">
  <defs>
    <style>
      .cls-1 {
        fill: #bf6066;
      }
    </style>
  </defs>
  <path class="cls-1" d="M170.8,292.35c0-100.55,29.28-194.26,79.84-273.02C100.69,107.17,0,270.01,0,456.4,0,736.04,226.66,962.74,506.3,962.74c179.09,0,336.48-92.97,426.51-233.27-75.04,44.04-162.37,69.22-255.66,69.22-279.64,0-506.34-226.71-506.34-506.35Z"/>
  <path class="cls-1" d="M895.4,0c0,101.96-82.65,184.6-184.6,184.6,101.95,0,184.6,82.65,184.6,184.6,0-101.95,82.65-184.6,184.6-184.6-101.95,0-184.6-82.65-184.6-184.6Z"/>
  <path class="cls-1" d="M710.8,409.38c0-46.56,37.74-84.3,84.3-84.3-46.56,0-84.3-37.74-84.3-84.3,0,46.56-37.74,84.3-84.3,84.3,46.56,0,84.3,37.74,84.3,84.3Z"/>
</svg>