<?xml version="1.0" encoding="UTF-8"?>
<svg id="Layer_1" xmlns="http://www.w3.org/2000/svg" viewBox="0 0 1080 1080">
  <defs>
    <style>
      .cls-1 {
        fill: #bf6066;
      }
    </style>
  </defs>
  <path class="cls-1" d="M653.79,649.13c2.71-2.59,4.14-5.97,4.14-9.78s-1.37-7.14-4.07-9.84c-2.7-2.7-6.01-4.07-9.84-4.07s-7.19,1.43-9.78,4.13c-2.58,2.69-3.89,5.99-3.89,9.78s1.33,7.1,3.95,9.72c2.62,2.62,5.89,3.96,9.72,3.96s7.09-1.31,9.78-3.89Z"/>
  <path class="cls-1" d="M173.53,666.22c-2.62,2.14-5.57,4.44-8.77,6.84-3.15,2.36-6.28,4.75-9.32,7.11-2.79,2.17-4.91,3.82-6.37,4.95-1.48.92-1.89,2.22-2.01,2.96-.15.97.06,1.96.57,2.79l.12.24c.18.36.42.69.7.98.82.84,1.89,1.3,3.03,1.31.91,0,1.74-.27,2.46-.78,1.39-.79,2.88-1.49,4.46-1.83.57-.13,1.27-.27,1.86-.22,1.57.15,2.41,1.49,2.82,2.88.41,1.38.51,2.81.63,4.24.17,2.01.21,4.02.21,6.03v54.67c0,2.79-.18,5.01-.52,6.6-.2.9-.85,2.53-2.81,5.15-1.35,1.75-2.79,3.13-4.27,4.1-1.2.78-2.27,1.19-3.1,1.19-2.02,0-4.16,1.55-4.16,4.41v.49c0,2.86,2.15,4.41,4.16,4.41h45.1c2.02,0,4.16-1.55,4.16-4.41v-.49c0-1.92-1.39-3.55-3.28-3.87-1.37-.23-2.76-.83-4.13-1.79-1.53-1.06-2.91-2.33-4.11-3.79-1.98-2.82-2.63-4.49-2.83-5.41-.34-1.58-.52-3.8-.52-6.6v-65.32c2.05-1.88,4.29-3.87,6.68-5.93,2.75-2.37,5.79-4.59,9.01-6.58,3.2-1.98,6.51-3.63,9.83-4.92,3.11-1.2,6.25-1.81,9.31-1.81,6.56,0,11.76,2.64,15.89,8.08,4.32,5.69,6.52,13.3,6.52,22.62v53.87c0,2.79-.18,5.01-.52,6.6-.2.9-.85,2.53-2.81,5.15-1.35,1.75-2.79,3.13-4.27,4.1-1.2.78-2.27,1.19-3.1,1.19-2.47,0-4.41,1.94-4.41,4.41v.49c0,2.47,1.94,4.41,4.41,4.41h45.1c2.02,0,4.16-1.55,4.16-4.41v-.49c0-1.92-1.39-3.55-3.28-3.87-1.37-.23-2.76-.83-4.13-1.79-1.53-1.06-2.91-2.33-4.11-3.79-1.98-2.82-2.63-4.49-2.83-5.41-.34-1.58-.52-3.8-.52-6.6v-53.38c0-2.17-.09-4.37-.26-6.53-.12-1.54-.37-3.12-.74-4.7,1.97-1.88,4.16-3.85,6.56-5.88,3.02-2.56,6.21-4.92,9.46-7.01,3.18-2.05,6.56-3.77,10.03-5.13,3.26-1.28,6.47-1.92,9.54-1.92,6.71,0,11.95,2.64,15.99,8.05,4.26,5.7,6.41,13.32,6.41,22.64v53.87c0,2.84-.14,5.12-.43,6.76-.12.67-.64,2.21-2.84,4.91-.06.08-.12.16-.18.24-1.15,1.66-2.49,2.97-3.97,3.9-1.78,1.11-2.72,1.23-3.04,1.23-2.47,0-4.41,1.94-4.41,4.41v.49c0,2.47,1.94,4.41,4.41,4.41h45.1c2.17,0,3.92-1.76,3.92-3.92v-1.22c0-1.04-.41-2.04-1.15-2.77l-.24-.24c-.74-.73-1.73-1.15-2.77-1.15-.97,0-2.06-.42-3.25-1.25-1.5-1.04-2.79-2.29-3.82-3.71-.02-.03-.04-.05-.06-.08-2.3-3-2.9-4.66-3.06-5.4-.34-1.58-.52-3.8-.52-6.6v-42.67c0-3.07.02-6.14.05-9.21.03-2.99.1-5.99-.23-8.97-.03-.27-.1-.55-.1-.82-.42-3.12-1.11-6.2-2.17-9.16-1.06-2.95-2.49-5.76-4.32-8.3-1.68-2.32-3.7-4.39-5.97-6.13-8.3-6.36-19.44-9.58-33.1-9.58-4,0-8,.69-11.89,2.05-3.73,1.3-7.38,3.01-10.84,5.09-3.36,2.01-6.65,4.28-9.79,6.74-2.49,1.95-4.83,3.91-6.97,5.84-1.37-2.64-3.02-4.99-4.94-7.03-3.08-3.26-6.61-5.87-10.52-7.78-3.83-1.87-8.06-3.18-12.57-3.88-4.34-.68-8.85-1.02-13.4-1.02-4,0-8,.69-11.89,2.05-3.72,1.3-7.4,3-10.93,5.07-3.48,2.04-6.87,4.35-10.08,6.89-.66.52-1.3,1.04-1.94,1.56v-14.14c0-2.34-1.83-4.16-4.16-4.16h-1.46c-1.04,0-2.05.37-2.89,1.06-1.12.78-2.95,2.2-5.56,4.34Z"/>
  <path class="cls-1" d="M525.33,666.72c-2.03-.73-4.22-1.54-6.52-2.42-2.53-.96-5.38-1.79-8.46-2.48-3.2-.71-7.01-1.07-11.33-1.07-4.74,0-9.2.89-13.26,2.64-4.08,1.76-7.6,4.26-10.48,7.42-2.82,3.1-5.08,6.74-6.71,10.81-1.64,4.11-2.47,8.57-2.47,13.28,0,5,1.01,9.49,2.99,13.37,1.89,3.69,4.38,7.09,7.42,10.13.07.07.14.14.22.2,4.76,4.08,9.99,7.58,15.52,10.39,5.2,2.64,10.44,5.45,15.53,8.31,2.98,1.73,5.87,3.59,8.58,5.53,2.56,1.83,4.78,3.86,6.58,6.02,1.77,2.13,3.17,4.39,4.16,6.7.9,2.12,1.29,4.54,1.16,7.18,0,.06,0,.13,0,.19,0,1.58-.46,2.96-1.41,4.23-1.16,1.54-2.6,2.85-4.28,3.89-1.77,1.09-3.74,1.92-5.87,2.47-2.19.56-4.2.85-5.97.85-7.5,0-14.19-2.26-20.46-6.91-6.24-4.62-11.4-12.58-15.34-23.64-.06-.16-.12-.31-.2-.46-1.21-2.38-3.19-2.64-3.98-2.64h-.24c-2.86,0-4.41,2.15-4.41,4.16v35.35c0,3.41,2.49,4.65,4.16,4.65h.49c.99,0,1.89-.32,2.6-.86.59-.38,1.08-.91,1.4-1.56.61-1.22,1.36-2.65,2.24-4.24,0,0,.5-.41,2.3-.41s3.54.29,5.13.86c2.05.74,4.26,1.52,6.63,2.33,2.42.84,5.19,1.65,8.25,2.42,3.22.8,7.07,1.21,11.43,1.21,4.77,0,9.25-.94,13.32-2.79,4.02-1.83,7.56-4.34,10.5-7.47,2.94-3.13,5.22-6.8,6.78-10.93,1.54-4.09,2.32-8.53,2.32-13.21,0-5.01-1.01-9.47-3.01-13.28-1.88-3.58-4.37-6.93-7.4-9.97-.07-.07-.15-.14-.22-.21-4.76-4.08-9.99-7.58-15.52-10.39-5.21-2.64-10.45-5.45-15.54-8.31-2.98-1.72-5.86-3.58-8.58-5.53-2.56-1.83-4.77-3.85-6.58-6.02-1.79-2.14-3.23-4.45-4.3-6.87-.98-2.22-1.39-4.58-1.26-7.18.11-1.64.64-3.05,1.61-4.3,1.16-1.48,2.64-2.75,4.4-3.8,1.88-1.11,3.88-1.95,5.96-2.51,2.11-.56,4.07-.84,5.82-.84,7.49,0,14.18,2.26,20.46,6.91,6.23,4.62,11.4,12.58,15.34,23.64.05.14.11.27.17.4,1.22,2.49,3.38,2.69,4.01,2.69h.24c2.86,0,4.41-2.15,4.41-4.16v-35.35c0-3.41-2.49-4.65-4.16-4.65h-.49c-.99,0-1.89.32-2.59.86-.59.37-1.08.91-1.4,1.55-.62,1.24-1.38,2.67-2.24,4.25,0,0-.49.41-2.3.41s-3.54-.29-5.13-.87Z"/>
  <path class="cls-1" d="M546.46,634.75c.18.36.42.7.71.99.81.83,1.89,1.29,3.02,1.3.86-.03,1.74-.27,2.46-.78,2.37-1.34,4.42-2.02,6.1-2.02,1.07,0,2.8.54,3.37,1.45.35.55.38,1.1.4,1.74.02.76.04,1.53.06,2.29.02.62.01,1.24.02,1.87,0,1.17,0,2.34,0,3.51,0,1.29,0,2.58,0,3.87,0,1.32-.01,2.64-.02,3.96,0,1.26-.01,2.51-.02,3.77,0,1.1,0,2.21,0,3.31,0,.86,0,1.72.01,2.58,0,.52,0,1.05.04,1.57,0,.09.01.19.03.28h-5.83c-2.17,0-3.92,1.76-3.92,3.92v2.44c0,2.17,1.76,3.92,3.92,3.92h5.83v77.5c0,3.16.08,6.51.25,9.93.18,3.8.88,7.36,2.07,10.56,1.32,3.56,3.58,6.54,6.7,8.85,3.2,2.37,7.55,3.58,12.94,3.58,6.18,0,11.5-.92,15.79-2.75,4.14-1.76,7.69-3.84,10.5-6.12,3.19-2.48,5.83-5.37,7.84-8.58.18-.23.33-.47.47-.72.04-.05.07-.1.11-.16,1.04-1.56,1.41-4.24-.97-6.64-.19-.19-.39-.36-.61-.5-1.57-1.04-4.25-1.41-6.65.98-.2.2-.38.43-.54.67-.9,1.41-2,2.65-3.29,3.68-.11.09-.22.19-.32.29-.96.96-2.31,1.85-3.99,2.62-1.59.73-3.58,1.1-5.92,1.1-2.81,0-4.8-.64-6.07-1.97-1.57-1.63-2.65-3.62-3.3-6.08-.73-2.77-1.14-5.78-1.21-8.97-.08-3.33-.12-6.46-.12-9.29v-67.99h19.97c2.17,0,3.92-1.76,3.92-3.92v-2.44c0-2.17-1.76-3.92-3.92-3.92h-19.97v-55.8c0-2.33-1.83-4.16-4.16-4.16h-1.95c-.77,0-1.53.23-2.18.66-1.1.73-2.99,2.2-5.79,4.49-2.61,2.14-5.56,4.44-8.77,6.84-3.26,2.44-6.39,4.8-9.4,7.08-3.03,2.29-5.27,4.01-6.74,5.15-.13.1-.26.21-.37.33-1.37,1.37-1.65,3.44-.73,5.25l.24.49Z"/>
  <path class="cls-1" d="M633.46,765.3c-.67,2.5-2.33,4.53-3.93,6.5-1.48,1.82-3.47,3.53-5.95,3.53s-4.41,1.94-4.41,4.41v.49c0,2.47,1.94,4.41,4.41,4.41h45.1c1.49,0,2.84-.84,3.51-2.17l.24-.49c.27-.54.41-1.15.41-1.75v-.49c0-1.94-1.41-3.58-3.33-3.88-5.27-.81-9.91-5.88-11.02-10.98-.34-1.58-.52-3.8-.52-6.6v-93.23c0-2.02-1.55-4.16-4.41-4.16h-1.71c-.78,0-1.53.23-2.18.66-1.09.73-3.01,2.19-5.87,4.45-2.73,2.17-5.74,4.48-8.93,6.88-3.14,2.36-6.28,4.75-9.32,7.11-2.92,2.28-5.12,3.98-6.58,5.12-.13.1-.25.21-.36.32-.83.83-1.28,1.91-1.27,3.04,0,.82.25,1.6.69,2.28l.07.15c.9,1.84,2.37,2.34,3.17,2.47,1.04.17,2.11-.07,2.98-.66,2.39-1.36,4.46-2.05,6.14-2.05,2.77,0,3.23,3.73,3.41,5.81.16,1.87.23,3.75.23,5.63v56.18c0,2.31.03,4.73-.58,7.01Z"/>
  <path class="cls-1" d="M698.6,779.91c6.35,3.35,13.14,5.04,20.19,5.04,6.5,0,12.59-1.3,18.09-3.87,5.37-2.51,10.21-5.85,14.37-9.93,4.13-4.04,7.66-8.75,10.49-13.98,2.79-5.15,4.81-10.6,6.02-16.19.26-.84.66-2.45-.47-4-.59-.81-1.48-1.37-2.45-1.55-.09-.03-.19-.06-.33-.11-.35-.17-.73-.3-1.13-.37-.87-.26-2.38-.53-3.83.52-.69.5-1.2,1.22-1.45,2.03v.02c-.13.25-.23.51-.3.78-1.04,4.16-2.54,8.04-4.47,11.51-1.89,3.42-4.25,6.48-7.01,9.09-2.71,2.57-5.87,4.64-9.37,6.14-3.49,1.49-7.53,2.33-12.01,2.47-.03,0-.06,0-.09,0-5.26.29-10.11-.86-14.81-3.5-4.61-2.59-8.48-6.88-11.48-12.73-3.52-7.03-6.05-14.81-7.5-23.11-1.46-8.3-1.82-16.55-1.05-24.53,1.05-8.71,3.42-16.04,7.04-21.8,3.37-5.37,7.47-8.43,12.52-9.37,3.63-.67,6.74-.43,9.52.73,2.92,1.22,5.51,3.06,7.7,5.44,2.31,2.53,4.25,5.42,5.77,8.6,1.56,3.26,2.72,6.57,3.45,9.78.69,3.24,2.49,5.88,5.18,7.64,2.63,1.72,5.77,2.3,9.08,1.69.46-.06,1.05-.19,2.05-.47,1.41-.38,2.79-1.12,4.1-2.19,1.28-1.05,2.38-2.42,3.26-4.08,1.11-2.08,1.3-4.6.58-7.47-2.47-10.06-7.49-17.89-14.92-23.26-7.33-5.3-16.28-7.99-26.57-7.99-7.05,0-13.84,1.7-20.19,5.04-6.24,3.3-11.73,7.82-16.31,13.43-4.54,5.56-8.17,12.18-10.81,19.66-2.63,7.47-3.97,15.55-3.97,24.02s1.34,16.52,3.97,23.91c2.64,7.4,6.27,13.97,10.8,19.53,4.58,5.62,10.07,10.14,16.31,13.43Z"/>
  <path class="cls-1" d="M780.83,695.67c1.84,3.03,4.85,4.69,8.48,4.69,4.53,0,7.12-1.96,8.5-3.61,1.55-1.87,2.75-4.18,3.55-6.89.66-2.27,1.34-4.69,1.98-7.19.57-2.23,1.37-4.32,2.37-6.25.82-1.61,2.03-2.93,3.68-4.03,1.53-1.02,3.87-1.54,6.98-1.54,6.21,0,10.74,1.36,13.47,4.02,2.7,2.62,4.05,7.26,4.05,13.76v17.83c-1.87.3-4.03.68-6.41,1.11-4.1.75-8.55,1.86-13.24,3.28-4.66,1.41-9.48,3.18-14.3,5.26-5.02,2.16-9.62,4.87-13.67,8.07-4.19,3.32-7.64,7.26-10.23,11.73-2.71,4.64-4.07,10.07-4.07,16.1,0,7.94,1.68,14.37,4.98,19.08,2.32,3.32,4.89,6.46,8.28,8.75,3.32,2.23,7.03,3.48,10.9,4.25,4.37.87,8.82.79,13.19-.02,2.14-.39,4.28-.89,6.35-1.62,2.05-.71,4.02-1.66,5.98-2.59.86-.41,1.71-.8,2.59-1.2,3.93-1.7,7.57-3.78,10.85-6.23.64,2.34,1.73,4.43,3.23,6.23,1.62,1.95,3.73,3.48,6.26,4.53,2.43,1,5.39,1.52,8.82,1.52,3.68,0,6.98-.71,9.8-2.12,2.66-1.34,5.05-3.09,7.05-5.19,1.91-1.98,3.55-4.14,4.91-6.41,1.25-2.07,2.37-4.03,3.36-5.82,1.07-1.86.8-3.46.54-4.25-.39-1.16-1.21-2.11-2.34-2.73-1.78-1.25-4.41-1.36-6.59.8-.29.3-.54.64-.73,1.02-1,2.02-1.8,3.07-2.3,3.62-.75.8-1.68,1.57-2.79,2.28-.73.48-1.59.71-2.62.71-1.59,0-2.78-.3-3.19-.79-.21-.27-.93-1.36-.93-4.57v-58.99c0-6.48-.66-12.3-1.95-17.31-1.37-5.3-3.73-9.83-6.98-13.46-3.28-3.66-7.69-6.44-13.12-8.28-5.19-1.77-11.64-2.66-19.17-2.66-4.73,0-9.33.62-13.74,1.86-4.43,1.25-8.46,3.05-11.96,5.39-3.59,2.39-6.5,5.21-8.64,8.39-2.3,3.41-3.46,7.17-3.46,11.21,0,3,.77,5.78,2.27,8.25ZM833.9,751.28c0,1.53-.04,3.21-.12,4.94-.05,1.3-.09,2.62-.11,3.98-2.28,2.32-5.09,4.39-8.33,6.18-3.53,1.95-7.12,2.93-10.67,2.93s-6.84-.95-9.78-2.89c-3.03-2-5.44-4.53-7.16-7.57-1.75-3.05-2.82-6.59-3.16-10.48-.36-3.82.29-7.48,1.98-11.19,1.68-3.71,4.57-7.19,8.6-10.35,4.09-3.21,9.82-5.77,17.04-7.57,3.11-.79,6.09-1.37,8.85-1.75,1-.14,1.96-.29,2.86-.41v34.18Z"/>
  <path class="cls-1" d="M934.15,782.47l.24-.49c.27-.54.41-1.15.41-1.75v-.49c0-1.94-1.41-3.58-3.33-3.88-1.5-.23-2.85-.8-4.14-1.73-1.47-1.07-2.83-2.36-4.06-3.84-1.98-2.82-2.63-4.49-2.83-5.41-.34-1.58-.52-3.8-.52-6.6v-149.67c0-2.02-1.55-4.16-4.41-4.16h-1.22c-1.04,0-2.05.37-2.89,1.06-1.12.77-2.97,2.18-5.64,4.3-2.75,2.18-5.76,4.5-8.93,6.88-3.15,2.36-6.28,4.75-9.32,7.11-2.92,2.28-5.12,3.98-6.58,5.12-.13.1-.25.21-.36.32-.83.83-1.28,1.91-1.27,3.04,0,.82.24,1.6.69,2.28l.09.18c.18.36.42.7.71.99.81.83,1.89,1.29,3.02,1.3.86-.03,1.74-.27,2.46-.78,2.19-1.55,5.71-3.34,8.01-1.02,1.15,1.16,1.42,3.03,1.55,4.58.16,1.94.18,3.91.18,5.85v112.62c0,2.84-.14,5.12-.43,6.76-.12.71-.64,2.3-2.66,4.99-1.35,1.75-2.79,3.13-4.28,4.1-1.2.78-2.27,1.19-3.1,1.19-2.47,0-4.41,1.94-4.41,4.41v.49c0,2.47,1.94,4.41,4.41,4.41h45.1c1.49,0,2.84-.84,3.51-2.17Z"/>
  <path class="cls-1" d="M398.56,802.9c-10.08-.39-20.74,1.59-28.73,8.14-9.55,7.69-14.83,21.24-10.64,33.27,5.52,15.71,21.49,26.06,37.87,26.97,13.81,1.27,27.49-4.84,36.94-14.9,5.34-5.39,9.73-11.67,13.05-18.47,11.76,9.69,23.59,20.17,36.09,29.22,20.54,15.1,45.37,26.84,71.59,23.92,10.03-1.18,19.79-4.34,27.95-10.67,14.15-11.4,21.83-31.18,17.12-49.1-4.52-17.1-19.51-30.23-37.69-29.57-4.12.14-8.23.82-12.17,2.05-3.96,1.25-7.67,3.11-10.8,5.62-12.62,10.21-11.8,22.42-11.76,22.72,0,0,.02-.02.04-.04.04.79.11,1.57.27,2.36.62,3.5,2.32,6.09,5.02,7.67,2.57,1.52,5.34,2.03,8.21,1.52,3.41-.61,6.09-2.27,7.92-4.93l.09-.14c1.39-2.28,1.71-4.87.91-7.46-.82-2.62-3.14-4.93-3.19-7.76-.07-3.25,3.02-5.44,5.85-6.16,1.82-.45,3.71-.45,5.57-.29,6.53.59,13.01,3.07,17.9,7.48,7.23,6.1,10.35,16.04,8.66,25.31-1.3,7.34-5.27,14.53-10.76,19.54-6.48,5.6-15.19,8.48-23.67,9.3-28.16,2.71-53.49-13.46-74.8-30.11-8.32-6.39-16.37-13.19-24.63-19.67,1.77-5.44,2.87-11.07,3.3-16.76.37-5.19.3-12.55.46-17.85.27-17.13.28-34.66-.02-51.83h-.14c.11-1.28.16-2.59.16-3.91v-65.29c0-1.75,1.66-2.98,3.03-3.75,2.21-1.25,4.68-1.82,7.21-1.82,1.64-.13,2.86-1.41,2.86-3.09v-.5c0-1.77-1.34-3.11-3.11-3.11h-40.71c-1.77,0-3.11,1.34-3.11,3.11,0,1.43.7,2.59,2.02,3.16.87.39,1.84.41,2.78.5,2.68.21,5.28,1.75,6.85,3.91.84,1.14,1.28,2.52,1.27,3.93-.07,5.68,0,6.37,0,6.37v56.58c0,16.1-7.39,24.97-14.24,29.72-6.75,4.69-15.67,4.53-22.38-.21-6.92-4.91-14.55-13.85-14.55-29.5v-56.58h.02v-8.71c0-1.75,1.66-2.98,3.02-3.75,2.21-1.25,4.69-1.82,7.21-1.82,1.64-.13,2.86-1.41,2.86-3.09v-.5c0-1.77-1.34-3.11-3.09-3.11h-40.73c-1.77,0-3.09,1.34-3.09,3.11,0,1.43.68,2.59,2,3.16.89.39,1.84.41,2.78.5,2.68.21,5.28,1.75,6.87,3.91.8,1.11,1.23,2.43,1.25,3.8v.89c-.05,3.75-.02,5.03,0,5.43v56.02c0,25.74,21.04,47.38,46.78,47.22,7.19-.04,14.08-1.7,20.49-4.89,1.96-.98,3.82-2.09,5.59-3.3.12,5.93.23,11.78.3,17.44.05,3.91.21,11.01.2,14.89-.02,2.55-.21,5.1-.59,7.64-10.64-7.14-22.7-13.3-35.75-13.72ZM416.55,849.04c-13.76,11.9-38.73,7.6-46.46-9.26-3.25-7.51.27-16.49,6.1-21.67,5.14-4.73,13.24-6.48,20.42-6.44,12.96.09,24.68,6.76,35.34,14.47-3.02,8.82-8.28,16.81-15.4,22.9Z"/>
  <path class="cls-1" d="M211.58,867.03v-.5c0-2.53-1.98-4.51-4.51-4.51h-41.66c-2.53,0-4.51,1.98-4.51,4.51v.5c0,2.57,1.94,4.51,4.51,4.51,1.82,0,3.25.26,4.24.78.83.44,1.37.93,1.65,1.48.35.71.51,1.49.46,2.36-.06,1.04-.29,1.95-.71,2.79-.01.03-.03.05-.04.08l-34.54,74.61-23.18-66.06c-.7-1.89-1.36-3.81-1.82-5.77-.46-1.96-.12-4.01.67-5.85.31-.73.68-1.45,1.1-2.12.72-1.14,1.76-2.56,3.28-2.56h.25c2.22,0,4.01-1.8,4.01-4.01v-.5c0-.62-.15-1.24-.42-1.8l-.25-.5c-.19-.38-.44-.73-.74-1.03l-.25-.25c-.75-.76-1.78-1.18-2.84-1.18h-46.15c-2.21,0-3.54,1.34-4.05,2.59-.31.77-.37,1.59-.21,2.37.03.54.16,1.07.4,1.56.84,1.73,2.47,2.76,4.36,2.76,1.29,0,2.54.71,3.66,1.29,3.32,1.7,6.4,3.9,8.94,6.64,2.67,2.88,4.45,6.24,5.86,9.88.03.09.07.18.1.26.12.31.24.63.36.94l4.44,14.22-23.13,49.15-23.41-66.09c-.77-2.09-1.57-4.28-1.87-6.51-.23-1.64.1-3.35.73-4.87.57-1.38,1.06-2.67,2.24-3.67.65-.55,1.41-.97,2.22-1.23.87-.28,1.75-.22,2.54-.76,1.25-.85,1.88-2.29,1.88-3.78,0-.62-.15-1.24-.42-1.8l-.25-.5c-.39-.77-1.01-1.4-1.79-1.79l-.5-.25c-.56-.28-1.18-.43-1.8-.43H4.51c-2.93,0-4.51,2.2-4.51,4.26,0,.63.15,1.24.43,1.8l.23.46c.84,1.73,2.47,2.76,4.36,2.76.28,0,1.41.11,3.92,1.49,2.14,1.18,4.28,2.68,6.37,4.46,3.29,3.12,4.7,5.04,5.3,6.09.97,1.72,2.01,4.09,3.09,7l32.93,93.1c.57,1.59,2.08,2.65,3.78,2.65h4.24c1.55,0,2.97-.9,3.63-2.3l30.8-65.34,23.41,64.99c.57,1.59,2.08,2.65,3.77,2.65h3.99c1.56,0,2.97-.9,3.63-2.31,7.64-16.25,15.48-32.86,23.32-49.38,2.64-5.57,5.28-11.14,7.92-16.71,2.74-5.79,5.47-11.58,8.2-17.37,1.39-2.95,2.79-7.21,4.18-10.17,1.25-2.66,2.38-5.31,4.05-7.75,1.19-1.73,2.97-3.29,4.68-4.51,2.34-1.68,4.8-2.97,7.32-3.83,2.67-.92,5.25-1.57,7.67-1.95,2.46-.38,4.44-.58,5.87-.58,2.53,0,4.51-1.98,4.51-4.51Z"/>
  <path class="cls-1" d="M312.75,958.98c-1.04-.73-2.28-1.05-3.55-.87-1.16.16-2.25.73-3.19,1.7-.3.3-.57.66-.75,1.03-1.03,2.05-1.86,3.14-2.36,3.69-.77.82-1.73,1.61-2.86,2.34-1.61,1.05-4,1.3-5.55.04-1.69-1.39-1.34-3.64-1.36-5.57v-56.63c0-6.62-.66-12.58-2-17.72-1.39-5.43-3.8-10.05-7.14-13.76-3.36-3.75-7.87-6.6-13.42-8.5-5.3-1.78-11.9-2.69-19.61-2.69-4.84,0-9.55.62-14.06,1.89-4.53,1.27-8.66,3.12-12.24,5.52-3.66,2.44-6.64,5.34-8.82,8.57-2.37,3.5-3.57,7.35-3.57,11.48,0,3.07.79,5.93,2.34,8.44,1.87,3.11,4.94,4.8,8.66,4.8,4.66,0,7.3-2,8.71-3.68,1.59-1.91,2.8-4.28,3.62-7.05.7-2.3,1.37-4.78,2.03-7.37.59-2.27,1.41-4.43,2.43-6.39.86-1.64,2.09-3,3.78-4.12,1.55-1.03,3.94-1.57,7.12-1.57,6.35,0,10.99,1.37,13.78,4.11,2.77,2.69,4.16,7.42,4.16,14.08v16.81c-1.93.3-4.12.68-6.57,1.12-4.19.77-8.75,1.91-13.53,3.36-4.78,1.45-9.71,3.27-14.65,5.39-5.12,2.21-9.82,5-13.99,8.26-4.28,3.39-7.8,7.42-10.46,11.99-2.77,4.77-4.16,10.3-4.16,16.49,0,8.12,1.71,14.69,5.09,19.51,3.36,4.8,7.78,8.3,13.19,10.42,2.48.95,5.12,1.59,7.91,1.87,2.59.27,5.3.3,7.98.13,6.44-.34,12.94-1.93,19.33-4.68,3.89-1.68,7.66-3.75,11.03-6.32-.37.29,1.87,3.14,2.14,3.46,2,2.57,4.64,4.73,7.66,6,2.48,1.04,5.51,1.55,9.01,1.55,3.77,0,7.14-.73,10.03-2.18,2.73-1.36,5.16-3.14,7.23-5.3,1.95-2.03,3.62-4.25,5.02-6.57,1.27-2.12,2.43-4.12,3.43-5.94,1.11-1.91.82-3.55.55-4.36-.39-1.18-1.23-2.14-2.37-2.78ZM268.9,953.41c0,1.57-.04,3.27-.12,5.05-.05,1.32-.09,2.68-.11,4.07-2.36,2.37-5.21,4.5-8.53,6.32-3.62,1.98-7.3,3-10.92,3s-7-.96-10.01-2.96c-3.16-2.07-5.55-4.6-7.34-7.73-1.78-3.14-2.87-6.75-3.23-10.74-.36-3.89.3-7.64,2.03-11.44,1.71-3.8,4.68-7.37,8.8-10.6,4.19-3.28,10.07-5.89,17.46-7.75,3.18-.79,6.21-1.39,9.05-1.78,1.04-.14,2.02-.29,2.93-.41v34.98Z"/>
  <path class="cls-1" d="M412.96,876.59c-4.3,1.19-8.74,1.82-13.18,1.82-1.38,0-2.77-.06-4.14-.18-10.48-.61-20.3-4.37-28.19-10.36-.35.2-.7.41-1.04.62-3.27,2.01-6.22,4.38-8.84,7.09v-14.04c0-2.06-1.59-4.26-4.51-4.26h-1.75c-.79,0-1.57.24-2.22.68-1.12.74-3.08,2.24-6,4.56-2.82,2.23-5.9,4.6-9.15,7.04-3.2,2.4-6.41,4.85-9.53,7.28-3,2.33-5.24,4.07-6.73,5.23-.13.1-.25.21-.37.33-.85.84-1.32,1.95-1.31,3.12,0,.84.24,1.64.71,2.33l.07.14c.92,1.89,2.43,2.4,3.26,2.54,1.06.18,2.15-.07,3.04-.68,2.45-1.38,4.57-2.09,6.29-2.09,1.32,0,1.87.39,2.36,1.66.9,2.36,1.36,5.74,1.36,10.05v59.68c0,2.91-.15,5.24-.44,6.92-.12.69-.66,2.26-2.91,5.02-.06.08-.12.17-.18.24-1.19,1.73-2.54,3.08-4.01,4.04-1.22.79-2.32,1.22-3.17,1.22-2.53,0-4.51,1.98-4.51,4.5v.51c0,2.53,1.99,4.5,4.51,4.5h46.15c1.52,0,2.91-.85,3.59-2.21l.25-.51c.28-.56.42-1.17.42-1.79v-.51c0-1.98-1.45-3.66-3.4-3.96-1.54-.24-2.93-.81-4.24-1.78-1.51-1.09-2.9-2.4-4.15-3.92-2.03-2.88-2.69-4.59-2.89-5.53-.36-1.61-.53-3.89-.53-6.75v-64.86c1.02-2.34,2.39-4.8,4.06-7.32,1.7-2.54,3.85-4.85,6.39-6.87,1.15-.66,2.81-1.66,5.07-3.02,1.71-1.04,3.56-1.54,5.65-1.54,1.25,0,2.39.22,3.29.62,1.79.84,3.07,1.9,3.9,3.23,1.15,1.83,2.16,3.69,3,5.52,1.01,2.21,2.1,4.16,3.24,5.77,1.23,1.74,3.57,3.82,7.77,3.82,6.21,0,10.45-2,12.62-5.95,1.99-3.64,2.14-7.73.43-11.83-.02-.04-.03-.08-.05-.12Z"/>
  <path class="cls-1" d="M573.26,857.81c-.63-.33-1.37-.52-2.24-.52h-1.75c-.79,0-1.57.24-2.23.68-1.12.74-3.08,2.24-5.99,4.56-2.82,2.23-5.9,4.6-9.15,7.04-.85.64-1.68,1.26-2.53,1.91,7.61-.86,14.3-3.51,18.92-7.49,1.91-1.75,3.59-3.86,4.97-6.17Z"/>
  <path class="cls-1" d="M587.35,977.12c-1.54-.24-2.93-.81-4.24-1.78-1.51-1.09-2.9-2.4-4.16-3.92-2.02-2.88-2.68-4.59-2.89-5.53-.35-1.61-.53-3.89-.53-6.75v-64.86c.38-.88.82-1.77,1.29-2.67-6.54,3.26-13.97,5.38-22.2,6.34-1.19.13-2.39.23-3.59.31.02.39.02.78.02,1.19v59.68c0,2.91-.15,5.24-.44,6.92-.12.69-.65,2.26-2.9,5.02-.06.08-.12.17-.18.24-1.19,1.73-2.54,3.08-4.01,4.04-1.22.79-2.32,1.22-3.17,1.22-2.53,0-4.51,1.98-4.51,4.5v.51c0,2.53,1.99,4.5,4.51,4.5h46.15c1.52,0,2.91-.85,3.59-2.21l.25-.51c.27-.56.42-1.17.42-1.79v-.51c0-1.98-1.45-3.66-3.4-3.96Z"/>
  <path class="cls-1" d="M630.97,876.71c-1.52-3.65-4.36-7.03-8.43-10.04-4.18-3.08-9.35-4.65-15.35-4.65-1.27,0-2.54.05-3.78.17-1.85,4.73-4.35,9.24-7.43,13.37.24-.02.49-.03.74-.03,1.25,0,2.38.22,3.29.62,1.79.84,3.07,1.9,3.9,3.23,1.15,1.83,2.15,3.69,3,5.52,1.01,2.21,2.1,4.16,3.24,5.77,1.23,1.74,3.57,3.82,7.77,3.82,6.2,0,10.45-2,12.62-5.95,2-3.64,2.14-7.73.44-11.83Z"/>
  <path class="cls-1" d="M539.75,961.22c.91-.91,1.43-2.11,1.43-3.34,0-1.05-.43-2.07-1.18-2.84l-.2-.18c-.91-1.28-2.12-1.66-2.82-1.77-1.07-.18-2.16.07-3.05.7-2.43,1.37-4.53,2.07-6.25,2.07-1.34,0-1.87-.37-2.37-1.66-.89-2.34-1.36-5.73-1.36-10.03v-48.55c-11.24-2.86-22.72-7.91-34.34-15.1,3.21,2.45,6.5,5.66,9.85,9.62v54.4c-4.84,7.98-9.96,13.87-15.24,17.53-5.27,3.66-10.46,5.52-15.42,5.52-3.48,0-6.69-.89-9.85-2.71-3.19-1.84-6.09-4.59-8.55-8.16-2.57-3.68-4.64-8.32-6.18-13.76-1.55-5.51-2.34-11.92-2.34-18.99,0-7.44.82-14.35,2.48-20.56,1.62-6.14,3.89-11.51,6.75-15.96,2.75-4.32,6.03-7.73,9.76-10.14,3.61-2.34,7.35-3.48,11.42-3.48,3.84,0,7.87,1.11,12.01,3.27-2.07-1.39-4.14-2.86-6.21-4.37-4.6-3.36-9.14-6.89-13.6-10.49-5.05.45-9.99,1.77-14.72,3.94-5.85,2.71-11.17,6.62-15.85,11.64-4.62,4.98-8.44,11.1-11.37,18.17-2.89,7.01-4.55,14.99-4.91,23.67-.7,6-.34,12.81,1.07,20.26,1.37,7.5,3.8,14.71,7.21,21.42,3.46,6.82,7.89,12.64,13.15,17.28,5.62,4.98,12.37,7.5,19.99,7.5,5.01,0,10.05-1.07,14.94-3.21,4.71-2.03,9.17-4.75,13.26-8.03,4-3.21,7.75-6.82,11.12-10.73.37-.41.73-.82,1.07-1.25v19.2c0,2.53,1.98,4.52,4.52,4.52h1.25c1.14,0,2.25-.45,3.14-1.25.71-.59,2.25-1.8,5.53-4.32,2.8-2.16,5.87-4.48,9.19-6.96,3.53-2.64,6.66-5.03,9.53-7.28l6.75-5.25c.12-.09.25-.2.37-.32Z"/>
  <path class="cls-1" d="M524.06,815.21c-.32-.25-.64-.48-.96-.73-3.27-2.44-6.34-4.82-9.14-7.03-2.95-2.34-4.91-3.84-6-4.55-.66-.45-1.44-.7-2.23-.7h-1.75c-2.93,0-4.52,2.2-4.52,4.27v51.04c7.76,4.75,15.96,8.8,24.49,11.37v-24.38c-.18-.21-.34-.43-.52-.66-2.96-4.14-4.32-9.99-3.84-15.03.48-4.78,2.07-9.44,4.46-13.6Z"/>
  <path class="cls-1" d="M737.61,880.25c-5.69-5.6-12.44-10.08-20.04-13.33-7.66-3.25-15.96-4.89-24.72-4.89s-17.06,1.64-24.7,4.89c-7.62,3.25-14.37,7.73-20.06,13.33-5.69,5.62-10.26,12.23-13.58,19.65-3.36,7.5-5.05,15.67-5.05,24.29s1.69,16.56,5.05,24.13c3.32,7.53,7.91,14.17,13.62,19.7,5.67,5.52,12.42,9.94,20.02,13.17,7.64,3.27,15.96,4.91,24.7,4.91s17.06-1.64,24.72-4.91c7.59-3.21,14.33-7.66,20.02-13.17,5.71-5.53,10.3-12.17,13.62-19.7,3.36-7.57,5.05-15.69,5.05-24.13s-1.7-16.78-5.05-24.29c-3.32-7.42-7.91-14.03-13.6-19.65ZM735.2,942.61c-.75,5.8-2.53,11.12-5.3,15.83-2.71,4.62-6.32,8.16-11.03,10.8-.02.02-.05.04-.07.05-4.69,2.78-9.78,4.14-15.55,4.14-8.1,0-16.24-2.62-24.2-7.78-8.09-5.23-14.94-12.6-20.38-21.9-3.57-6.37-6.03-12.92-7.34-19.49-1.32-6.55-1.59-12.87-.82-18.76.75-5.76,2.55-11.08,5.39-15.78,2.77-4.6,6.46-8.25,10.99-10.89,2.44-1.43,4.93-2.44,7.41-3.02,2.59-.59,5.34-.89,8.16-.89,7.92,0,15.99,2.59,23.97,7.67,8.09,5.16,14.94,12.49,20.36,21.81,3.73,6.35,6.28,12.89,7.59,19.44,1.3,6.57,1.59,12.87.82,18.76Z"/>
  <path class="cls-1" d="M873.11,886.85c-3.44-6.82-7.87-12.64-13.15-17.29-5.64-4.96-12.37-7.48-19.99-7.48-5.03,0-10.08,1.12-14.99,3.36-4.69,2.12-9.14,4.85-13.21,8.14-4,3.21-7.75,6.82-11.12,10.73-.45.5-.89,1.02-1.32,1.53v-79.37c0-2.39-1.87-4.27-4.26-4.27h-1.73c-.8,0-1.57.25-2.23.68-1.12.75-3.09,2.25-6.01,4.57-2.8,2.23-5.89,4.6-9.14,7.03-3.27,2.46-6.5,4.96-9.58,7.44-2.87,2.32-5.05,3.98-6.44,4.91-.23.14-.45.32-.62.52-.91.91-1.41,2.18-1.41,3.57,0,1.05.41,2.09,1.16,2.84l.12.13c.32.41.7.77,1.16,1.05.75.46,2.3,1.09,4.35.07.07-.04.14-.07.21-.13,2.54-1.45,4.71-2.2,6.48-2.2,1.32,0,1.87.39,2.36,1.66.91,2.36,1.36,5.75,1.36,10.05v99.79c0,4.3-.45,7.67-1.36,10.03-.48,1.27-1.04,1.66-2.36,1.66-1.78,0-3.96-.73-6.48-2.2-.07-.05-.16-.09-.25-.14-1.45-.7-3-.64-4.27.16-.59.36-1.07.86-1.41,1.45-.7.75-1.09,1.73-1.09,2.75,0,1.25.52,2.44,1.45,3.37.11.11.23.2.34.3l6.75,5.23c2.96,2.32,6.18,4.77,9.53,7.28,3.32,2.48,6.39,4.8,9.21,6.96,2.68,2.05,4.53,3.52,5.52,4.32.89.8,2,1.25,3.16,1.25h1.23c2.07,0,4.26-1.59,4.26-4.52v-8.51c3.52,3.18,7.21,5.73,11.05,7.62,6.6,3.25,13.46,4.91,20.36,4.91,6.39,0,12.62-1.39,18.53-4.12,5.85-2.69,11.19-6.6,15.85-11.64,4.62-4.98,8.46-11.08,11.37-18.15,2.89-7.01,4.55-14.97,4.91-23.67.68-6,.34-12.81-1.05-20.26-1.39-7.51-3.84-14.71-7.23-21.42ZM854.67,944.77c-1.62,6.12-3.89,11.49-6.73,15.96-2.75,4.32-6.05,7.73-9.78,10.14-3.61,2.34-7.34,3.48-11.4,3.48s-8.5-1.23-12.94-3.64c-4.6-2.5-9.46-6.75-14.44-12.65,0-.02-.02-.04-.04-.05,0,0-.02,0-.02-.02v-54.35c4.84-7.96,9.99-13.85,15.35-17.51,5.35-3.68,10.6-5.53,15.56-5.53,3.46,0,6.69.87,9.85,2.69,3.19,1.86,6.09,4.6,8.55,8.17,2.57,3.69,4.64,8.32,6.18,13.76,1.55,5.53,2.36,11.92,2.36,18.99,0,7.44-.84,14.35-2.5,20.56Z"/>
  <path class="cls-1" d="M988.6,919.34c1.12,0,2.21-.48,2.94-1.36.75-.86,1.07-2,.89-3.12-1.02-6.44-2.94-12.87-5.73-19.11-2.8-6.26-6.32-11.98-10.48-16.99-4.25-5.1-9.26-9.28-14.88-12.39-5.8-3.21-12.08-4.84-18.69-4.84-7.05,0-13.85,1.7-20.19,5.03-6.25,3.3-11.74,7.82-16.31,13.44-4.53,5.57-8.17,12.17-10.82,19.65-2.62,7.48-3.96,15.56-3.96,24.02s1.34,16.53,3.96,23.92c2.64,7.41,6.28,13.97,10.82,19.53,4.57,5.62,10.07,10.14,16.31,13.44,6.34,3.34,13.14,5.03,20.19,5.03,6.5,0,12.58-1.3,18.08-3.87,5.37-2.5,10.21-5.85,14.37-9.92,4.14-4.05,7.67-8.75,10.49-13.99,2.8-5.14,4.82-10.6,6.03-16.19.27-.84.66-2.44-.46-4-.59-.82-1.48-1.37-2.46-1.55-.09-.04-.2-.07-.32-.11-.02-.02-.05-.02-.07-.02-.45-.21-.95-.34-1.5-.39-.84-.18-1.71-.11-2.52.23-.68.29-1.95,1.05-2.53,2.87-.04.07-.05.14-.07.2-2.23,8.19-6.12,15.19-11.6,20.81-5.28,5.43-12.24,8.19-21.36,8.5-5.26.29-10.1-.86-14.81-3.5-4.6-2.59-8.48-6.89-11.48-12.73-2.43-4.89-4.53-10.53-6.21-16.81l-.46-2.3c-.18-.86-.36-1.62-.52-2.36-.14-.55-.29-1.18-.43-1.87-.43-3-.79-6.01-1.07-9.05,11.92-.13,23.79-.2,35.32-.2h39.53ZM913.51,909.38c.18-4.09.64-8,1.39-11.64.98-4.69,2.41-8.87,4.25-12.4,1.77-3.41,3.94-6.23,6.46-8.41,2.39-2.05,4.94-3.3,7.89-3.84,1.07-.21,2.11-.32,3.14-.32,2.73,0,5.34.75,7.89,2.27,3.91,2.32,7.44,5.52,10.51,9.53,3.18,4.18,5.94,8.91,8.23,14.08,1.57,3.57,2.84,7.09,3.77,10.51l-53.52.21Z"/>
  <path class="cls-1" d="M1023.53,875.77c1.88-1.11,3.89-1.96,5.97-2.51,2.11-.56,4.07-.84,5.82-.84,7.5,0,14.2,2.26,20.48,6.91,6.24,4.63,11.41,12.59,15.36,23.67.05.14.1.27.17.4,1.22,2.5,3.38,2.69,4.02,2.69h.24c2.87,0,4.41-2.15,4.41-4.17v-35.38c0-3.42-2.49-4.66-4.17-4.66h-.49c-.99,0-1.89.32-2.59.86-.59.37-1.08.91-1.4,1.56-.61,1.23-1.37,2.66-2.24,4.25,0,0-.49.41-2.3.41s-3.54-.29-5.14-.87c-2.05-.74-4.24-1.55-6.53-2.42-2.54-.96-5.39-1.79-8.47-2.48-3.21-.71-7.02-1.07-11.34-1.07-4.75,0-9.21.89-13.27,2.64-4.08,1.76-7.61,4.26-10.49,7.42-2.83,3.1-5.09,6.75-6.72,10.83-1.64,4.11-2.48,8.58-2.48,13.29,0,5,1.01,9.5,2.99,13.38,1.89,3.69,4.39,7.1,7.43,10.14.07.07.14.14.22.2,4.77,4.09,10,7.59,15.54,10.4,5.22,2.65,10.47,5.46,15.55,8.31,2.98,1.73,5.87,3.59,8.59,5.53,2.56,1.84,4.78,3.87,6.59,6.03,1.78,2.14,3.18,4.39,4.16,6.71.9,2.12,1.29,4.54,1.16,7.18,0,.06,0,.13,0,.19,0,1.58-.46,2.97-1.41,4.23-1.16,1.55-2.6,2.86-4.29,3.9-1.77,1.09-3.74,1.92-5.88,2.47-2.19.56-4.2.85-5.97.85-7.5,0-14.2-2.26-20.48-6.91-6.25-4.63-11.41-12.59-15.36-23.66-.06-.16-.12-.31-.19-.45-1.21-2.39-3.19-2.64-3.99-2.64h-.24c-2.87,0-4.41,2.15-4.41,4.17v35.38c0,3.42,2.49,4.66,4.17,4.66h.49c.99,0,1.89-.32,2.59-.86.59-.38,1.08-.91,1.41-1.56.61-1.23,1.34-2.62,2.24-4.24,0,0,.5-.41,2.3-.41s3.54.29,5.14.86c2.05.74,4.26,1.52,6.64,2.33,2.42.84,5.2,1.65,8.26,2.42,3.23.81,7.08,1.22,11.44,1.22,4.78,0,9.26-.94,13.34-2.79,4.03-1.83,7.56-4.34,10.51-7.47,2.94-3.13,5.23-6.81,6.79-10.94,1.54-4.09,2.33-8.54,2.33-13.22,0-5.01-1.01-9.48-3.01-13.29-1.88-3.58-4.37-6.94-7.41-9.98-.07-.07-.15-.14-.22-.21-4.77-4.09-10-7.59-15.54-10.4-5.22-2.65-10.47-5.46-15.55-8.32-2.99-1.73-5.88-3.59-8.59-5.53-2.56-1.83-4.78-3.86-6.59-6.03-1.79-2.14-3.23-4.46-4.3-6.88-.98-2.22-1.39-4.59-1.26-7.19.11-1.65.64-3.06,1.61-4.3,1.16-1.48,2.64-2.76,4.4-3.8Z"/>
  <path class="cls-1" d="M321.22,260.9h0c0-12.56,10.19-22.75,22.75-22.75-12.56,0-22.75-10.19-22.75-22.75h0c0,12.56-10.19,22.75-22.75,22.75,12.56,0,22.75,10.19,22.75,22.75Z"/>
  <path class="cls-1" d="M373.86,238.15c-41.39,33.27-73.56,83.84-60.96,138.28,9.36,41.83,43.36,63.27,85.21,57.89,5.14-.66,10.23-1.69,15.25-3,2.59,15.35,8.69,30.75,20.97,39.4,15.82,11.07,36.51,4.15,49.34-7.75,33.08-30.32,48.72-96.25,47.34-140.23h0s0-.15-.02-.42c-.01-.38-.02-.76-.04-1.14-.02-.29-.04-.58-.05-.87-.13-2.68-.39-6.97-.77-9.8-.42-3.16-.93-5.14-1.11-5.79,0-.05-.02-.09-.04-.14-.02-.08-.04-.12-.04-.12v.02c-.11-.26-.31-.49-.59-.61-.59-.25-1.28.05-1.49.65-2.76,7.71-8.49,14.92-13.53,21.25-22.46,28.22-53.99,48.43-86.96,62.28-15,6.3-31.69,13.4-48.27,12.34-12.75-.82-24.14-6.85-30.6-18.11-7.13-12.69-9.42-28.57-7.57-43.17,5-32.83,31.82-62.56,57.38-84.57,14.07,8.61,29.06,16.3,45.11,20.38,25.47,6.06,56.02-.04,73.66-20.13,3.44-4.12,6.27-9.26,6.84-14.69,0-.01,0-.02,0-.03,0-.01,0-.03,0-.05.02-.15.02-.31.03-.46.02-.27.05-.55.06-.82,0-.21,0-.41,0-.62,0-.21,0-.41,0-.62,0-.27-.03-.55-.06-.82-.01-.15-.02-.31-.03-.46,0-.02,0-.03,0-.05,0-.01,0-.02,0-.03-.58-5.42-3.4-10.57-6.84-14.69-17.64-20.09-48.19-26.19-73.66-20.13-16.05,4.08-31.04,11.77-45.11,20.38-25.56-22.01-52.38-51.75-57.38-84.57-1.85-14.59.44-30.48,7.57-43.17,6.46-11.26,17.85-17.29,30.6-18.11,16.58-1.06,33.28,6.04,48.27,12.34,32.97,13.86,64.5,34.06,86.96,62.28,5.04,6.33,10.77,13.54,13.53,21.25.22.6.9.91,1.49.65.28-.12.48-.35.59-.61v.02s.02-.05.04-.12c.01-.05.03-.09.04-.14.18-.65.68-2.63,1.11-5.79.38-2.83.64-7.12.77-9.8.02-.29.04-.58.05-.87.02-.38.03-.76.04-1.14.01-.27.02-.44.02-.44h0c1.38-43.97-14.26-109.9-47.34-140.22-12.83-11.9-33.51-18.82-49.34-7.75-12.28,8.66-18.39,24.06-20.97,39.4-5.02-1.31-10.11-2.34-15.25-3-41.85-5.37-75.85,16.07-85.21,57.89-12.59,54.44,19.57,105.01,60.96,138.28ZM521.01,331.89c2.48-5.64,4.58-11.74,6.18-17.68.27-1.06.52-2.12.77-3.18.18,8.75-1.19,17.57-2.59,26.18-6.31,34.88-20.03,74.33-42.83,101.74-7.28,8.37-16.49,16.64-27.64,17.32-12.9,1.04-19.02-16.79-22.11-31.78,10.37-4.7,20.09-10.81,29.06-17.82,24.95-19.5,46.4-45.74,59.17-74.78ZM448.27,220.87c15.11-5.75,32.24-6.29,47.61-1.16,6.88,2.35,14.86,6.27,19.59,12.27,2.84,3.61,2.84,8.72,0,12.33-4.73,6-12.71,9.92-19.59,12.27-15.37,5.13-32.5,4.6-47.61-1.16-10.8-4.11-20.92-10.36-30.4-17.28,9.48-6.92,19.6-13.16,30.4-17.28ZM454.9,20.03c11.16.68,20.36,8.94,27.64,17.32,22.79,27.41,36.51,66.86,42.83,101.74,1.41,8.6,2.77,17.42,2.59,26.18-.24-1.06-.5-2.12-.77-3.18-1.6-5.94-3.7-12.05-6.18-17.68-12.77-29.04-34.23-55.28-59.17-74.78-8.97-7.01-18.69-13.12-29.06-17.82,3.09-14.99,9.22-32.82,22.11-31.77Z"/>
  <path class="cls-1" d="M758.78,215.4c0,12.56-10.19,22.75-22.75,22.75,12.56,0,22.75,10.19,22.75,22.75,0-12.56,10.19-22.75,22.75-22.75-12.56,0-22.75-10.19-22.75-22.75Z"/>
  <path class="cls-1" d="M596.33,462.97c12.83,11.9,33.51,18.82,49.34,7.75,12.28-8.66,18.39-24.06,20.97-39.4,5.02,1.31,10.11,2.34,15.25,3,41.85,5.37,75.85-16.07,85.21-57.89,12.59-54.44-19.57-105.01-60.96-138.28,41.39-33.27,73.56-83.84,60.96-138.28-9.36-41.83-43.36-63.27-85.21-57.89-5.14.66-10.23,1.69-15.25,3-2.59-15.35-8.69-30.75-20.97-39.4-15.82-11.07-36.51-4.15-49.34,7.75-33.08,30.32-48.72,96.25-47.34,140.23h0s0,.15.02.42c.01.38.02.76.04,1.14.02.29.04.58.05.87.13,2.68.39,6.97.77,9.8.43,3.16.93,5.14,1.11,5.79,0,.05.02.09.04.14.02.08.04.12.04.12v-.02c.11.26.31.49.59.61.59.25,1.28-.05,1.49-.65,2.76-7.71,8.49-14.92,13.53-21.25,22.46-28.22,53.99-48.43,86.96-62.28,15-6.3,31.69-13.4,48.27-12.34,12.75.82,24.14,6.85,30.6,18.11,7.13,12.69,9.42,28.57,7.57,43.17-5,32.83-31.82,62.56-57.38,84.57-14.07-8.61-29.06-16.3-45.11-20.38-25.47-6.06-56.02.04-73.66,20.13-3.44,4.12-6.27,9.26-6.84,14.69,0,.01,0,.02,0,.03,0,.02,0,.03,0,.05-.02.15-.02.31-.03.46-.02.27-.05.55-.06.82,0,.21,0,.41,0,.62,0,.21,0,.41,0,.62,0,.27.03.55.06.82.01.15.02.31.03.46,0,.02,0,.03,0,.05,0,.01,0,.02,0,.03.58,5.42,3.4,10.57,6.84,14.69,17.64,20.09,48.19,26.19,73.66,20.13,16.05-4.08,31.04-11.77,45.11-20.38,25.56,22.01,52.38,51.75,57.38,84.57,1.85,14.59-.44,30.48-7.57,43.17-6.46,11.26-17.85,17.29-30.6,18.11-16.58,1.06-33.28-6.04-48.27-12.34-32.97-13.86-64.5-34.06-86.96-62.28-5.04-6.33-10.77-13.54-13.53-21.25-.22-.6-.9-.91-1.49-.65-.28.12-.48.35-.59.61v-.02s-.02.05-.04.12c-.01.05-.03.09-.04.14-.18.65-.68,2.63-1.11,5.79-.38,2.83-.64,7.12-.77,9.8-.02.29-.04.58-.05.87-.02.38-.03.76-.04,1.14-.01.27-.02.44-.02.44h0c-1.38,43.97,14.26,109.9,47.34,140.22ZM558.99,144.41c-2.48,5.64-4.58,11.74-6.18,17.68-.27,1.06-.52,2.12-.77,3.18-.18-8.76,1.19-17.57,2.59-26.18,6.31-34.88,20.03-74.33,42.83-101.74,7.28-8.37,16.49-16.64,27.64-17.32,12.9-1.04,19.02,16.79,22.11,31.77-10.37,4.7-20.09,10.81-29.06,17.82-24.95,19.5-46.4,45.74-59.17,74.78ZM631.73,255.42c-15.11,5.75-32.24,6.29-47.61,1.16-6.88-2.35-14.86-6.27-19.59-12.27-2.84-3.61-2.84-8.72,0-12.33,4.73-6,12.71-9.92,19.59-12.27,15.37-5.13,32.5-4.6,47.61,1.16,10.8,4.11,20.92,10.36,30.4,17.28-9.48,6.92-19.6,13.16-30.4,17.28ZM558.99,331.89c12.77,29.04,34.23,55.28,59.17,74.78,8.97,7.01,18.69,13.12,29.06,17.82-3.09,14.99-9.22,32.82-22.11,31.78-11.16-.68-20.36-8.94-27.64-17.32-22.79-27.41-36.51-66.86-42.83-101.74-1.41-8.6-2.77-17.42-2.59-26.18.24,1.06.5,2.12.77,3.18,1.6,5.94,3.7,12.05,6.18,17.68Z"/>
  <polygon class="cls-1" points="95.04 255.84 70.98 255.84 70.98 240.79 90.98 240.79 90.98 234.12 70.98 234.12 70.98 220.45 95.04 220.45 95.04 213.79 63.91 213.79 63.91 262.51 95.04 262.51 95.04 255.84"/>
  <path class="cls-1" d="M125.73,255.93c-1.65.62-3.45.93-5.41.93-3.16,0-5.92-.83-8.29-2.49-2.37-1.66-3.93-3.98-4.67-6.95l-7.38,1.12c.54,3.09,1.72,5.76,3.54,8s4.13,3.97,6.94,5.18c2.81,1.21,5.96,1.81,9.46,1.81,2.5,0,4.88-.32,7.14-.95,2.26-.63,4.25-1.57,5.97-2.83s3.08-2.81,4.08-4.67,1.49-4.02,1.49-6.48-.44-4.34-1.32-5.91c-.88-1.57-1.99-2.83-3.33-3.77-1.34-.95-2.73-1.69-4.16-2.22-1.43-.53-2.71-.95-3.84-1.27l-9-2.54c-1.15-.32-2.31-.71-3.47-1.2-1.16-.48-2.14-1.14-2.93-1.98s-1.18-1.93-1.18-3.28.44-2.59,1.34-3.65c.89-1.06,2.09-1.88,3.59-2.47,1.5-.59,3.15-.86,4.96-.81,1.87.02,3.61.39,5.21,1.1s2.96,1.73,4.06,3.04,1.83,2.89,2.17,4.72l7.58-1.29c-.65-3-1.84-5.55-3.57-7.66-1.73-2.11-3.89-3.73-6.5-4.86-2.6-1.13-5.55-1.71-8.85-1.76-3.27,0-6.23.54-8.86,1.61-2.64,1.07-4.73,2.65-6.28,4.74-1.55,2.09-2.32,4.63-2.32,7.63,0,1.99.33,3.67.98,5.06s1.51,2.55,2.55,3.48c1.05.94,2.2,1.69,3.47,2.27,1.26.58,2.5,1.04,3.72,1.4l12.48,3.69c.9.27,1.73.59,2.49.97.76.37,1.4.81,1.93,1.32s.95,1.1,1.25,1.78c.3.68.46,1.46.46,2.33,0,1.62-.5,3.02-1.51,4.18-1,1.16-2.33,2.05-3.98,2.67Z"/>
  <polygon class="cls-1" points="157.94 262.51 165.01 262.51 165.01 220.45 181.21 220.45 181.21 213.79 141.73 213.79 141.73 220.45 157.94 220.45 157.94 262.51"/>
  <path class="cls-1" d="M204.41,262.47c1.23-.02,2.41-.11,3.54-.27,3.81-.47,7.02-1.83,9.63-4.08,2.61-2.24,4.57-5.1,5.9-8.56s2-7.27,2-11.42-.67-7.92-2-11.38c-1.33-3.46-3.3-6.32-5.9-8.58-2.6-2.26-5.81-3.62-9.63-4.09-1.13-.16-2.31-.25-3.54-.27-1.23-.02-2.07-.03-2.52-.03h-15.26v48.72h15.26c.45,0,1.29-.01,2.52-.03ZM193.87,220.52h8.02c.74,0,1.65.02,2.72.05,1.07.03,2.01.13,2.82.29,2.44.45,4.43,1.5,5.97,3.16,1.54,1.66,2.69,3.71,3.43,6.16.74,2.45,1.12,5.1,1.12,7.97s-.36,5.39-1.08,7.85-1.86,4.53-3.4,6.21c-1.55,1.68-3.56,2.76-6.04,3.23-.81.14-1.75.22-2.81.27-1.06.05-1.97.07-2.74.07h-8.02v-35.25Z"/>
  <rect class="cls-1" x="231.19" y="255.03" width="7.48" height="7.48"/>
  <path class="cls-1" d="M875.64,255.74h-22.02l14.1-12.59c1.76-1.56,3.23-3,4.4-4.33,1.17-1.33,2.05-2.77,2.64-4.33.59-1.56.88-3.45.88-5.69,0-3.09-.71-5.84-2.11-8.25-1.41-2.41-3.33-4.31-5.77-5.7s-5.19-2.08-8.26-2.08c-3.23,0-6.09.67-8.59,2.01-2.5,1.34-4.47,3.2-5.91,5.58-1.43,2.38-2.15,5.15-2.15,8.31h7.24c-.02-1.62.36-3.14,1.15-4.53.79-1.4,1.89-2.52,3.3-3.37s3.02-1.27,4.82-1.27,3.32.41,4.67,1.22c1.35.81,2.41,1.91,3.18,3.3s1.15,2.95,1.15,4.68c0,1.38-.31,2.75-.93,4.13-.62,1.38-1.79,2.82-3.5,4.33l-21.21,19.02-.03,6.29h32.96v-6.73Z"/>
  <path class="cls-1" d="M891.95,261.34c2.55,1.46,5.48,2.18,8.8,2.18s6.25-.73,8.8-2.18c2.55-1.45,4.55-3.46,6-6,1.46-2.55,2.18-5.48,2.18-8.8v-16.78c0-3.32-.73-6.25-2.18-8.8s-3.46-4.55-6-6.01c-2.55-1.46-5.48-2.18-8.8-2.18s-6.25.73-8.8,2.18-4.55,3.46-6,6.01c-1.46,2.55-2.18,5.48-2.18,8.8v16.78c0,3.32.73,6.25,2.18,8.8,1.45,2.55,3.46,4.55,6,6ZM890.97,229.25c0-1.8.44-3.45,1.32-4.92.88-1.48,2.06-2.65,3.54-3.52,1.48-.87,3.12-1.3,4.92-1.3s3.45.43,4.92,1.3c1.48.87,2.66,2.04,3.53,3.52.88,1.48,1.32,3.12,1.32,4.92v17.73c0,1.83-.44,3.48-1.32,4.96-.88,1.48-2.06,2.65-3.53,3.52-1.48.87-3.12,1.3-4.92,1.3s-3.45-.43-4.92-1.3c-1.48-.87-2.66-2.04-3.54-3.52-.88-1.48-1.32-3.13-1.32-4.96v-17.73Z"/>
  <path class="cls-1" d="M958.8,255.74h-22.02l14.1-12.59c1.76-1.56,3.22-3,4.4-4.33,1.17-1.33,2.05-2.77,2.64-4.33.59-1.56.88-3.45.88-5.69,0-3.09-.7-5.84-2.11-8.25s-3.33-4.31-5.77-5.7c-2.43-1.39-5.19-2.08-8.25-2.08-3.23,0-6.09.67-8.59,2.01-2.5,1.34-4.47,3.2-5.9,5.58-1.43,2.38-2.15,5.15-2.15,8.31h7.24c-.02-1.62.36-3.14,1.15-4.53.79-1.4,1.89-2.52,3.3-3.37s3.02-1.27,4.82-1.27,3.32.41,4.67,1.22c1.35.81,2.41,1.91,3.18,3.3s1.15,2.95,1.15,4.68c0,1.38-.31,2.75-.93,4.13-.62,1.38-1.79,2.82-3.5,4.33l-21.21,19.02-.03,6.29h32.95v-6.73Z"/>
  <polygon class="cls-1" points="975.41 262.51 982.62 262.51 982.62 213.79 975.41 213.79 966.25 219.27 966.25 227.15 975.41 221.57 975.41 262.51"/>
</svg>