<?xml version="1.0" encoding="UTF-8"?>
<svg id="Layer_1" xmlns="http://www.w3.org/2000/svg" viewBox="0 0 1080 305.15">
  <defs>
    <style>
      .cls-1 {
        fill: #bf6066;
      }
    </style>
  </defs>
  <g>
    <path class="cls-1" d="M629.34,247.59v-.25c0-1.27-1-2.27-2.27-2.27h-20.96c-1.27,0-2.27,1-2.27,2.27v.25c0,1.29.98,2.27,2.27,2.27.92,0,1.64.13,2.13.39.42.22.69.47.83.74.18.36.25.75.23,1.19-.03.52-.14.98-.36,1.41,0,.01-.01.03-.02.04l-17.38,37.55-11.66-33.24c-.35-.95-.68-1.92-.92-2.9-.23-.99-.06-2.02.34-2.94.16-.37.34-.73.55-1.07.36-.58.88-1.29,1.65-1.29h.13c1.12,0,2.02-.9,2.02-2.02v-.25c0-.31-.07-.62-.21-.9l-.13-.25c-.1-.19-.22-.37-.37-.52l-.13-.13c-.38-.38-.89-.6-1.43-.6h-23.22c-1.11,0-1.78.67-2.04,1.3-.16.39-.19.8-.11,1.19.01.27.08.54.2.78.42.87,1.24,1.39,2.19,1.39.65,0,1.28.36,1.84.65,1.67.85,3.22,1.96,4.5,3.34,1.34,1.45,2.24,3.14,2.95,4.97.02.04.03.09.05.13.06.16.12.32.18.48l2.24,7.16-11.64,24.73s-11.78-33.26-11.78-33.26c-.39-1.05-.79-2.16-.94-3.28-.11-.83.05-1.68.37-2.45.28-.69.54-1.34,1.12-1.85.33-.28.71-.49,1.12-.62.44-.14.88-.11,1.28-.38.63-.43.95-1.15.95-1.9,0-.31-.07-.62-.21-.9l-.13-.25c-.19-.39-.51-.7-.9-.9l-.25-.13c-.28-.14-.59-.22-.91-.22h-23.1c-1.47,0-2.27,1.11-2.27,2.15,0,.31.07.62.21.91l.12.23c.42.87,1.24,1.39,2.19,1.39.14,0,.71.05,1.97.75,1.08.6,2.16,1.35,3.2,2.25,1.66,1.57,2.37,2.54,2.67,3.07.49.87,1.01,2.06,1.55,3.52l16.57,46.85c.29.8,1.05,1.34,1.9,1.34h2.13c.78,0,1.49-.45,1.83-1.16l15.5-32.88,11.78,32.7c.29.8,1.05,1.33,1.9,1.33h2.01c.78,0,1.49-.45,1.83-1.16,3.84-8.18,7.79-16.54,11.73-24.85,1.33-2.8,2.66-5.61,3.98-8.41,1.38-2.91,2.75-5.83,4.13-8.74.7-1.49,1.4-3.63,2.1-5.12.63-1.34,1.2-2.67,2.04-3.9.6-.87,1.5-1.65,2.35-2.27,1.18-.84,2.41-1.49,3.68-1.93,1.34-.46,2.64-.79,3.86-.98,1.24-.19,2.23-.29,2.95-.29,1.27,0,2.27-1,2.27-2.27Z"/>
    <path class="cls-1" d="M682.26,293.86c-.52-.37-1.15-.54-1.79-.44-.59.08-1.13.37-1.61.85-.15.15-.28.33-.38.53-.52,1.03-.93,1.58-1.19,1.86-.38.42-.86.81-1.43,1.18-.81.52-2.01.65-2.79.01-.85-.7-.68-1.83-.68-2.8,0-.31,0-.62,0-.94v-27.56c0-3.34-.34-6.33-1.01-8.92-.71-2.73-1.91-5.06-3.59-6.93-1.69-1.88-3.96-3.32-6.76-4.27-2.67-.9-5.99-1.36-9.87-1.36-2.43,0-4.81.32-7.07.95-2.28.64-4.36,1.57-6.16,2.77-1.85,1.23-3.34,2.68-4.44,4.32-1.19,1.76-1.79,3.7-1.79,5.78,0,1.54.4,2.98,1.17,4.25.95,1.56,2.49,2.41,4.36,2.41,2.34,0,3.67-1.01,4.38-1.86.8-.96,1.41-2.15,1.83-3.54.34-1.16.69-2.41,1.02-3.71.29-1.14.7-2.22,1.22-3.22.43-.83,1.05-1.51,1.9-2.07.79-.52,1.99-.79,3.59-.79,3.2,0,5.54.69,6.94,2.06,1.39,1.36,2.09,3.74,2.09,7.09v8.46c-.97.15-2.07.35-3.3.57-2.11.39-4.4.95-6.81,1.69-2.4.73-4.88,1.64-7.37,2.71-2.58,1.11-4.95,2.51-7.04,4.16-2.16,1.7-3.93,3.73-5.27,6.03-1.39,2.39-2.09,5.19-2.09,8.29,0,4.09.86,7.39,2.56,9.82,1.69,2.42,3.92,4.18,6.64,5.25,1.24.48,2.58.8,3.97.94,1.31.13,2.67.16,4.02.07,3.24-.18,6.51-.97,9.72-2.36,1.96-.84,3.85-1.89,5.55-3.17-.19.14.94,1.57,1.07,1.74,1.01,1.29,2.34,2.39,3.86,3.02,1.25.52,2.78.78,4.54.78,1.89,0,3.59-.37,5.04-1.09,1.38-.69,2.6-1.59,3.63-2.67.98-1.02,1.83-2.14,2.53-3.31.64-1.06,1.22-2.07,1.72-2.99.56-.96.41-1.78.28-2.19-.2-.59-.62-1.08-1.19-1.4ZM641.56,294.95c-.9-1.58-1.45-3.39-1.63-5.4-.18-1.96.15-3.85,1.02-5.76.87-1.91,2.36-3.7,4.43-5.33,2.11-1.66,5.06-2.97,8.78-3.9,1.59-.4,3.13-.7,4.56-.9.52-.07,1.01-.14,1.47-.21v17.6c0,.79-.02,1.65-.06,2.54-.03.67-.05,1.35-.06,2.05-1.18,1.19-2.62,2.26-4.29,3.18-1.82,1-3.67,1.51-5.49,1.51s-3.52-.49-5.04-1.49c-1.59-1.04-2.79-2.32-3.69-3.9Z"/>
    <path class="cls-1" d="M729.82,247.41c-2.1-1.55-4.7-2.34-7.73-2.34-4.13,0-7.99,1.09-11.48,3.25-1.64,1.02-3.13,2.21-4.45,3.57v-7.06c0-1.04-.8-2.14-2.27-2.14h-.88c-.4,0-.79.12-1.12.34-.56.38-1.55,1.13-3.02,2.29-1.42,1.12-2.97,2.32-4.6,3.54-1.61,1.21-3.23,2.44-4.8,3.66-1.51,1.17-2.63,2.05-3.39,2.63-.07.05-.13.11-.19.16-.43.43-.66.98-.66,1.57,0,.42.13.83.36,1.18l.04.07c.46.95,1.22,1.21,1.64,1.27.54.09,1.08-.04,1.53-.34,1.23-.7,2.3-1.05,3.16-1.05.67,0,.94.2,1.19.83.45,1.19.68,2.89.68,5.05v30.03c0,1.47-.07,2.64-.22,3.48-.06.35-.33,1.14-1.46,2.53-.03.04-.06.08-.09.12-.6.87-1.28,1.55-2.02,2.03-.62.4-1.17.61-1.6.61-1.27,0-2.27,1-2.27,2.27v.25c0,1.27,1,2.27,2.27,2.27h23.22c.77,0,1.46-.43,1.81-1.12l.13-.25c.14-.28.21-.59.21-.9v-.25c0-1-.73-1.84-1.71-2-.77-.12-1.47-.41-2.13-.89-.76-.55-1.46-1.21-2.09-1.97-1.02-1.45-1.35-2.31-1.46-2.78-.18-.81-.27-1.96-.27-3.4v-32.63c.52-1.18,1.2-2.42,2.05-3.68.85-1.28,1.94-2.44,3.22-3.46.58-.33,1.42-.83,2.55-1.52.86-.52,1.79-.78,2.85-.78.63,0,1.2.11,1.66.31.9.42,1.55.95,1.97,1.63.58.92,1.08,1.86,1.51,2.78.51,1.11,1.06,2.09,1.63,2.9.62.88,1.8,1.92,3.91,1.92,3.13,0,5.26-1.01,6.35-2.99,1-1.83,1.08-3.89.22-5.95-.77-1.84-2.19-3.54-4.24-5.05Z"/>
    <path class="cls-1" d="M844.65,247.41c-2.1-1.55-4.7-2.34-7.73-2.34-4.13,0-7.99,1.09-11.48,3.25-1.64,1.02-3.13,2.21-4.45,3.57v-7.06c0-1.04-.8-2.14-2.27-2.14h-.88c-.4,0-.79.12-1.12.34-.56.38-1.55,1.13-3.02,2.29-1.42,1.12-2.97,2.32-4.6,3.54-1.61,1.21-3.23,2.44-4.8,3.66-1.51,1.17-2.63,2.05-3.39,2.63-.07.05-.13.11-.19.16-.43.43-.66.98-.66,1.57,0,.42.13.83.36,1.18l.04.07c.46.95,1.22,1.21,1.64,1.27.54.09,1.08-.04,1.53-.34,1.23-.7,2.3-1.05,3.16-1.05.67,0,.94.2,1.19.83.45,1.19.68,2.89.68,5.05v30.03c0,1.47-.07,2.64-.22,3.48-.06.35-.33,1.14-1.46,2.53-.03.04-.06.08-.09.12-.6.87-1.28,1.55-2.02,2.03-.62.4-1.17.61-1.6.61-1.27,0-2.27,1-2.27,2.27v.25c0,1.27,1,2.27,2.27,2.27h23.22c.77,0,1.46-.43,1.81-1.12l.13-.25c.14-.28.21-.59.21-.9v-.25c0-1-.73-1.84-1.71-2-.77-.12-1.47-.41-2.13-.89-.76-.55-1.46-1.21-2.09-1.97-1.02-1.45-1.35-2.31-1.46-2.78-.18-.81-.27-1.96-.27-3.4v-32.63c.52-1.18,1.2-2.42,2.05-3.68.85-1.28,1.94-2.44,3.22-3.46.58-.33,1.42-.83,2.55-1.52.86-.52,1.79-.78,2.85-.78.63,0,1.2.11,1.66.31.9.42,1.55.95,1.97,1.63.58.92,1.08,1.86,1.51,2.78.51,1.11,1.06,2.09,1.63,2.9.62.88,1.8,1.92,3.91,1.92,3.13,0,5.26-1.01,6.35-2.99,1-1.83,1.08-3.89.22-5.95-.77-1.84-2.19-3.54-4.24-5.05Z"/>
    <path class="cls-1" d="M790.59,231.15c.12-.21.28-.48.47-.62.45-.31,1.1-.23,1.6-.12.67.15,1.31.43,1.92.76.11.06.21.12.32.17.37.26.8.4,1.24.4.58.02,1.14-.23,1.57-.66l.25-.25c.38-.38.59-.89.59-1.43,0-.69-.25-1.32-.69-1.78-.1-.1-.21-.2-.33-.28-.7-.47-1.79-1.3-3.24-2.47-1.53-1.23-3.15-2.49-4.83-3.75-1.64-1.23-3.19-2.42-4.6-3.54-1.48-1.18-2.47-1.93-3.02-2.29-.33-.22-.72-.34-1.12-.34h-.88c-1.47,0-2.27,1.1-2.27,2.14v34.28c-1.75-1.59-3.58-2.87-5.49-3.83-3.28-1.64-6.71-2.47-10.19-2.47-3.21,0-6.35.7-9.32,2.07-2.95,1.36-5.63,3.33-7.98,5.86-2.33,2.51-4.25,5.58-5.72,9.14-1.46,3.53-2.29,7.54-2.47,11.91-.35,3.02-.17,6.45.53,10.19.7,3.77,1.92,7.4,3.64,10.77,1.74,3.44,3.97,6.36,6.62,8.7,2.83,2.5,6.22,3.77,10.06,3.77,2.53,0,5.06-.54,7.52-1.61,2.37-1.03,4.62-2.39,6.68-4.04,2.01-1.62,3.89-3.43,5.6-5.4.18-.21.36-.42.54-.63v9.66c0,1.27,1,2.27,2.27,2.27h.63c.58,0,1.13-.22,1.58-.63.36-.3,1.13-.91,2.78-2.17,1.42-1.08,2.96-2.25,4.63-3.5,1.78-1.33,3.35-2.53,4.8-3.66l3.39-2.64c.07-.05.13-.11.19-.17.46-.46.72-1.06.72-1.68,0-.53-.21-1.05-.59-1.43l-.1-.1c-.46-.64-1.07-.83-1.42-.89-.54-.09-1.09.04-1.53.35-1.23.7-2.28,1.05-3.15,1.05-.67,0-.95-.19-1.19-.84-.45-1.18-.68-2.88-.68-5.05v-50.21c0-.81.02-1.63.11-2.44.07-.61.15-1.22.29-1.82.06-.26.15-.51.28-.75,0-.01.01-.02.02-.03ZM752.87,292.73c-1.29-1.86-2.33-4.19-3.1-6.93-.78-2.77-1.18-5.99-1.18-9.56s.42-7.22,1.25-10.34c.82-3.09,1.96-5.79,3.39-8.03,1.38-2.17,3.04-3.89,4.92-5.1,1.82-1.18,3.7-1.75,5.74-1.75s4.25.63,6.49,1.88c2.3,1.28,4.71,3.41,7.19,6.33v27.38c-2.44,4.01-5.02,6.98-7.67,8.82-2.65,1.84-5.26,2.78-7.76,2.78-1.75,0-3.37-.45-4.95-1.36-1.62-.93-3.07-2.31-4.31-4.11Z"/>
    <path class="cls-1" d="M903.7,254.24c-2.87-2.82-6.26-5.08-10.09-6.71-3.85-1.64-8.03-2.46-12.43-2.46s-8.59.83-12.43,2.46c-3.83,1.63-7.23,3.89-10.09,6.71-2.87,2.83-5.17,6.15-6.84,9.89-1.69,3.77-2.54,7.88-2.54,12.22s.85,8.34,2.54,12.15c1.67,3.79,3.98,7.13,6.85,9.91,2.86,2.78,6.25,5.01,10.08,6.64,3.85,1.64,8.03,2.46,12.43,2.46s8.59-.83,12.43-2.46c3.82-1.62,7.21-3.86,10.08-6.64,2.87-2.79,5.18-6.12,6.85-9.91,1.68-3.81,2.54-7.9,2.54-12.15s-.86-8.44-2.54-12.22c-1.67-3.74-3.97-7.07-6.84-9.89ZM894.28,299.03s-.03.02-.04.02c-2.36,1.4-4.92,2.09-7.82,2.09-4.07,0-8.17-1.32-12.18-3.91-4.07-2.63-7.52-6.34-10.25-11.03-1.8-3.2-3.04-6.5-3.7-9.8-.66-3.3-.8-6.47-.41-9.44.38-2.91,1.29-5.58,2.72-7.94,1.39-2.31,3.25-4.15,5.53-5.47,1.23-.72,2.48-1.23,3.73-1.52,1.3-.3,2.68-.45,4.1-.45,3.99,0,8.05,1.3,12.07,3.86,4.07,2.6,7.52,6.29,10.25,10.97,1.87,3.2,3.15,6.49,3.81,9.78.66,3.3.8,6.48.41,9.44-.38,2.92-1.28,5.6-2.67,7.96-1.37,2.33-3.18,4.11-5.55,5.44Z"/>
    <path class="cls-1" d="M973.48,257.57c-1.74-3.43-3.97-6.36-6.62-8.7-2.84-2.5-6.22-3.77-10.06-3.77-2.54,0-5.08.57-7.55,1.69-2.36,1.07-4.6,2.45-6.65,4.09-2.01,1.62-3.89,3.43-5.6,5.4-.22.26-.44.52-.66.77v-39.94c0-1.2-.94-2.14-2.14-2.14h-.88c-.4,0-.79.12-1.12.34-.56.38-1.55,1.13-3.02,2.29-1.42,1.12-2.96,2.32-4.6,3.54-1.65,1.23-3.27,2.49-4.83,3.75-1.45,1.17-2.54,2-3.24,2.47-.11.08-.22.16-.32.26-.46.46-.71,1.1-.71,1.8,0,.53.21,1.05.59,1.43l.06.06c.15.21.35.39.58.53.38.23,1.16.55,2.19.04.04-.02.07-.04.11-.06,1.27-.74,2.37-1.11,3.26-1.11.67,0,.94.2,1.19.84.45,1.19.68,2.89.68,5.05v50.21c0,2.17-.23,3.87-.68,5.05-.25.64-.52.84-1.19.84-.89,0-1.99-.37-3.25-1.11-.04-.02-.08-.05-.13-.07-.72-.35-1.51-.33-2.15.08-.3.18-.53.44-.71.73-.35.37-.55.87-.55,1.38,0,.63.26,1.23.73,1.69.05.05.11.1.17.15l3.39,2.64c1.49,1.16,3.11,2.39,4.8,3.66,1.67,1.25,3.21,2.42,4.63,3.5,1.35,1.04,2.29,1.77,2.78,2.17.45.41,1.01.63,1.59.63h.63c1.04,0,2.14-.8,2.14-2.27v-4.29c1.76,1.6,3.62,2.88,5.56,3.84,3.32,1.64,6.77,2.47,10.25,2.47,3.21,0,6.35-.7,9.32-2.07,2.95-1.36,5.63-3.33,7.98-5.86,2.33-2.51,4.26-5.58,5.72-9.14,1.46-3.53,2.29-7.53,2.47-11.91.34-3.02.17-6.45-.53-10.19-.7-3.77-1.93-7.4-3.64-10.77ZM961.17,259.88c1.29,1.86,2.33,4.19,3.11,6.93.78,2.78,1.18,6,1.18,9.56,0,3.74-.42,7.22-1.25,10.34-.82,3.09-1.96,5.79-3.39,8.03-1.38,2.17-3.04,3.89-4.92,5.1-1.82,1.18-3.7,1.75-5.74,1.75s-4.27-.61-6.51-1.83c-2.32-1.25-4.76-3.4-7.26-6.37,0,0-.02-.02-.02-.03,0,0,0,0,0,0v-27.35c2.43-4,5.03-6.97,7.72-8.81,2.7-1.85,5.34-2.79,7.83-2.79,1.74,0,3.37.45,4.95,1.36,1.61.93,3.06,2.32,4.31,4.11Z"/>
    <path class="cls-1" d="M1033.11,273.92c.57,0,1.12-.25,1.49-.69.37-.43.53-1.01.45-1.58-.51-3.24-1.48-6.47-2.88-9.62-1.4-3.15-3.18-6.02-5.27-8.55-2.14-2.57-4.66-4.67-7.49-6.24-2.92-1.62-6.08-2.44-9.4-2.44-3.55,0-6.97.85-10.16,2.54-3.14,1.66-5.9,3.93-8.21,6.76-2.28,2.8-4.11,6.13-5.44,9.89-1.33,3.76-2,7.83-2,12.09s.67,8.31,2,12.03c1.33,3.72,3.16,7.03,5.44,9.83,2.31,2.83,5.07,5.1,8.21,6.76,3.19,1.68,6.61,2.54,10.16,2.54,3.27,0,6.33-.66,9.1-1.95,2.7-1.26,5.14-2.94,7.23-5,2.08-2.03,3.85-4.4,5.28-7.04,1.4-2.59,2.42-5.33,3.03-8.15.13-.42.33-1.23-.23-2.01-.3-.41-.74-.69-1.23-.78-.04-.01-.1-.03-.17-.05,0,0-.02,0-.03,0-.23-.1-.48-.17-.75-.2-.42-.09-.87-.05-1.27.12-.35.15-.98.53-1.28,1.45-.01.03-.02.07-.03.1-1.12,4.11-3.09,7.64-5.84,10.47-2.66,2.73-6.16,4.13-10.75,4.28-2.65.14-5.09-.43-7.45-1.76-2.32-1.3-4.27-3.46-5.78-6.41-1.23-2.45-2.28-5.3-3.13-8.45l-.23-1.16c-.09-.43-.18-.83-.26-1.19-.07-.28-.14-.6-.21-.94-.22-1.51-.4-3.03-.54-4.55,6-.06,11.97-.1,17.77-.1h19.89ZM1001.41,252.58c1.2-1.03,2.49-1.67,3.97-1.94.54-.11,1.06-.16,1.58-.16,1.37,0,2.68.38,3.97,1.14,1.96,1.16,3.74,2.78,5.28,4.8,1.6,2.1,3,4.48,4.15,7.09.79,1.8,1.43,3.57,1.89,5.29l-26.94.1c.09-2.06.33-4.02.71-5.85.49-2.37,1.2-4.47,2.13-6.24.89-1.71,1.99-3.13,3.25-4.23Z"/>
    <path class="cls-1" d="M1049.37,253.9c.58-.74,1.33-1.39,2.21-1.91.95-.56,1.96-.98,3-1.26,1.06-.28,2.05-.42,2.93-.42,3.77,0,7.15,1.14,10.31,3.48,3.14,2.33,5.74,6.34,7.73,11.91.02.07.05.14.08.2.61,1.26,1.7,1.36,2.02,1.36h.12c1.44,0,2.22-1.08,2.22-2.1v-17.81c0-1.72-1.25-2.34-2.1-2.34h-.25c-.5,0-.95.16-1.31.43-.3.19-.54.46-.71.78-.31.62-.69,1.34-1.13,2.14,0,0-.25.21-1.16.21s-1.78-.15-2.59-.44c-1.03-.37-2.14-.78-3.29-1.22-1.28-.48-2.71-.9-4.26-1.25-1.61-.36-3.53-.54-5.71-.54-2.39,0-4.63.45-6.68,1.33-2.05.89-3.83,2.14-5.28,3.74-1.42,1.56-2.56,3.4-3.38,5.45-.83,2.07-1.25,4.32-1.25,6.69,0,2.52.51,4.78,1.51,6.73.95,1.86,2.21,3.57,3.74,5.1.04.04.07.07.11.1,2.4,2.06,5.03,3.82,7.82,5.24,2.63,1.34,5.27,2.75,7.82,4.18,1.5.87,2.96,1.81,4.32,2.78,1.29.92,2.41,1.95,3.32,3.03.89,1.07,1.6,2.21,2.09,3.38.45,1.07.65,2.28.58,3.61,0,.03,0,.06,0,.1,0,.8-.23,1.49-.71,2.13-.58.78-1.31,1.44-2.16,1.96-.89.55-1.88.97-2.96,1.24-1.1.28-2.11.43-3.01.43-3.78,0-7.15-1.14-10.31-3.48-3.14-2.33-5.74-6.34-7.73-11.91-.03-.08-.06-.15-.1-.23-.61-1.2-1.61-1.33-2.01-1.33h-.12c-1.44,0-2.22,1.08-2.22,2.1v17.81c0,1.72,1.25,2.34,2.1,2.34h.25c.5,0,.95-.16,1.31-.43.3-.19.54-.46.71-.79.31-.62.68-1.32,1.13-2.14,0,0,.25-.21,1.16-.21s1.78.15,2.58.44c1.03.37,2.15.76,3.34,1.17,1.22.42,2.62.83,4.16,1.22,1.62.41,3.56.61,5.76.61,2.4,0,4.66-.47,6.71-1.41,2.03-.92,3.81-2.19,5.29-3.76,1.48-1.57,2.63-3.43,3.42-5.51.78-2.06,1.17-4.3,1.17-6.65,0-2.52-.51-4.77-1.52-6.69-.95-1.8-2.2-3.49-3.73-5.02-.04-.04-.07-.07-.11-.1-2.4-2.06-5.03-3.82-7.82-5.24-2.63-1.33-5.27-2.75-7.83-4.19-1.51-.87-2.96-1.81-4.32-2.78-1.29-.92-2.41-1.94-3.32-3.04-.9-1.08-1.63-2.24-2.17-3.46-.49-1.12-.7-2.31-.63-3.62.05-.83.32-1.54.81-2.17Z"/>
  </g>
  <path class="cls-1" d="M231.27,184.58c-.79-.79-1.86-1.23-2.97-1.23-1.04,0-2.21-.45-3.48-1.34-1.61-1.12-2.99-2.46-4.09-3.98-.02-.03-.04-.06-.06-.09-2.46-3.22-3.11-5-3.28-5.79-.37-1.69-.56-4.07-.56-7.08v-45.76c0-3.29.02-6.58.05-9.87.03-3.21.11-6.42-.25-9.62-.03-.28-.11-.59-.11-.88-.45-3.34-1.19-6.65-2.33-9.82-1.13-3.16-2.67-6.18-4.64-8.9-1.8-2.49-3.96-4.71-6.4-6.58-8.91-6.82-20.85-10.28-35.49-10.28-4.29,0-8.58.74-12.75,2.2-4,1.39-7.91,3.23-11.63,5.46-3.6,2.16-7.13,4.59-10.49,7.22-2.67,2.09-5.18,4.19-7.48,6.26-1.47-2.83-3.24-5.36-5.3-7.54-3.3-3.49-7.09-6.3-11.28-8.34-4.11-2-8.64-3.41-13.48-4.17-4.65-.73-9.49-1.1-14.37-1.1-4.29,0-8.58.74-12.75,2.2-3.99,1.39-7.93,3.22-11.72,5.44-3.73,2.18-7.37,4.67-10.81,7.39-.71.56-1.4,1.12-2.08,1.68v-15.16c0-2.5-1.96-4.47-4.47-4.47h-1.57c-1.12,0-2.2.4-3.1,1.13-1.21.83-3.16,2.36-5.97,4.65-2.8,2.29-5.97,4.76-9.4,7.34-3.38,2.53-6.74,5.1-9.99,7.63-2.99,2.33-5.26,4.1-6.83,5.31-1.58.99-2.03,2.39-2.15,3.17-.16,1.04.06,2.1.61,2.99l.13.26c.19.39.45.74.75,1.05.87.9,2.03,1.4,3.24,1.4.98,0,1.86-.29,2.64-.84,1.5-.85,3.09-1.6,4.78-1.97.61-.13,1.36-.29,1.99-.23,1.69.16,2.59,1.6,3.03,3.09.44,1.48.55,3.02.68,4.55.18,2.16.22,4.31.22,6.47v58.62c0,2.99-.19,5.37-.56,7.08-.21.97-.91,2.72-3.01,5.52-1.44,1.88-2.99,3.36-4.58,4.4-1.28.84-2.43,1.28-3.32,1.28-2.16,0-4.47,1.66-4.47,4.73v.52c0,3.07,2.3,4.73,4.47,4.73h48.36c2.16,0,4.47-1.66,4.47-4.73v-.52c0-2.06-1.49-3.81-3.51-4.15-1.47-.24-2.96-.89-4.43-1.92-1.64-1.14-3.12-2.5-4.41-4.06-2.12-3.02-2.82-4.82-3.03-5.8-.37-1.69-.56-4.07-.56-7.08v-70.04c2.2-2.02,4.6-4.15,7.16-6.36,2.95-2.54,6.2-4.92,9.66-7.06,3.43-2.12,6.98-3.9,10.54-5.27,3.34-1.29,6.7-1.94,9.99-1.94,7.04,0,12.61,2.83,17.04,8.66,4.64,6.11,6.99,14.27,6.99,24.25v57.77c0,2.99-.19,5.37-.56,7.08-.21.97-.91,2.72-3.01,5.52-1.44,1.88-2.99,3.36-4.58,4.4-1.28.84-2.43,1.28-3.32,1.28-2.65,0-4.73,2.08-4.73,4.73v.52c0,2.65,2.08,4.73,4.73,4.73h48.36c2.16,0,4.47-1.66,4.47-4.73v-.52c0-2.06-1.49-3.81-3.51-4.15-1.47-.24-2.96-.89-4.43-1.92-1.64-1.14-3.12-2.5-4.41-4.06-2.12-3.02-2.82-4.82-3.03-5.8-.37-1.69-.56-4.07-.56-7.08v-57.24c0-2.33-.09-4.68-.28-7-.13-1.65-.4-3.34-.8-5.04,2.11-2.02,4.47-4.13,7.03-6.31,3.24-2.74,6.66-5.27,10.14-7.51,3.41-2.19,7.03-4.05,10.76-5.5,3.5-1.37,6.94-2.06,10.23-2.06,7.2,0,12.81,2.83,17.15,8.64,4.56,6.12,6.88,14.28,6.88,24.28v57.77c0,3.05-.16,5.49-.46,7.25-.13.72-.69,2.37-3.04,5.26-.07.08-.13.17-.19.26-1.23,1.78-2.67,3.19-4.26,4.19-1.91,1.19-2.92,1.32-3.26,1.32-2.65,0-4.73,2.08-4.73,4.73v.52c0,2.65,2.08,4.73,4.73,4.73h48.36c2.32,0,4.2-1.88,4.2-4.2v-1.31c0-1.12-.44-2.19-1.23-2.98l-.26-.26Z"/>
  <path class="cls-1" d="M420.83,60.12h-.52c-1.06,0-2.02.34-2.78.92-.63.4-1.16.97-1.5,1.67-.67,1.33-1.48,2.86-2.4,4.56,0,0-.53.44-2.46.44s-3.79-.31-5.5-.93c-2.18-.78-4.53-1.65-6.99-2.59-2.71-1.03-5.76-1.92-9.07-2.65-3.43-.76-7.52-1.14-12.15-1.14-5.09,0-9.87.95-14.21,2.83-4.37,1.89-8.15,4.57-11.24,7.95-3.03,3.32-5.45,7.22-7.2,11.6-1.76,4.4-2.65,9.19-2.65,14.24,0,5.36,1.08,10.18,3.21,14.33,2.02,3.95,4.7,7.61,7.96,10.86.08.08.15.15.23.22,5.11,4.38,10.71,8.13,16.65,11.14,5.58,2.83,11.2,5.84,16.65,8.91,3.2,1.86,6.3,3.85,9.2,5.92,2.75,1.97,5.12,4.14,7.06,6.46,1.9,2.29,3.4,4.7,4.46,7.18.96,2.27,1.38,4.86,1.24,7.69,0,.07,0,.14,0,.21,0,1.7-.49,3.18-1.51,4.54-1.24,1.66-2.79,3.06-4.59,4.17-1.9,1.17-4.01,2.06-6.29,2.64-2.35.61-4.5.91-6.4.91-8.04,0-15.21-2.42-21.94-7.41-6.69-4.96-12.22-13.49-16.45-25.35-.06-.17-.13-.33-.21-.49-1.29-2.55-3.42-2.83-4.27-2.83h-.26c-3.07,0-4.73,2.3-4.73,4.47v37.9c0,3.66,2.67,4.99,4.47,4.99h.52c1.06,0,2.03-.34,2.78-.92.63-.4,1.16-.97,1.5-1.67.65-1.31,1.46-2.84,2.4-4.55,0,0,.53-.44,2.47-.44s3.79.31,5.5.93c2.19.79,4.57,1.63,7.11,2.5,2.59.9,5.57,1.77,8.85,2.59,3.46.86,7.58,1.3,12.26,1.3,5.11,0,9.92-1.01,14.29-2.99,4.31-1.96,8.1-4.65,11.26-8,3.15-3.35,5.6-7.3,7.28-11.72,1.65-4.38,2.49-9.15,2.49-14.16,0-5.37-1.09-10.16-3.23-14.24-2.01-3.84-4.68-7.43-7.94-10.69-.08-.08-.16-.15-.24-.22-5.11-4.38-10.71-8.13-16.65-11.14-5.59-2.84-11.2-5.84-16.66-8.91-3.19-1.85-6.29-3.84-9.2-5.92-2.74-1.96-5.12-4.13-7.06-6.46-1.92-2.3-3.47-4.77-4.61-7.37-1.05-2.38-1.49-4.91-1.35-7.7.12-1.76.68-3.27,1.73-4.61,1.24-1.58,2.83-2.95,4.71-4.07,2.01-1.19,4.16-2.1,6.39-2.69,2.26-.6,4.36-.91,6.24-.91,8.03,0,15.21,2.42,21.94,7.41,6.69,4.96,12.22,13.48,16.45,25.35.05.15.11.29.18.43,1.31,2.67,3.62,2.88,4.3,2.88h.26c3.07,0,4.73-2.3,4.73-4.46v-37.9c0-3.66-2.67-4.99-4.47-4.99Z"/>
  <path class="cls-1" d="M506.41,174.08c1.11-1.68,1.51-4.55-1.04-7.12-.2-.2-.42-.38-.66-.54-1.69-1.12-4.56-1.51-7.13,1.05-.22.22-.41.46-.57.72-.96,1.51-2.15,2.84-3.52,3.94-.12.1-.24.2-.35.31-1.03,1.03-2.47,1.98-4.28,2.81-1.7.78-3.83,1.18-6.34,1.18-3.02,0-5.15-.69-6.51-2.11-1.69-1.75-2.84-3.88-3.54-6.52-.78-2.97-1.22-6.2-1.3-9.61-.09-3.57-.13-6.93-.13-9.96v-72.91h21.42c2.32,0,4.2-1.88,4.2-4.2v-2.61c0-2.32-1.88-4.2-4.2-4.2h-21.42V4.47c0-2.5-1.96-4.46-4.47-4.46h-2.09c-.83,0-1.64.25-2.33.71-1.18.79-3.21,2.36-6.21,4.82-2.8,2.29-5.96,4.76-9.4,7.34-3.49,2.62-6.85,5.15-10.08,7.59-3.24,2.46-5.65,4.3-7.23,5.52-.14.11-.27.23-.4.35-1.46,1.47-1.77,3.68-.78,5.63l.26.52c.2.39.45.75.76,1.06.87.89,2.02,1.39,3.24,1.39.92-.03,1.86-.29,2.64-.84,2.54-1.44,4.74-2.17,6.54-2.17,1.14,0,3,.58,3.62,1.56.38.59.41,1.18.42,1.86.02.82.04,1.64.06,2.46.02.67.01,1.33.02,2,0,1.25,0,2.51,0,3.76,0,1.38,0,2.76-.01,4.15,0,1.41-.01,2.83-.02,4.24,0,1.35-.01,2.69-.02,4.04,0,1.18,0,2.37,0,3.55,0,.92,0,1.84.01,2.76,0,.56,0,1.12.04,1.68,0,.1.01.2.03.3h-6.25c-2.32,0-4.2,1.88-4.2,4.2v2.61c0,2.32,1.88,4.2,4.2,4.2h6.25v83.1c0,3.39.09,6.98.27,10.65.19,4.08.94,7.89,2.22,11.33,1.42,3.82,3.84,7.01,7.19,9.49,3.43,2.54,8.1,3.83,13.87,3.83,6.63,0,12.33-.99,16.94-2.95,4.44-1.89,8.25-4.11,11.26-6.56,3.42-2.66,6.25-5.75,8.41-9.2.19-.25.36-.5.5-.77.04-.05.08-.11.12-.17Z"/>
  <path class="cls-1" d="M532.91,52.08c4.07,0,7.6-1.4,10.49-4.17,2.9-2.78,4.43-6.4,4.43-10.49s-1.47-7.65-4.37-10.55c-2.9-2.9-6.45-4.37-10.55-4.37s-7.71,1.53-10.48,4.43c-2.77,2.89-4.18,6.42-4.18,10.49s1.43,7.62,4.23,10.42c2.81,2.81,6.32,4.24,10.43,4.24Z"/>
  <path class="cls-1" d="M560.26,183.8c-5.65-.87-10.63-6.3-11.82-11.77-.37-1.69-.56-4.07-.56-7.08v-99.97c0-2.16-1.66-4.47-4.73-4.47h-1.83c-.83,0-1.64.25-2.34.71-1.17.78-3.23,2.34-6.29,4.78-2.93,2.33-6.15,4.81-9.58,7.38-3.37,2.53-6.73,5.09-9.99,7.63-3.13,2.44-5.49,4.27-7.05,5.49-.14.11-.27.22-.39.34-.89.89-1.37,2.04-1.37,3.26,0,.88.26,1.72.74,2.45l.08.16c.96,1.97,2.55,2.51,3.4,2.65,1.12.19,2.26-.08,3.19-.71,2.56-1.46,4.78-2.2,6.59-2.2,2.97,0,3.46,4,3.65,6.23.17,2.01.24,4.02.24,6.04v60.24c0,2.47.03,5.08-.62,7.51-.72,2.68-2.5,4.86-4.22,6.97-1.58,1.95-3.72,3.79-6.38,3.79-2.65,0-4.73,2.08-4.73,4.73v.52c0,2.65,2.08,4.73,4.73,4.73h48.36c1.59,0,3.05-.9,3.76-2.32l.26-.52c.29-.58.44-1.23.44-1.88v-.52c0-2.08-1.51-3.84-3.57-4.16Z"/>
  <path class="cls-1" d="M662.47,140.44c-.09-.03-.21-.07-.35-.11-.38-.18-.78-.32-1.21-.4-.94-.28-2.55-.57-4.11.55-.74.54-1.28,1.31-1.55,2.18v.02c-.14.27-.25.55-.32.84-1.12,4.47-2.73,8.62-4.79,12.34-2.03,3.66-4.56,6.95-7.51,9.75-2.91,2.76-6.29,4.97-10.05,6.58-3.74,1.6-8.08,2.49-12.88,2.65-.03,0-.06,0-.09,0-5.64.31-10.84-.92-15.88-3.75-4.95-2.77-9.09-7.38-12.31-13.65-3.77-7.54-6.48-15.88-8.05-24.78-1.57-8.9-1.95-17.75-1.13-26.31,1.13-9.34,3.67-17.2,7.55-23.38,3.62-5.76,8.01-9.04,13.43-10.04,3.89-.72,7.23-.46,10.2.78,3.13,1.31,5.91,3.28,8.25,5.84,2.48,2.71,4.56,5.82,6.19,9.22,1.67,3.5,2.92,7.04,3.7,10.48.74,3.47,2.67,6.31,5.56,8.19,2.82,1.84,6.18,2.46,9.74,1.81.5-.06,1.12-.21,2.2-.5,1.51-.41,2.99-1.2,4.4-2.35,1.37-1.12,2.55-2.59,3.5-4.38,1.19-2.23,1.4-4.93.63-8.01-2.65-10.79-8.03-19.18-15.99-24.94-7.86-5.69-17.45-8.57-28.5-8.57-7.56,0-14.84,1.82-21.65,5.41-6.69,3.53-12.58,8.38-17.49,14.4-4.86,5.97-8.76,13.06-11.59,21.08-2.82,8.01-4.26,16.67-4.26,25.75s1.43,17.71,4.26,25.64c2.83,7.94,6.72,14.98,11.58,20.94,4.91,6.03,10.8,10.87,17.49,14.4,6.8,3.59,14.09,5.41,21.65,5.41,6.97,0,13.5-1.4,19.39-4.15,5.76-2.69,10.94-6.27,15.41-10.65,4.43-4.33,8.21-9.38,11.25-14.99,2.99-5.53,5.16-11.37,6.46-17.36.28-.9.71-2.63-.5-4.29-.63-.87-1.58-1.46-2.63-1.66Z"/>
  <path class="cls-1" d="M784.96,167.78c-.42-1.24-1.3-2.26-2.51-2.93-1.91-1.34-4.73-1.46-7.05.87-.32.32-.59.69-.79,1.09-1.08,2.15-1.93,3.29-2.47,3.87-.8.86-1.8,1.69-2.98,2.46-.79.51-1.71.76-2.81.76-1.71,0-3-.31-3.44-.84-.23-.28-.99-1.45-.99-4.89v-63.26c0-6.94-.7-13.19-2.09-18.57-1.47-5.68-3.99-10.54-7.48-14.43-3.52-3.92-8.25-6.91-14.07-8.89-5.56-1.88-12.48-2.84-20.56-2.84-5.06,0-10.01.67-14.73,1.99-4.76,1.33-9.07,3.28-12.83,5.78-3.84,2.56-6.96,5.59-9.25,8.98-2.47,3.66-3.73,7.7-3.73,12.03,0,3.22.82,6.2,2.44,8.85,1.97,3.24,5.19,5.03,9.08,5.03,4.87,0,7.64-2.1,9.11-3.87,1.67-2,2.95-4.48,3.81-7.38.72-2.44,1.44-5.04,2.13-7.72.61-2.38,1.46-4.63,2.54-6.69.89-1.72,2.19-3.14,3.96-4.32,1.64-1.09,4.15-1.65,7.47-1.65,6.67,0,11.53,1.44,14.44,4.29,2.89,2.82,4.35,7.79,4.35,14.77v19.11c-2.02.32-4.32.72-6.88,1.19-4.39.81-9.16,1.99-14.19,3.51-5.01,1.52-10.17,3.42-15.34,5.65-5.37,2.32-10.3,5.23-14.66,8.66-4.5,3.54-8.19,7.77-10.97,12.56-2.89,4.98-4.36,10.8-4.36,17.27,0,8.52,1.8,15.4,5.33,20.44,2.5,3.57,5.25,6.93,8.89,9.38,3.55,2.39,7.53,3.73,11.7,4.57,4.69.94,9.44.83,14.13-.02,2.3-.42,4.6-.97,6.81-1.74,2.2-.77,4.3-1.78,6.41-2.77.92-.44,1.85-.87,2.78-1.29,4.22-1.82,8.12-4.05,11.64-6.67.69,2.5,1.86,4.75,3.47,6.67,1.74,2.09,4,3.72,6.71,4.85,2.6,1.08,5.78,1.63,9.46,1.63,3.95,0,7.48-.76,10.5-2.27,2.87-1.43,5.41-3.3,7.57-5.56,2.04-2.13,3.81-4.45,5.27-6.88,1.33-2.22,2.54-4.31,3.58-6.23,1.16-2,.86-3.7.58-4.55ZM705.4,173.67c-3.25-2.14-5.84-4.87-7.67-8.11-1.87-3.29-3.01-7.07-3.39-11.24-.37-4.09.32-8.01,2.13-12,1.8-3.98,4.91-7.71,9.22-11.11,4.39-3.45,10.54-6.18,18.29-8.11,3.32-.83,6.51-1.46,9.49-1.87,1.08-.15,2.1-.29,3.06-.43v36.65c0,1.65-.04,3.43-.13,5.29-.06,1.39-.11,2.82-.12,4.27-2.46,2.49-5.46,4.71-8.94,6.62-3.79,2.08-7.64,3.14-11.44,3.14s-7.34-1.01-10.5-3.1Z"/>
  <path class="cls-1" d="M841.16,183.8c-1.61-.25-3.06-.85-4.44-1.86-1.58-1.14-3.04-2.53-4.35-4.11-2.12-3.02-2.82-4.82-3.03-5.8-.37-1.69-.56-4.07-.56-7.08V4.47c0-2.16-1.66-4.47-4.73-4.47h-1.31c-1.12,0-2.2.4-3.1,1.13-1.2.83-3.19,2.34-6.05,4.62-2.95,2.34-6.18,4.83-9.58,7.38-3.37,2.53-6.73,5.09-9.99,7.63-3.14,2.44-5.49,4.27-7.05,5.49-.14.11-.27.22-.39.34-.89.89-1.37,2.04-1.37,3.26,0,.88.26,1.72.74,2.45l.1.19c.2.39.45.75.76,1.06.87.89,2.02,1.39,3.24,1.39.92-.03,1.86-.29,2.64-.84,2.34-1.66,6.12-3.59,8.59-1.1,1.23,1.24,1.52,3.25,1.66,4.91.17,2.08.19,4.19.19,6.28v120.76c0,3.05-.16,5.49-.46,7.25-.13.76-.68,2.46-2.85,5.35-1.44,1.88-2.99,3.36-4.58,4.4-1.28.84-2.43,1.28-3.32,1.28-2.65,0-4.73,2.08-4.73,4.73v.52c0,2.65,2.08,4.73,4.73,4.73h48.36c1.59,0,3.05-.9,3.76-2.32l.26-.52c.29-.58.44-1.23.44-1.88v-.52c0-2.08-1.51-3.84-3.57-4.16Z"/>
  <path class="cls-1" d="M485.49,243.2c-4.83-18.34-20.91-32.42-40.41-31.72-4.42.16-8.83.89-13.06,2.22-4.25,1.34-8.24,3.32-11.58,6.03-13.52,10.95-12.64,24.04-12.6,24.36,0,0,.01-.01.04-.03.04.83.12,1.67.28,2.52.68,3.74,2.49,6.51,5.39,8.22,2.76,1.63,5.72,2.18,8.79,1.63,3.66-.66,6.52-2.44,8.5-5.29l.09-.14c1.51-2.47,1.84-5.23.98-8-.88-2.81-3.36-5.29-3.42-8.34-.07-3.47,3.22-5.83,6.27-6.59,1.95-.49,3.98-.48,5.98-.31,6.99.61,13.94,3.28,19.19,8.01,7.74,6.54,11.1,17.2,9.29,27.14-1.41,7.87-5.65,15.57-11.55,20.95-6.94,6.02-16.28,9.09-25.37,9.98-30.2,2.91-57.35-14.43-80.21-32.29-8.92-6.86-17.54-14.14-26.4-21.1,1.89-5.82,3.08-11.86,3.54-17.96.4-5.58.33-13.46.49-19.14.3-18.38.32-37.17,0-55.58h-.16c.11-1.38.18-2.78.18-4.19v-70.01c0-1.87,1.78-3.18,3.24-4.01,2.37-1.34,5.02-1.95,7.73-1.96,1.76-.13,3.05-1.51,3.05-3.32v-.52c0-1.9-1.43-3.33-3.32-3.33h-43.66c-1.9,0-3.33,1.43-3.33,3.33,0,1.53.74,2.78,2.16,3.39.94.41,1.97.44,2.98.52,2.87.24,5.67,1.87,7.36,4.2.89,1.23,1.37,2.69,1.35,4.21-.08,6.08,0,6.83,0,6.83v60.67c0,17.27-7.93,26.77-15.26,31.86-7.24,5.03-16.81,4.86-24-.23-7.42-5.25-15.6-14.85-15.6-31.63v-60.67h.01v-9.34c0-1.87,1.78-3.18,3.24-4.01,2.37-1.34,5.02-1.95,7.73-1.96,1.76-.13,3.05-1.51,3.05-3.32v-.52c0-1.9-1.43-3.33-3.32-3.33h-43.66c-1.9,0-3.33,1.43-3.33,3.33,0,1.53.74,2.78,2.16,3.39.94.41,1.97.44,2.98.52,2.87.24,5.67,1.87,7.36,4.2.86,1.19,1.33,2.6,1.34,4.06v.96c-.05,4.02-.02,5.4,0,5.83v60.07c0,27.59,22.57,50.8,50.17,50.63,7.72-.05,15.11-1.81,21.97-5.25,2.1-1.05,4.1-2.23,5.99-3.53.13,6.35.24,12.63.31,18.7.06,4.19.23,11.81.22,15.96-.02,2.75-.23,5.48-.64,8.19-11.41-7.65-24.34-14.26-38.32-14.72-10.81-.42-22.24,1.71-30.82,8.73-10.24,8.26-15.9,22.78-11.41,35.69,5.92,16.83,23.05,27.93,40.62,28.91,14.81,1.35,29.47-5.18,39.6-15.98,5.74-5.78,10.44-12.52,13.99-19.82,12.61,10.4,25.3,21.63,38.7,31.33,22.02,16.19,48.65,28.79,76.75,25.64,10.77-1.26,21.23-4.65,29.97-11.43,15.18-12.24,23.42-33.45,18.36-52.65ZM289.02,262.26c-14.75,12.77-41.53,8.16-49.82-9.93-3.48-8.06.29-17.68,6.54-23.23,5.52-5.06,14.2-6.94,21.9-6.9,13.89.09,26.48,7.26,37.9,15.53-3.23,9.44-8.88,18.01-16.52,24.54Z"/>
  <path class="cls-1" d="M992.32,175.36c-1.37,0-2.5-1.06-2.59-2.42-5.14-74.44-8.23-77.53-82.67-82.67-1.36-.09-2.42-1.23-2.42-2.59s1.06-2.5,2.42-2.59c74.44-5.14,77.53-8.23,82.67-82.67.09-1.36,1.23-2.42,2.59-2.42s2.5,1.06,2.59,2.42c5.14,74.44,8.23,77.53,82.67,82.67,1.36.09,2.42,1.23,2.42,2.59s-1.06,2.5-2.42,2.59c-74.44,5.14-77.53,8.23-82.67,82.67-.09,1.36-1.23,2.42-2.59,2.42Z"/>
</svg>