<?xml version="1.0" encoding="UTF-8"?>
<svg id="Layer_1" xmlns="http://www.w3.org/2000/svg" viewBox="0 0 1080 1080">
  <defs>
    <style>
      .cls-1 {
        fill: #bf6066;
      }
    </style>
  </defs>
  <path class="cls-1" d="M622.35,76.73c3.13.57,6,0,8.6-1.73,2.59-1.72,4.18-4.14,4.74-7.28.57-3.13-.06-6.01-1.87-8.62-1.81-2.61-4.29-4.2-7.42-4.77-3.14-.57-5.96.06-8.48,1.89-2.52,1.83-4.06,4.31-4.63,7.44-.57,3.14.02,5.96,1.76,8.46,1.73,2.5,4.17,4.04,7.31,4.61Z"/>
  <g>
    <path class="cls-1" d="M329.05,564.71c1.53,0,2.77-1.24,2.77-2.77,0-10.57,8.6-19.17,19.17-19.17,1.53,0,2.77-1.24,2.77-2.77s-1.24-2.77-2.77-2.77c-10.57,0-19.17-8.6-19.17-19.17,0-1.53-1.24-2.77-2.77-2.77s-2.77,1.24-2.77,2.77c0,10.57-8.6,19.17-19.17,19.17-1.53,0-2.77,1.24-2.77,2.77s1.24,2.77,2.77,2.77c10.57,0,19.17,8.6,19.17,19.17,0,1.53,1.24,2.77,2.77,2.77Z"/>
    <path class="cls-1" d="M384.08,386.3c15.16-.97,30.93,5.65,44.84,11.5l.45.19c35.52,14.93,63.36,34.85,82.76,59.23,4.73,5.95,10.1,12.69,12.61,19.7.35,1,1.11,1.81,2.09,2.23.97.42,2.08.43,3.03.02.79-.33,1.43-.91,1.85-1.66.13-.2.23-.42.3-.66l.04-.15s.03-.11.05-.17c.2-.74.71-2.78,1.14-5.94.39-2.91.65-7.32.76-9.65l.11-2.41s0-.08,0-.12c1.37-44.6-14.46-107.8-46.54-137.21-12.85-11.92-34.3-19.42-51.05-7.7-12.72,8.96-18.34,24.45-20.82,36.86-4.15-.98-8.23-1.73-12.16-2.24-42.66-5.48-76.11,17.27-85.21,57.94-5.82,25.17-2.43,50.79,10.09,76.17,10.27,20.82,26.49,40.74,47.02,57.79-20.53,17.04-36.75,36.96-47.02,57.79-12.51,25.38-15.91,51-10.09,76.15,9.11,40.69,42.56,63.45,85.22,57.96,3.94-.51,8.02-1.26,12.16-2.24,2.48,12.41,8.1,27.9,20.83,36.87,5.9,4.13,12.39,5.87,18.88,5.87,11.91,0,23.84-5.86,32.15-13.57,32.08-29.4,47.91-92.61,46.55-137.21,0-.04,0-.08,0-.12l-.11-2.39c-.12-2.36-.37-6.76-.76-9.68-.43-3.17-.94-5.22-1.14-5.95h0c-.02-.06-.03-.12-.04-.16,0-.01-.04-.15-.05-.16-.07-.24-.18-.46-.3-.67-.41-.74-1.05-1.31-1.82-1.64-.97-.41-2.08-.41-3.05.01s-1.73,1.24-2.08,2.23c-2.51,7.01-7.87,13.75-12.61,19.7-19.4,24.37-47.24,44.3-82.76,59.22l-.44.18c-13.91,5.85-29.67,12.48-44.86,11.51-12.09-.77-21.77-6.48-27.27-16.06-6.24-11.1-8.78-25.65-6.98-39.85,3.78-24.82,21.57-51.24,52.88-78.55,15.86,9.56,29.42,15.58,42.57,18.93,27.68,6.59,57.31-1.56,73.79-20.33,2.9-3.48,6.5-9,7.21-15.53.01-.06.02-.13.02-.19,0-.02,0-.04,0-.07,0-.11.02-.24.03-.46v-.15c.03-.26.05-.52.06-.76,0-.18,0-.35,0-.53v-.16s0-.16,0-.16c0-.18,0-.35,0-.52,0-.26-.03-.52-.05-.77l-.02-.28c0-.11-.01-.22-.02-.33,0-.04,0-.08-.01-.12,0-.04,0-.08-.02-.12-.73-6.57-4.32-12.07-7.26-15.59-16.43-18.72-46.07-26.86-73.79-20.26-13.11,3.33-26.67,9.36-42.52,18.92-31.31-27.31-49.1-53.73-52.87-78.48-1.81-14.27.73-28.82,6.95-39.9,5.51-9.59,15.19-15.3,27.28-16.08ZM466.34,375.33c-8.59-6.72-17.52-12.29-26.55-16.58,2.9-12.91,8.29-27.09,17.98-26.29,10.44.63,19.11,9.29,24.69,15.7,18.82,22.64,33.66,57.93,40.69,96.78.1.62.2,1.23.3,1.84-12.16-26.81-32.38-52.12-57.12-71.45ZM523.17,635.02c-7.04,38.89-21.88,74.19-40.66,96.78-5.62,6.46-14.3,15.12-24.79,15.76-9.61.77-15.03-13.39-17.93-26.3,9.03-4.29,17.96-9.86,26.55-16.58,24.73-19.33,44.96-44.64,57.12-71.45-.1.6-.19,1.2-.29,1.8ZM452.54,525.93c14.03-5.34,30.08-5.73,44.02-1.08,5.62,1.92,13.23,5.37,17.61,10.92,1.96,2.49,1.96,5.97,0,8.46-4.37,5.55-11.99,9.01-17.59,10.92-13.96,4.66-30.01,4.27-44.04-1.08-8-3.04-16.38-7.66-25.54-14.07,9.16-6.41,17.55-11.02,25.54-14.07Z"/>
    <path class="cls-1" d="M753.72,518.06c0-1.53-1.24-2.77-2.77-2.77s-2.77,1.24-2.77,2.77c0,10.57-8.6,19.17-19.17,19.17-1.53,0-2.77,1.24-2.77,2.77s1.24,2.77,2.77,2.77c10.57,0,19.17,8.6,19.17,19.17,0,1.53,1.24,2.77,2.77,2.77s2.77-1.24,2.77-2.77c0-10.57,8.6-19.17,19.17-19.17,1.53,0,2.77-1.24,2.77-2.77s-1.24-2.77-2.77-2.77c-10.57,0-19.17-8.6-19.17-19.17Z"/>
    <path class="cls-1" d="M695.92,693.7c-15.19.98-30.95-5.66-44.86-11.51l-.44-.18c-35.52-14.93-63.36-34.85-82.76-59.22-4.73-5.95-10.1-12.69-12.61-19.7-.35-1-1.11-1.81-2.09-2.23-.97-.42-2.08-.43-3.04-.01-.78.33-1.42.91-1.83,1.65-.13.2-.23.42-.3.66l-.03.11c-.02.05-.04.13-.06.21-.2.73-.71,2.77-1.14,5.95-.39,2.91-.65,7.32-.77,9.69l-.11,2.36c0,.06,0,.12,0,.18-1.36,44.6,14.47,107.78,46.54,137.18,8.32,7.72,20.24,13.58,32.15,13.58,6.49,0,12.99-1.74,18.89-5.87,12.72-8.96,18.34-24.45,20.82-36.86,4.15.98,8.22,1.73,12.16,2.24,4.22.54,8.34.81,12.36.81,36.67,0,64.65-22.1,72.85-58.75,5.82-25.17,2.43-50.79-10.09-76.17-10.27-20.82-26.49-40.74-47.02-57.79,20.53-17.04,36.75-36.97,47.02-57.79,12.51-25.38,15.91-51,10.09-76.15-9.11-40.69-42.54-63.45-85.22-57.96-3.93.5-8.01,1.26-12.16,2.24-2.48-12.41-8.1-27.9-20.83-36.86-16.74-11.71-38.19-4.21-51.03,7.7-32.07,29.4-47.91,92.58-46.55,137.18,0,.06,0,.12,0,.18l.11,2.37c.12,2.36.37,6.76.76,9.68.43,3.17.94,5.22,1.14,5.95h0c.02.06.03.12.04.16,0,.01.04.15.05.16.07.24.17.46.3.67.42.74,1.05,1.32,1.82,1.64.97.41,2.08.41,3.05-.01s1.73-1.24,2.08-2.23c2.51-7,7.87-13.75,12.61-19.7,19.4-24.37,47.24-44.3,82.76-59.23l.45-.19c13.91-5.85,29.69-12.48,44.84-11.5,12.09.77,21.77,6.48,27.27,16.06,6.24,11.1,8.78,25.65,6.98,39.85-3.78,24.82-21.57,51.24-52.88,78.55-15.86-9.56-29.42-15.58-42.57-18.93-27.68-6.59-57.31,1.56-73.79,20.33-2.89,3.47-6.49,8.98-7.21,15.54,0,.05-.01.1-.02.15,0,.03,0,.06,0,.09-.01.11-.02.24-.03.46v.16c-.03.25-.05.5-.06.77,0,.17,0,.33,0,.5v.17s0,.17,0,.17c0,.17,0,.33,0,.52,0,.25.03.5.05.75l.02.29c0,.11.01.22.02.33,0,.06,0,.11.01.16,0,.03,0,.06.01.09.73,6.56,4.32,12.06,7.26,15.58,16.43,18.71,46.07,26.86,73.79,20.27,13.11-3.34,26.67-9.36,42.52-18.92,31.31,27.31,49.1,53.73,52.87,78.48,1.81,14.27-.73,28.82-6.95,39.9-5.51,9.59-15.19,15.3-27.28,16.08ZM613.66,704.67c8.59,6.72,17.52,12.29,26.55,16.58-2.9,12.91-8.3,27.07-17.98,26.29-10.44-.63-19.11-9.29-24.69-15.7-18.82-22.64-33.66-57.93-40.69-96.78-.1-.62-.2-1.23-.3-1.84,12.16,26.81,32.38,52.12,57.12,71.45ZM556.83,444.98c7.04-38.89,21.88-74.18,40.66-96.78,5.62-6.46,14.29-15.12,24.79-15.76.26-.02.51-.03.76-.03,9.17,0,14.35,13.76,17.17,26.33-9.03,4.29-17.96,9.86-26.55,16.58-24.73,19.33-44.96,44.65-57.12,71.45.1-.6.19-1.2.29-1.8ZM653,540c-9.16,6.41-17.55,11.03-25.54,14.07-14.03,5.35-30.08,5.74-44.02,1.08-5.62-1.92-13.23-5.37-17.61-10.92-1.96-2.49-1.96-5.97,0-8.46,4.38-5.56,11.99-9.01,17.59-10.92,6.47-2.16,13.38-3.24,20.34-3.24,8.06,0,16.17,1.44,23.7,4.31,8,3.04,16.38,7.66,25.54,14.07Z"/>
    <path class="cls-1" d="M305.04,849.8c2.02.37,3.9,1,5.59,1.88,1.78.91,3.39,1.92,4.79,2.98,1.42,1.08,2.5,2,3.2,2.74,1.23,1.28,3.12,1.32,4.42.08l.26-.25c1.26-1.22,1.29-3.16.08-4.41l-20.53-21.38c-1.23-1.28-3.12-1.32-4.41-.09l-.25.24c-.62.59-.97,1.37-.99,2.19-.02.82.3,1.62.89,2.23.91.95,1.49,1.83,1.71,2.6.19.66.2,1.2.05,1.63-.2.55-.53,1.02-1.01,1.43-.57.49-1.16.83-1.87,1.05l-54.83,18.48,21.77-43.87c.96-1.98,1.81-3.49,2.54-4.47.28-.38,1.04-1.14,3.04-1.92,1.08-.42,2.13-.63,3.1-.61.6.01,1.02.19,1.4.58l.12.13c.51.54,1.21.85,1.94.86.74.06,1.45-.26,1.98-.77l.26-.25c.31-.3.55-.67.69-1.08l.13-.37c.1-.28.15-.57.16-.86v-.25c.02-.74-.26-1.45-.77-1.98l-22.75-23.68c-1.06-1.1-2.37-1.12-3.24-.78-.47.19-.88.53-1.19.94-.3.29-.53.64-.68,1.04-.46,1.25-.2,2.56.71,3.51.15.15.67.81,1.26,2.89.49,1.73.79,3.61.9,5.44.03,3.28-.27,4.98-.52,5.82-.4,1.35-1.1,3.05-2.06,5.02l-4.32,8.56-36.85,12.43,21.67-44.01c1.17-2.42,2.02-3.68,2.53-4.31.38-.47,1.23-1.19,3.17-1.95,1.12-.43,2.17-.66,3.12-.67.51-.02.9.15,1.26.52l.14.15c.99,1.02,2.82,1.35,4.28-.04.31-.3.55-.67.7-1.08l.13-.37c.2-.57.21-1.18.03-1.75l-.12-.38c-.13-.41-.35-.78-.64-1.09l-22.62-23.55c-1.4-1.46-3.25-1.2-4.28-.22-.31.3-.55.66-.69,1.07l-.14.38c-.44,1.24-.17,2.54.73,3.48.14.15.65.79,1.19,2.78.45,1.69.74,3.53.85,5.49.02,3.24-.27,4.92-.52,5.76-.4,1.35-1.1,3.05-2.07,5.04l-30.75,62.02c-.52,1.05-.32,2.31.48,3.15l2.09,2.18c.74.77,1.86,1.05,2.88.71l48.9-16.47-21.9,44.23c-.52,1.05-.32,2.31.48,3.15l1.97,2.05c.53.55,1.26.85,2,.85.3,0,.6-.05.89-.15,12.38-4.19,24.66-8.31,36.83-12.37,12.11-4.04,24.32-8.15,36.65-12.31,2.1-.36,4.13-.36,6.03-.01Z"/>
    <path class="cls-1" d="M351.57,941.86c-.29.08-.57.21-.82.37-1.36.91-2.26,1.3-2.77,1.46-.77.25-1.65.4-2.61.45-.65.03-1.3-.13-1.96-.5-1.03-.59-1.7-1.22-1.79-1.71-.06-.32-.07-1.28,1.06-3.28l21.21-37.35c2.33-4.09,4-8.01,4.98-11.64,1.04-3.84,1.18-7.53.42-10.99-.76-3.48-2.54-6.81-5.3-9.92-2.65-2.97-6.4-5.85-11.17-8.55-2.99-1.7-6.13-2.96-9.34-3.76-3.25-.8-6.44-1.1-9.49-.89-3.11.22-5.95.96-8.45,2.19-2.67,1.32-4.75,3.28-6.19,5.82-1.07,1.89-1.58,3.91-1.52,6,.07,2.54,1.36,4.65,3.63,5.94,2.85,1.61,5.16,1.31,6.6.77,1.64-.62,3.22-1.65,4.69-3.06,1.23-1.18,2.52-2.48,3.85-3.84,1.16-1.2,2.42-2.25,3.76-3.11,1.12-.73,2.37-1.13,3.82-1.24,1.37-.1,3.04.42,5.01,1.54,3.96,2.25,6.36,4.75,7.13,7.43.77,2.66-.04,6.1-2.39,10.24l-6.45,11.35c-1.32-.49-2.83-1.04-4.53-1.63-2.86-1-6.07-1.9-9.54-2.68-3.46-.78-7.14-1.39-10.94-1.81-3.94-.43-7.83-.37-11.53.2-3.83.58-7.42,1.84-10.66,3.73-3.37,1.97-6.17,4.9-8.33,8.7-2.85,5.02-4.09,9.66-3.7,13.81.39,4.13,1.89,7.84,4.48,11.04,1.19,1.46,2.61,2.77,4.21,3.91,1.51,1.08,3.17,2.06,4.89,2.89,4.09,2.03,8.66,3.34,13.57,3.88,3.14.34,6.22.33,9.21-.05-.45,1.74-.53,3.48-.22,5.19.33,1.81,1.11,3.52,2.32,5.08,1.16,1.5,2.85,2.88,5.01,4.11,2.32,1.32,4.65,2.05,6.93,2.17.34.02.68.03,1.02.03,1.81,0,3.58-.26,5.28-.77,1.91-.58,3.72-1.35,5.4-2.29,1.55-.88,2.98-1.72,4.14-2.44,1.3-.73,1.75-1.75,1.89-2.47.1-.52.15-1.48-.49-2.52-.66-1.4-2.24-2.39-4.35-1.81ZM307.47,923.05c-1.23-2.4-1.83-4.82-1.83-7.4,0-2.58.6-5.2,1.78-7.81,1.15-2.55,2.89-4.65,5.3-6.4,2.41-1.75,5.5-2.92,9.21-3.48,1.05-.16,2.16-.24,3.33-.24,3.03,0,6.45.53,10.23,1.58,2.24.62,4.34,1.32,6.24,2.08.72.29,1.4.56,2.05.81l-12.34,21.73c-.57,1-1.19,2.03-1.85,3.08-.51.8-1.02,1.64-1.52,2.51-2.3.65-4.87.96-7.55.92-2.95-.04-5.59-.71-7.85-1.99-2.32-1.32-4.02-3.08-5.19-5.38Z"/>
    <path class="cls-1" d="M451.65,912.87c-.2-2.8-1.35-5.7-3.42-8.63-2.12-3.01-5.24-5.21-9.28-6.56-5.52-1.84-11.17-2.1-16.81-.77-2.72.64-5.3,1.61-7.73,2.89l3.23-9.7c.43-1.35-.14-3.12-2.04-3.75l-1.18-.39c-.52-.17-1.08-.19-1.61-.04-.92.25-2.58.82-5.07,1.73-2.41.88-5.02,1.78-7.76,2.7-2.83.94-5.51,1.87-8.07,2.77l-5.72,2.02c-.11.04-.21.08-.32.14-.74.37-1.29,1-1.54,1.77-.18.55-.19,1.12-.04,1.67l.02.13c.19,1.44,1.07,2.1,1.58,2.37.66.35,1.43.43,2.15.22,1.98-.39,3.58-.39,4.76,0,.92.31,1.24.73,1.28,1.73.08,1.81-.38,4.2-1.35,7.12l-13.74,41.26c-.66,1.98-1.28,3.52-1.86,4.59-.24.44-.96,1.4-3.12,2.77-.06.04-.12.08-.17.12-1.2.9-2.43,1.52-3.64,1.84-1.02.27-1.88.31-2.46.11-.82-.27-1.67-.22-2.4.15s-1.29,1.02-1.55,1.83l-.1.31c-.28.81-.23,1.66.14,2.4s1.02,1.29,1.83,1.56l31.15,10.37c.29.1.58.14.87.14.72,0,1.43-.28,1.96-.81l.28-.28c.3-.3.53-.67.67-1.07l.11-.34c.44-1.3-.14-2.73-1.36-3.35-1-.51-1.81-1.22-2.5-2.18-.77-1.08-1.42-2.29-1.93-3.6-.72-2.41-.79-3.73-.71-4.42.13-1.18.52-2.76,1.16-4.7l14.91-44.76c1.23-1.36,2.71-2.73,4.41-4.05,1.72-1.34,3.7-2.42,5.89-3.22.95-.19,2.32-.49,4.1-.9,1.4-.32,2.78-.24,4.21.23.87.29,1.57.69,2.11,1.18,1.04.98,1.67,2,1.94,3.1.36,1.51.63,3,.78,4.42.19,1.72.49,3.27.89,4.6.43,1.44,1.53,3.34,4.33,4.27,4.16,1.38,7.44,1,9.77-1.16,2.15-1.99,3.16-4.69,2.93-7.82Z"/>
    <path class="cls-1" d="M540.66,894.72l.4-.31c.59-.46.96-1.13,1.05-1.87.14-1.19-.27-2.03-.64-2.53-.12-.16-.26-.31-.41-.44-.91-.78-2.3-2.14-4.13-4.03-1.96-2.02-4.02-4.07-6.12-6.09-2.08-2-4.04-3.94-5.84-5.77-1.91-1.94-3.13-3.13-3.84-3.74-.41-.36-.92-.58-1.47-.65l-1.22-.15c-1.14-.14-1.92.25-2.38.61-.58.45-1,1.2-1.09,1.93l-5.96,48.3c-2.21-2.6-4.6-4.76-7.15-6.45-4.31-2.86-8.96-4.62-13.84-5.22-4.5-.55-9-.12-13.4,1.29-4.36,1.39-8.45,3.69-12.18,6.82-3.69,3.11-6.92,7.08-9.59,11.81-2.65,4.7-4.51,10.17-5.52,16.26-1.01,4.17-1.35,9.01-1.02,14.37.33,5.41,1.42,10.7,3.23,15.72,1.84,5.11,4.45,9.6,7.76,13.32,3.53,3.98,8.04,6.34,13.41,7,3.53.44,7.17.11,10.8-.96,3.5-1.03,6.88-2.55,10.05-4.51,3.1-1.92,6.05-4.14,8.77-6.6.35-.31.69-.63,1.03-.95l-1.7,13.78c-.11.85.11,1.67.61,2.32.5.65,1.25,1.07,2.11,1.17l.9.11c.12.01.24.02.36.02.66,0,1.32-.21,1.89-.62.77-.49,2.21-1.36,4.29-2.57,2.17-1.27,4.54-2.65,7.1-4.12,2.58-1.48,5.04-2.91,7.37-4.31l5.21-3.11c.09-.06.18-.12.27-.18.71-.54,1.16-1.31,1.27-2.14.1-.74-.1-1.5-.57-2.09l-.12-.16c-.52-.95-1.32-1.31-1.78-1.45-.73-.21-1.49-.13-2.15.22-1.86.77-3.42,1.09-4.65.93-.97-.12-1.36-.47-1.6-1.45-.43-1.74-.46-4.18-.09-7.24l8.69-70.46c.38-3.05,1-5.41,1.84-7,.47-.89.93-1.13,1.9-1.01,1.22.15,2.66.83,4.27,2.02.46.42,1.03.69,1.65.76.79.1,1.57-.13,2.22-.63ZM472.42,980.09c-2.12-1.6-3.92-3.8-5.36-6.54-1.49-2.84-2.56-6.3-3.17-10.29-.62-4.03-.62-8.62,0-13.64.65-5.26,1.84-10.08,3.55-14.31,1.69-4.21,3.77-7.81,6.16-10.71,2.32-2.81,4.95-4.94,7.81-6.33,2.18-1.06,4.35-1.58,6.58-1.58.6,0,1.21.04,1.83.11,2.91.36,5.88,1.63,8.82,3.77,3.01,2.2,6.05,5.62,9.03,10.17l-4.75,38.47c-4.12,5.23-8.27,8.96-12.33,11.09-4.05,2.14-7.9,3-11.42,2.56-2.47-.3-4.68-1.21-6.76-2.78Z"/>
    <path class="cls-1" d="M598.87,910.92h0c-3.13-1.94-6.86-2.75-11.1-2.4-5.8.47-11.1,2.45-15.76,5.88-2.25,1.66-4.25,3.56-5.98,5.69l-.83-10.2c-.13-1.4-1.35-2.79-3.35-2.65l-1.24.1c-.54.04-1.06.25-1.49.59-.76.6-2.06,1.77-3.99,3.57-1.88,1.76-3.93,3.62-6.08,5.52-2.23,1.97-4.34,3.88-6.34,5.71l-4.47,4.1c-.08.07-.15.15-.22.23-.54.63-.8,1.41-.74,2.21.05.58.26,1.13.62,1.59l.07.11c.74,1.25,1.82,1.51,2.39,1.56.74.07,1.48-.17,2.06-.64,1.67-1.14,3.14-1.77,4.38-1.87.96-.07,1.42.19,1.85,1.09.78,1.63,1.3,4.01,1.55,7.07l3.53,43.34c.17,2.07.2,3.73.09,4.94-.05.51-.34,1.67-1.79,3.78-.04.06-.08.12-.11.18-.75,1.3-1.64,2.35-2.63,3.12-.84.65-1.6,1.02-2.2,1.07-.86.06-1.62.44-2.16,1.07-.54.63-.79,1.44-.72,2.31l.03.35c.14,1.68,1.44,2.87,3.09,2.87.09,0,.18,0,.27-.01l32.72-2.66c1.04-.09,1.95-.75,2.34-1.72l.15-.37c.16-.4.23-.84.19-1.27l-.03-.35c-.11-1.36-1.2-2.43-2.56-2.53-1.12-.08-2.15-.42-3.15-1.03-1.13-.69-2.21-1.55-3.19-2.56-1.61-1.94-2.19-3.13-2.39-3.79-.34-1.13-.6-2.73-.77-4.78l-3.83-47.03c.59-1.73,1.42-3.56,2.47-5.45,1.06-1.92,2.46-3.69,4.16-5.27.79-.55,1.93-1.36,3.42-2.44,1.16-.84,2.46-1.31,3.96-1.43.9-.07,1.73.02,2.41.26,1.34.5,2.32,1.18,3,2.09.93,1.26,1.76,2.52,2.45,3.76.84,1.51,1.73,2.81,2.62,3.88.96,1.15,2.73,2.47,5.66,2.23,4.37-.36,7.24-2,8.54-4.9,1.19-2.67,1.06-5.55-.37-8.34-1.28-2.49-3.48-4.71-6.53-6.6Z"/>
    <path class="cls-1" d="M693.6,911.91s0,0,0,0c-3.75-4.46-8.2-8.11-13.22-10.85-5.02-2.74-10.54-4.5-16.41-5.23-5.9-.74-11.94-.23-17.96,1.49-6.02,1.72-11.42,4.49-16.04,8.22-4.6,3.73-8.36,8.14-11.17,13.11-2.82,4.98-4.66,10.43-5.49,16.19-.83,5.81-.4,11.77,1.3,17.7,1.66,5.81,4.42,11.07,8.21,15.61,3.77,4.53,8.22,8.19,13.24,10.87,5,2.68,10.51,4.41,16.38,5.14,1.75.22,3.52.33,5.3.33,4.19,0,8.43-.61,12.66-1.81,6.02-1.72,11.41-4.49,16.04-8.23,4.59-3.72,8.36-8.1,11.19-13.01,2.84-4.93,4.69-10.39,5.5-16.23.81-5.87.38-11.79-1.28-17.6-1.69-5.92-4.47-11.21-8.24-15.71ZM638.48,960.37c-3.72-3.69-6.73-7.73-8.94-12.02-2.2-4.27-3.64-8.58-4.27-12.8-.62-4.14-.42-8.17.62-11.98,1.01-3.72,2.84-6.98,5.45-9.7,1.41-1.47,2.93-2.67,4.53-3.55,1.68-.92,3.51-1.67,5.46-2.23,2.45-.7,5.01-1.05,7.68-1.05,3.31,0,6.79.54,10.4,1.61,6.61,1.97,12.78,5.68,18.37,11.04,3.82,3.65,6.87,7.67,9.07,11.93,2.2,4.28,3.64,8.58,4.27,12.8.62,4.15.44,8.19-.54,11.99h0c-.97,3.74-2.76,6.9-5.53,9.7-2.7,2.86-5.95,4.8-9.94,5.94-5.59,1.6-11.74,1.4-18.26-.6-6.63-2.02-12.82-5.77-18.37-11.1Z"/>
    <path class="cls-1" d="M786.99,881.36c-1.71-3.93-4.34-7.99-7.84-12.09-3.52-4.11-7.57-7.68-12.05-10.61-4.54-2.97-9.33-4.97-14.22-5.96-5.23-1.05-10.24-.21-14.92,2.49-3.1,1.79-5.8,4.27-8.02,7.37-2.13,2.97-3.89,6.23-5.24,9.7-1.31,3.39-2.33,6.94-3.03,10.55-.11.55-.21,1.1-.3,1.65l-28.36-49.12c-.83-1.42-2.6-1.88-4.01-1.06l-1.08.62c-.48.27-.86.69-1.1,1.18-.42.86-1.12,2.52-2.07,4.93-.95,2.4-2,4.95-3.13,7.6-1.16,2.73-2.26,5.41-3.26,8-.94,2.44-1.7,4.23-2.23,5.32-.08.15-.14.31-.18.47-.17.62-.25,1.58.37,2.67.37.64.98,1.11,1.69,1.3l.2.05c.3.13.63.2.96.22.64.02,1.79-.13,2.67-1.48.03-.04.06-.09.08-.14,1.05-1.81,2.13-3.06,3.24-3.69.85-.49,1.37-.44,2.14.19,1.4,1.14,2.89,3.07,4.43,5.73l35.49,61.48c1.54,2.67,2.46,4.92,2.75,6.7.16,1.01-.05,1.46-.91,1.95-1.11.64-2.68.98-4.81.96-.04-.02-.14,0-.21,0-1.11.08-2.02.65-2.51,1.58-.22.42-.33.89-.33,1.36-.16.67-.06,1.38.27,1.98.43.77,1.16,1.33,2.06,1.56.1.03.21.05.31.06l6.01.83c2.69.37,5.51.74,8.46,1.09,2.93.35,5.64.69,8.14,1.02,2.38.31,4.05.54,4.95.69.24.05.49.08.73.08.56,0,1.11-.14,1.59-.42l.81-.46c1.22-.72,1.96-2.43.96-4.16l-3.13-5.42c3.35.74,6.6,1.02,9.69.81,5.21-.34,10-1.76,14.25-4.21,3.92-2.26,7.26-5.33,9.92-9.1,2.64-3.74,4.53-8.04,5.62-12.78,1.08-4.71,1.26-9.83.54-15.2-.71-5.33-2.52-10.82-5.39-16.31ZM775.57,922.82c-1.4,2.74-3.31,4.78-5.83,6.24-2.56,1.48-5.69,2.28-9.3,2.37-3.77.1-8.25-.79-13.42-2.67-.02,0-.03-.01-.05-.02-.01,0-.03-.01-.04-.02l-19.36-33.54c.14-6.64,1.23-12.13,3.23-16.31,2.01-4.19,4.58-7.21,7.66-8.98,2.15-1.24,4.46-1.85,7.07-1.85,2.65,0,5.41.67,8.22,1.99,2.9,1.37,5.84,3.49,8.72,6.3,2.93,2.86,5.69,6.52,8.22,10.89,2.65,4.58,4.59,9.15,5.79,13.57,1.18,4.37,1.69,8.49,1.53,12.26-.16,3.65-.98,6.93-2.42,9.76Z"/>
    <path class="cls-1" d="M856.91,833.44c-.26-.57-.83-1.61-2.16-1.9-.71-.15-1.44-.01-2.05.36-.06.03-.14.06-.23.11l-.04.02c-.43.14-.78.35-1.02.54-.53.32-.95.79-1.2,1.35-.22.49-.51,1.49.12,2.86,2.84,5.55,4.19,11.29,4.01,17.06-.18,5.58-2.59,10.55-7.4,15.24-2.73,2.77-5.93,4.56-9.81,5.46-3.8.89-8.04.47-12.58-1.23-3.73-1.43-7.67-3.46-11.7-6.04l-1.39-1.02c-.52-.38-1-.72-1.45-1.02-.35-.23-.74-.51-1.16-.82-1.74-1.43-3.46-2.92-5.13-4.44,6.4-5.97,12.82-11.9,19.12-17.65l21.43-19.56c.6-.54.93-1.32.9-2.13-.03-.81-.41-1.57-1.04-2.07-3.72-2.98-7.94-5.51-12.54-7.52-4.6-2.01-9.33-3.36-14.06-4.02-4.81-.66-9.59-.45-14.17.64-4.72,1.13-8.92,3.35-12.49,6.61-3.81,3.48-6.65,7.75-8.43,12.69-1.75,4.87-2.48,10.02-2.19,15.32.29,5.25,1.59,10.62,3.86,15.98,2.27,5.35,5.54,10.38,9.72,14.96,4.19,4.59,8.88,8.28,13.96,10.98,5.08,2.7,10.29,4.46,15.49,5.23,1.97.29,3.92.44,5.86.44,3.25,0,6.46-.41,9.59-1.22,5.08-1.32,9.6-3.76,13.41-7.24,3.51-3.21,6.16-6.92,7.87-11.02,1.67-4.01,2.63-8.21,2.87-12.47.24-4.23-.17-8.52-1.23-12.75-1.04-4.17-2.63-8.12-4.74-11.74ZM803.64,820c1.72,0,3.49.16,5.29.49,3.79.69,7.65,1.89,11.45,3.56,2.66,1.17,5.12,2.48,7.35,3.91l-29.07,26.74c-1.96-2.34-3.65-4.71-5.06-7.08h0c-1.81-3.04-3.1-6.02-3.86-8.85-.73-2.73-.95-5.35-.65-7.78.28-2.31,1.05-4.27,2.4-6.04,1.74-2.37,4.03-3.82,7-4.44,1.66-.34,3.38-.52,5.15-.52ZM853.28,831.89s.08,0,.12,0c-.13,0-.26,0-.38.01.09-.01.17-.02.26-.02Z"/>
    <path class="cls-1" d="M908.7,790.49s0,0,0,0c-1.67-2.7-3.87-5.12-6.56-7.19-2.88-2.22-5.89-3.62-8.96-4.15-2.89-.51-5.92-.57-9.01-.16-.07,0-.14.02-.21.04-4.47.93-8.8,2.38-12.88,4.32-3.82,1.82-7.77,3.6-11.7,5.26-2.32.95-4.68,1.79-7.01,2.5-2.19.66-4.35,1.04-6.42,1.12-2.02.07-4.02-.11-5.9-.58-1.73-.42-3.29-1.25-4.74-2.48-.91-.8-1.5-1.75-1.79-2.88-.34-1.34-.42-2.77-.24-4.25.19-1.58.6-3.12,1.21-4.57.62-1.47,1.33-2.73,2.11-3.75,3.34-4.33,7.63-7.2,13.12-8.75,5.45-1.54,12.35-.98,20.5,1.67.1.03.19.06.29.08,1.94.4,2.98-.73,3.26-1.09l.12-.15c1.22-1.61.69-3.39-.44-4.26l-20.37-15.71c-.3-.23-1.22-.93-2.51-.78-.72.09-1.45.51-1.9,1.09l-.21.28c-.43.55-.66,1.19-.65,1.85-.04.49.04.99.27,1.45.45.92.93,1.99,1.45,3.19.03.06-.01.57-.8,1.59-.81,1.05-1.75,1.92-2.8,2.59-1.32.84-2.74,1.74-4.3,2.69-1.68,1.03-3.42,2.3-5.18,3.77-1.83,1.53-3.73,3.56-5.64,6.05-2.1,2.73-3.56,5.68-4.36,8.78-.79,3.12-.92,6.25-.38,9.3.53,3,1.62,5.91,3.24,8.65,1.63,2.76,3.83,5.22,6.53,7.31,2.86,2.21,5.89,3.62,9,4.2,2.96.55,6.02.63,9.12.22.07,0,.14-.02.21-.04,4.46-.93,8.79-2.38,12.87-4.32,3.85-1.83,7.79-3.61,11.7-5.26,2.32-.95,4.68-1.79,7.01-2.5,2.21-.66,4.37-1.04,6.43-1.12,2.01-.08,3.95.12,5.73.59,1.63.43,3.21,1.28,4.79,2.63.93.72,1.53,1.61,1.84,2.74.38,1.36.49,2.78.34,4.23-.16,1.51-.56,3.03-1.2,4.51-.65,1.52-1.38,2.81-2.17,3.84-3.34,4.34-7.64,7.2-13.13,8.75-5.45,1.55-12.35.99-20.5-1.67-.11-.04-.23-.07-.35-.09-1.85-.34-2.84.64-3.2,1.1l-.1.13c-1.24,1.6-.72,3.39.42,4.28l20.38,15.72c.75.57,1.47.79,2.12.79,1.02,0,1.85-.54,2.29-1.12l.19-.25c.27-.34.52-.86.61-1.28.04-.18.05-.36.06-.54.05-.51-.03-1.03-.26-1.5-.45-.92-.93-1.98-1.45-3.18-.03-.06,0-.57.79-1.59.81-1.05,1.75-1.92,2.8-2.59,1.34-.85,2.77-1.78,4.29-2.79,1.57-1.03,3.27-2.27,5.06-3.68,1.89-1.5,3.83-3.53,5.77-6.04,2.11-2.74,3.56-5.73,4.3-8.89.73-3.12.85-6.26.36-9.33-.49-3.08-1.59-6.02-3.27-8.74Z"/>
    <path class="cls-1" d="M833.71,234.18c-2.75-2.64-7.14-2.56-9.79.2-2.64,2.75-2.55,7.14.2,9.79,81.29,78.08,126.06,183.14,126.06,295.84,0,73.96-19.89,146.44-57.53,209.61-.95,1.59-1.22,3.45-.76,5.24s1.58,3.3,3.16,4.25c1.07.64,2.3.98,3.54.98,2.43,0,4.71-1.3,5.95-3.38,38.91-65.31,59.48-140.25,59.48-216.7,0-58.75-11.79-115.62-35.04-169.05-22.46-51.61-54.51-97.62-95.27-136.78Z"/>
    <path class="cls-1" d="M187.35,749.62c-37.64-63.17-57.53-135.65-57.53-209.61,0-114.41,45.93-220.59,129.33-298.96,2.78-2.61,2.92-7,.3-9.79-1.27-1.35-2.98-2.12-4.83-2.18-1.88-.05-3.61.61-4.96,1.88-41.77,39.25-74.64,85.62-97.71,137.83-23.88,54.05-35.99,111.65-35.99,171.22,0,76.45,20.57,151.38,59.48,216.7,1.24,2.08,3.52,3.38,5.95,3.38,1.25,0,2.47-.34,3.54-.97,1.59-.95,2.71-2.46,3.17-4.25.45-1.79.18-3.65-.76-5.24Z"/>
    <path class="cls-1" d="M1037.56,329.8c-27.2-64.3-66.13-122.05-115.72-171.64-49.59-49.59-107.34-88.52-171.64-115.72C683.62,14.28,612.9,0,540,0s-143.62,14.28-210.2,42.44c-64.31,27.2-122.05,66.13-171.64,115.72-49.59,49.59-88.53,107.34-115.72,171.64C14.28,396.38,0,467.1,0,540s14.28,143.62,42.44,210.2c27.2,64.3,66.13,122.05,115.72,171.64,49.59,49.59,107.34,88.52,171.64,115.72,66.58,28.16,137.3,42.44,210.2,42.44s143.62-14.28,210.2-42.44c64.31-27.2,122.05-66.13,171.64-115.72,49.59-49.59,88.53-107.34,115.72-171.64,28.16-66.58,42.44-137.3,42.44-210.2s-14.28-143.62-42.44-210.2ZM1066.16,540c0,290.12-236.03,526.16-526.16,526.16S13.84,830.12,13.84,540,249.88,13.84,540,13.84s526.16,236.03,526.16,526.16Z"/>
    <path class="cls-1" d="M252.69,193.59l.17.11c.24.16.5.28.78.36.79.23,1.62.14,2.32-.26.55-.31.97-.77,1.24-1.34,1.03-1.73,2.1-2.91,3.17-3.52.75-.43,1.34-.51,2.31.26,1.47,1.17,2.95,3.06,4.41,5.62l21.92,38.5c1.01,1.77,1.7,3.25,2.06,4.39.2.65.38,1.94.08,4.32-.22,1.61-.64,3.01-1.24,4.17-.49.94-1.03,1.6-1.58,1.92-1.24.71-2.01,2.41-1.01,4.17l.18.32c.66,1.15,1.68,1.63,2.65,1.63.52,0,1.02-.14,1.45-.38l28.61-16.29c1.24-.71,2.01-2.41,1.01-4.17l-.18-.31c-.67-1.18-2.1-1.7-3.36-1.23-.96.35-2.07.48-3.31.36-1.36-.12-2.71-.43-4-.92-2.29-1.08-3.32-1.92-3.78-2.43-.79-.88-1.71-2.23-2.72-4.01l-23.61-41.46c.62-1.94,1.33-4.03,2.11-6.22.89-2.51,2.02-5.01,3.34-7.44,1.32-2.41,2.82-4.66,4.47-6.68,1.55-1.89,3.32-3.42,5.28-4.53,4.19-2.39,8.47-2.59,13.08-.62,4.82,2.06,8.97,6.11,12.34,12.03l19.45,34.17c1.01,1.77,1.7,3.25,2.06,4.39.2.65.38,1.94.08,4.32-.22,1.6-.64,3.01-1.24,4.17-.49.94-1.03,1.61-1.57,1.92-1.54.88-2.04,2.71-1.16,4.26l.17.3c.42.74,1.09,1.27,1.88,1.49.79.21,1.64.1,2.38-.32l28.58-16.28c.64-.36,1.18-1.05,1.38-1.75.16-.56.22-1.43-.35-2.42l-.18-.31c-.67-1.18-2.09-1.7-3.36-1.23-.96.36-2.08.48-3.31.36-1.36-.12-2.71-.43-4-.92-2.29-1.08-3.31-1.92-3.78-2.43-.79-.88-1.71-2.23-2.72-4.01l-19.28-33.86c-.77-1.36-1.62-2.72-2.52-4.04-.64-.94-1.38-1.86-2.2-2.74.57-1.93,1.26-3.99,2.05-6.16,1-2.72,2.16-5.37,3.47-7.87,1.28-2.45,2.8-4.77,4.52-6.89,1.62-2,3.43-3.57,5.38-4.69,4.28-2.44,8.58-2.66,13.13-.67,4.78,2.09,8.91,6.15,12.29,12.08l19.45,34.17c1.03,1.81,1.76,3.31,2.18,4.46.17.48.4,1.65-.02,4.18-.01.07-.02.14-.03.21-.13,1.48-.51,2.81-1.12,3.94-.74,1.37-1.31,1.8-1.52,1.92-.74.42-1.27,1.09-1.49,1.89-.22.79-.1,1.64.32,2.38l.18.31c.88,1.54,2.71,2.04,4.26,1.17l28.6-16.29c1.33-.76,1.79-2.45,1.04-3.77l-.44-.77c-.37-.64-.97-1.11-1.68-1.3l-.24-.07c-.71-.19-1.46-.1-2.1.26-.63.36-1.49.49-2.57.39-1.34-.12-2.61-.45-3.85-1.01-2.56-1.08-3.55-1.93-3.93-2.35-.79-.88-1.71-2.23-2.72-4.01l-18.79-33.01c-.05-.33-.16-.64-.33-.93-5.24-9.2-11.86-14.41-19.68-15.48-7.55-1.03-15.75.94-24.4,5.86-2.53,1.44-4.81,3.31-6.78,5.57-1.89,2.17-3.58,4.57-5.03,7.13-1.4,2.48-2.67,5.11-3.77,7.8-.88,2.16-1.67,4.26-2.35,6.33-1.85-1.21-3.77-2.12-5.75-2.73-3.11-.95-6.29-1.33-9.45-1.13-3.09.2-6.24.89-9.35,2.07-3,1.14-5.98,2.55-8.86,4.19-2.53,1.44-4.81,3.31-6.78,5.57-1.88,2.16-3.6,4.56-5.09,7.15-1.47,2.54-2.78,5.23-3.9,8-.26.63-.5,1.25-.73,1.88l-6.76-11.87c-.39-.7-1.02-1.2-1.78-1.41-.76-.21-1.56-.11-2.25.29l-.91.52c-.66.37-1.16.96-1.43,1.68-.44.9-1.08,2.46-1.96,4.75-.88,2.29-1.92,4.82-3.09,7.51-1.19,2.74-2.3,5.36-3.34,7.87l-2.25,5.45c-.59,1.09-.39,2.04-.2,2.53.25.65.72,1.18,1.33,1.51Z"/>
    <path class="cls-1" d="M386.17,109.62l.24.29c.86,1.02,2.13,1.44,3.39,1.12.21-.05,1.02-.17,3.01.36,1.71.46,3.48,1.14,5.13,1.97,2.87,1.62,4.2,2.72,4.8,3.36.97,1.03,2.1,2.49,3.33,4.3,6.33,9.7,12.66,19.3,18.83,28.53,6.23,9.33,12.56,18.82,18.99,28.46.65.97,1.84,1.43,2.97,1.15l5.91-1.47c-.85,6.34-1.75,11.81-2.69,16.28-1.1,5.26-2.39,9.57-3.83,12.81-1.34,3.01-2.95,5.29-4.78,6.77-1.87,1.5-4.3,2.63-7.22,3.36-2.98.75-4.07-.14-4.43-.43-1.04-.84-1.16-1.6-1.01-2.46.25-1.42.27-2.99.07-4.67-.26-2.21-1.37-4.04-3.21-5.3-.04-.03-.09-.06-.14-.09-2.23-1.34-4.72-1.68-7.4-1.01-2.27.56-4.12,1.84-5.5,3.8-1.46,2.06-1.87,4.59-1.19,7.31.73,2.93,2.23,5.26,4.48,6.93,2.03,1.51,4.36,2.57,6.94,3.14,1.87.42,3.8.63,5.77.63.61,0,1.22-.02,1.83-.06,2.5-.17,4.77-.5,6.84-1.01,4.71-1.31,8.52-3.49,11.32-6.48,2.79-2.97,4.99-7.25,6.73-13.06,1.63-5.45,3.07-12.73,4.26-21.63,1.18-8.78,2.55-20.03,4.09-33.43.75-6.73,1.66-14.22,2.7-22.26,1.05-8.08,2.15-17.07,3.27-26.62.42-2.94,1.4-5.46,2.9-7.47,1.39-1.86,3.47-3.13,6.36-3.87l.13-.03c.71-.18,1.28-.62,1.65-1.19.49-.7.68-1.61.45-2.56l-.08-.33c-.21-.83-.71-1.52-1.41-1.95-.71-.42-1.55-.54-2.37-.34l-28.84,7.17c-1.73.43-2.7,2.06-2.27,3.79l.09.35c.18.71.63,1.32,1.25,1.7l.43.26c.63.38,1.39.49,2.1.32,1.18-.29,2.66-.47,4.39-.52,1.68-.03,3.26.12,4.69.48,1.21.31,2.15.81,2.85,1.53.18.18.64.65.43,2.18-1.19,9.47-2.28,18.24-3.27,26.3-.98,7.96-1.86,15.47-2.61,22.24-.61,4.42-1.14,8.65-1.58,12.56-.14,1.22-.28,2.41-.42,3.59l-32.62-49.27c-1.22-1.8-2.06-3.27-2.49-4.35-.22-.57-.42-1.67-.11-3.73.18-1.17.51-2.15,1.02-3,.31-.52.68-.8,1.24-.94l.17-.04c1.48-.37,2.38-1.87,2.01-3.35l-.09-.35c-.1-.42-.3-.81-.59-1.14l-.26-.3c-.39-.46-.92-.77-1.5-.9l-.39-.09c-.42-.09-.85-.09-1.27.01l-31.78,7.9c-1.97.49-2.66,2.23-2.31,3.62.1.41.3.8.58,1.12Z"/>
    <path class="cls-1" d="M486.29,115.37c1.54,2.59,3.51,4.95,5.86,7.01.05.05.11.09.16.13,3.65,2.75,7.62,5.05,11.77,6.83,3.91,1.68,7.86,3.48,11.7,5.32,2.26,1.12,4.45,2.35,6.52,3.63,1.96,1.22,3.67,2.6,5.09,4.09,1.4,1.48,2.53,3.06,3.35,4.71.76,1.52,1.16,3.27,1.19,5.35.08,1.17-.2,2.22-.84,3.2-.78,1.19-1.77,2.22-2.96,3.06-1.24.88-2.65,1.58-4.19,2.08-1.57.52-3.03.82-4.33.9-5.48.35-10.48-.98-15.28-4.09-4.77-3.09-8.92-8.65-12.31-16.54-.04-.11-.1-.21-.15-.31-.97-1.65-2.38-1.74-2.93-1.7h-.2c-2.01.15-3,1.72-2.92,3.15l1.65,25.74c.03.38.1,1.55,1.07,2.4.51.45,1.23.71,1.92.71.06,0,.11,0,.16,0l.34-.02c.69-.04,1.33-.3,1.82-.73.4-.29.72-.69.92-1.16.4-.95.88-2.01,1.44-3.2.03-.06.44-.37,1.73-.45,1.33-.09,2.61.05,3.81.39,1.53.44,3.17.91,4.94,1.39,1.8.5,3.85.96,6.12,1.37,2.38.43,5.19.55,8.36.35,3.46-.22,6.67-1.11,9.54-2.64,2.83-1.51,5.28-3.5,7.27-5.9,1.99-2.41,3.47-5.18,4.41-8.25.93-3.04,1.29-6.3,1.07-9.69-.23-3.63-1.17-6.82-2.8-9.49,0,0,0,0,0,0-1.53-2.51-3.5-4.83-5.84-6.89-.05-.05-.11-.09-.17-.14-3.66-2.75-7.62-5.05-11.77-6.83-3.91-1.68-7.86-3.48-11.71-5.33-2.25-1.11-4.44-2.33-6.52-3.63-1.95-1.21-3.67-2.59-5.09-4.09-1.41-1.48-2.57-3.11-3.47-4.82-.82-1.58-1.24-3.3-1.26-5.21,0-1.22.33-2.29.99-3.26.78-1.14,1.81-2.15,3.05-3,1.32-.9,2.75-1.62,4.24-2.12,1.52-.51,2.94-.81,4.22-.89,5.47-.35,10.47.99,15.28,4.09,4.77,3.09,8.92,8.65,12.31,16.54.04.1.09.19.14.28.95,1.65,2.37,1.75,2.97,1.72h.16c1.15-.08,1.84-.61,2.22-1.05.48-.55.76-1.37.72-2.1l-1.65-25.74c-.16-2.41-1.94-3.17-3.15-3.11l-.37.02c-.68.05-1.31.3-1.79.73-.4.29-.72.69-.91,1.16-.4.95-.88,2.02-1.44,3.2-.03.06-.44.37-1.73.46-1.34.09-2.62-.05-3.81-.39-1.5-.43-3.12-.92-4.87-1.46-1.89-.58-4-1.05-6.26-1.4-2.36-.37-5.15-.45-8.28-.25-3.44.22-6.64,1.07-9.49,2.53-2.88,1.47-5.32,3.44-7.26,5.87-1.91,2.38-3.38,5.13-4.37,8.16-1,3.05-1.4,6.33-1.18,9.75.23,3.62,1.17,6.84,2.79,9.55ZM493.66,168.92c.08-.3.11-.61.09-.92.02.33-.01.63-.09.92Z"/>
    <path class="cls-1" d="M546.43,76.88c.11.26.26.5.44.72.54.63,1.27,1.01,2.07,1.07.62.04,1.25-.11,1.78-.44,1.81-.87,3.35-1.28,4.59-1.19,1.04.07,1.35.41,1.59,1.05.3.82.51,1.82.62,3l-3.89-.26c-.74-.06-1.45.19-2.01.68s-.89,1.17-.94,1.9l-.12,1.78c-.1,1.52,1.05,2.84,2.58,2.94l4.34.29-3.76,56.53c-.15,2.32-.25,4.76-.3,7.24-.05,2.77.28,5.38.99,7.77.79,2.64,2.28,4.91,4.42,6.73,2.2,1.87,5.29,2.95,9.2,3.21.94.06,1.86.09,2.75.09,3.35,0,6.32-.44,8.85-1.33,3.09-1.08,5.77-2.41,7.92-3.94,2.44-1.65,4.49-3.62,6.11-5.86.14-.16.26-.32.37-.49.03-.04.06-.07.09-.11.85-1.11,1.2-2.94-.38-4.76-.13-.14-.26-.27-.42-.39-1.06-.81-2.95-1.2-4.77.39-.15.13-.29.28-.41.44-.73.99-1.6,1.85-2.59,2.54-.08.06-.16.12-.24.19-.76.66-1.79,1.25-3.06,1.73-1.2.46-2.68.63-4.4.52-2.08-.14-3.51-.71-4.39-1.76-1.08-1.28-1.77-2.79-2.13-4.63-.4-2.06-.55-4.28-.45-6.61.11-2.52.23-4.78.36-6.77l3.3-49.6,4.52.3c1.5.12,2.84-1.05,2.95-2.58l.12-1.78c.05-.73-.19-1.46-.68-2.01-.48-.55-1.17-.89-1.9-.94l-4.52-.3,1.49-22.43c.06-.8-.2-1.57-.72-2.16-.52-.59-1.25-.94-2.02-.99l-1.42-.09c-.55-.04-1.09.09-1.57.36-.84.49-2.29,1.46-4.42,2.99-2.01,1.43-4.27,2.97-6.72,4.56-2.49,1.62-4.89,3.19-7.19,4.7-2.31,1.52-4.03,2.66-5.16,3.42-.09.06-.19.13-.27.21-1.04.9-1.34,2.36-.77,3.69l.15.37Z"/>
    <path class="cls-1" d="M592.33,165.16c-.84-.16-1.68.02-2.35.49-.68.47-1.13,1.19-1.28,2.03l-.06.35c-.31,1.75.77,3.31,2.52,3.63l32.39,5.86c.16.03.33.04.49.04.86,0,1.69-.4,2.21-1.11l.24-.32c.26-.34.43-.74.51-1.17l.06-.35c.24-1.35-.53-2.67-1.83-3.11-1.06-.37-1.97-.95-2.79-1.81-.92-.96-1.74-2.07-2.43-3.3-1.06-2.3-1.31-3.6-1.34-4.29-.04-1.19.12-2.81.48-4.83l12.57-69.48c.14-.73-.04-1.58-.46-2.19-.33-.48-.96-1.09-2.08-1.29l-1.23-.22c-.53-.1-1.09-.03-1.6.19-.88.38-2.45,1.18-4.78,2.43-2.27,1.22-4.73,2.49-7.31,3.78-2.67,1.34-5.21,2.64-7.62,3.9l-5.39,2.82c-.1.05-.21.11-.3.18-.68.47-1.13,1.17-1.27,1.96-.1.57-.03,1.14.19,1.67l.04.14c.4,1.39,1.36,1.92,1.9,2.12.72.26,1.49.22,2.18-.09,1.9-.67,3.49-.89,4.71-.67.97.17,1.34.55,1.52,1.54.34,1.78.23,4.22-.32,7.26l-7.76,42.89c-.37,2.05-.77,3.67-1.19,4.82-.17.48-.76,1.52-2.7,3.19-.05.05-.11.09-.16.14-1.06,1.06-2.19,1.85-3.35,2.34-.97.41-1.82.57-2.43.46Z"/>
    <path class="cls-1" d="M635.61,168.37c1.9,4.97,4.68,9.39,8.27,13.12,3.65,3.79,7.99,6.54,12.9,8.17,3.37,1.11,6.74,1.67,10.06,1.67,1.15,0,2.29-.07,3.43-.2,4.32-.51,8.46-1.72,12.31-3.61,3.81-1.86,7.36-4.33,10.54-7.33,3.13-2.95,5.8-6.28,7.94-9.91.36-.51,1-1.51.59-2.81-.21-.69-.7-1.27-1.32-1.61-.06-.04-.12-.09-.21-.16,0,0,0,0,0,0-.2-.2-.44-.37-.69-.51-.54-.37-1.52-.91-2.74-.51-.7.23-1.28.73-1.62,1.37.1-.2.19-.31.19-.31,0,0,0,0,0,0-.14.14-.26.3-.37.46-1.69,2.67-3.64,5.04-5.8,7.03-2.12,1.95-4.48,3.55-7.02,4.75-2.5,1.17-5.19,1.89-8,2.13-2.8.24-5.83-.12-9.06-1.07-3.76-1.02-6.89-2.95-9.58-5.9-2.64-2.89-4.36-6.8-5.1-11.6-.83-5.74-.8-11.76.1-17.91.9-6.16,2.57-12.03,4.93-17.38,2.76-5.87,6.12-10.47,10-13.67,3.62-2.99,7.21-4.19,10.99-3.67,2.71.37,4.84,1.27,6.53,2.73,1.77,1.54,3.16,3.43,4.14,5.61,1.03,2.31,1.72,4.79,2.05,7.37.33,2.64.38,5.23.15,7.65-.26,2.4.37,4.64,1.83,6.46,1.44,1.82,3.42,2.91,5.89,3.24.33.07.77.11,1.54.15,1.05.06,2.18-.14,3.34-.58,1.12-.43,2.2-1.13,3.19-2.08,1.24-1.18,1.94-2.87,2.1-5.02.6-7.58-1.1-14.19-5.03-19.64-3.89-5.38-9.5-9.32-16.67-11.69-4.92-1.63-10.04-2.01-15.23-1.14-5.11.86-9.98,2.74-14.47,5.6-4.45,2.83-8.51,6.6-12.07,11.21-3.56,4.6-6.36,9.93-8.31,15.83-1.96,5.91-2.88,11.83-2.75,17.59.13,5.77,1.15,11.19,3.03,16.11Z"/>
    <path class="cls-1" d="M701.93,178.17c-2.85,5.02-4.09,9.68-3.7,13.84.39,4.14,1.9,7.85,4.5,11.06,1.19,1.45,2.61,2.77,4.22,3.92,1.52,1.08,3.17,2.06,4.9,2.89,4.1,2.04,8.68,3.35,13.61,3.89,3.15.35,6.24.33,9.24-.06-.46,1.75-.53,3.5-.22,5.21.33,1.8,1.11,3.51,2.33,5.09,1.17,1.5,2.86,2.89,5.02,4.12,2.32,1.32,4.66,2.05,6.94,2.17.34.02.68.03,1.02.03,1.81,0,3.59-.26,5.3-.77,1.92-.58,3.74-1.35,5.41-2.3,1.54-.87,2.97-1.71,4.15-2.45,1.31-.74,1.75-1.75,1.89-2.47.1-.51.15-1.47-.48-2.5-.37-.81-1.02-1.43-1.84-1.75-.76-.3-1.61-.32-2.53-.07-.29.08-.56.2-.8.37-1.37.92-2.27,1.31-2.78,1.47-.77.25-1.65.4-2.61.46-.64.04-1.31-.13-1.97-.5-1.04-.59-1.71-1.23-1.8-1.71-.06-.32-.07-1.28,1.07-3.29l21.25-37.45c2.33-4.1,4.01-8.03,4.99-11.67,1.03-3.85,1.17-7.55.42-11.01-.76-3.49-2.55-6.83-5.32-9.94-2.65-2.98-6.42-5.86-11.19-8.56-2.99-1.69-6.13-2.96-9.36-3.76-3.25-.81-6.45-1.1-9.51-.89-3.12.23-5.97.97-8.46,2.2-2.67,1.32-4.76,3.29-6.21,5.83-1.07,1.89-1.58,3.91-1.51,6.01.07,2.55,1.37,4.66,3.64,5.95,2.85,1.62,5.17,1.31,6.61.77,1.65-.62,3.23-1.65,4.7-3.07,1.26-1.22,2.56-2.52,3.85-3.85,1.17-1.21,2.43-2.26,3.77-3.12,1.12-.73,2.38-1.14,3.84-1.24,1.36-.1,3.05.42,5.03,1.55,3.97,2.25,6.38,4.76,7.15,7.45.77,2.67-.04,6.12-2.39,10.28l-6.46,11.38c-1.32-.49-2.84-1.04-4.54-1.63-2.86-1-6.08-1.9-9.57-2.68-3.46-.78-7.15-1.39-10.97-1.81-3.95-.43-7.84-.36-11.56.2-3.84.59-7.43,1.84-10.68,3.74-3.37,1.97-6.18,4.91-8.35,8.73ZM741.5,200c-.57,1-1.19,2.03-1.85,3.09-.51.81-1.02,1.65-1.52,2.51-2.31.66-4.85.98-7.58.93-2.96-.04-5.61-.71-7.87-1.99-2.33-1.32-4.03-3.09-5.21-5.4-1.22-2.38-1.83-4.87-1.83-7.42,0-2.59.59-5.22,1.78-7.83,0,0,0,0,0,0,1.16-2.56,2.9-4.66,5.32-6.42,2.41-1.76,5.52-2.93,9.23-3.49,1.05-.16,2.17-.24,3.34-.24,3.03,0,6.46.53,10.25,1.58,2.26.63,4.36,1.33,6.26,2.08.73.29,1.41.56,2.06.81l-12.36,21.79Z"/>
    <path class="cls-1" d="M823.27,153.06c.49.39,1.08.61,1.71.64,1.98.3,3.48.85,4.46,1.61.66.52.93,1,.57,2.12-.58,1.79-1.8,3.88-3.64,6.21l-50.9,64.54c-1.28,1.63-2.4,2.87-3.31,3.69-.4.35-1.42,1.05-3.82,1.68-1.57.4-3.03.54-4.34.42-1.05-.09-1.87-.35-2.37-.74-1.4-1.1-3.28-.87-4.38.53l-.22.28c-.53.67-.77,1.49-.67,2.31s.52,1.56,1.19,2.08l25.84,20.38c.5.39,1.1.59,1.71.59.4,0,.8-.09,1.18-.26l.36-.17c.39-.18.73-.46,1-.79l.22-.28c.84-1.07.78-2.6-.15-3.6-.77-.82-1.29-1.77-1.61-2.9-.36-1.28-.56-2.65-.59-4.06.14-2.53.53-3.79.83-4.42.52-1.06,1.42-2.42,2.69-4.03l67.62-85.75c.46-.58.71-1.41.62-2.15-.06-.57-.33-1.41-1.24-2.12l-.69-.54c-.58-.47-1.33-.72-2.09-.69-.99-.06-2.69-.1-5.18-.08-2.56.02-5.32-.02-8.23-.09-2.98-.07-5.83-.12-8.55-.14l-6.08-.04c-.11,0-.24,0-.35.02-.82.1-1.54.5-2.04,1.14-.36.46-.56,1-.61,1.58l-.03.15c-.06.28-.07.56-.04.85.09.82.48,1.55,1.11,2.05Z"/>
  </g>
</svg>