<?xml version="1.0" encoding="UTF-8"?>
<svg id="Layer_1" xmlns="http://www.w3.org/2000/svg" viewBox="0 0 1080 1080">
  <defs>
    <style>
      .cls-1 {
        fill: #F9E4DF;
      }
    </style>
  </defs>
  <path class="cls-1" d="M52.57,590.69h0c0-27.99,22.69-50.69,50.69-50.69h0c-27.99,0-50.69-22.69-50.69-50.69h0c0,27.99-22.69,50.69-50.69,50.69h0c27.99,0,50.69,22.69,50.69,50.69Z"/>
  <path class="cls-1" d="M414.51,39.1c-28.58-26.51-74.66-41.93-109.92-17.27-27.34,19.27-40.95,53.54-46.72,87.7-11.17-2.91-22.53-5.12-33.99-6.59-93.23-11.97-168.99,35.79-189.84,128.98-28.06,121.29,43.61,233.95,135.82,308.07C77.64,614.12,5.98,726.79,34.03,848.07c20.85,93.19,96.61,140.95,189.84,128.98,11.46-1.47,22.81-3.68,33.99-6.59,5.77,34.16,19.38,68.44,46.72,87.7,35.26,24.66,81.34,9.24,109.92-17.27,73.69-67.54,108.55-214.43,105.47-312.43v.03s0-.36-.03-.97c-.03-.84-.05-1.69-.09-2.53-.04-.64-.08-1.29-.12-1.93-.3-5.96-.87-15.52-1.72-21.83-.95-7.04-2.06-11.44-2.46-12.9-.02-.1-.05-.2-.08-.3-.05-.17-.08-.28-.08-.28v.05c-.25-.59-.68-1.09-1.31-1.36-1.31-.56-2.85.11-3.33,1.45-6.14,17.18-18.91,33.24-30.15,47.35-50.04,62.88-120.28,107.89-193.75,138.76-33.41,14.04-70.61,29.86-107.55,27.5-28.41-1.82-53.78-15.27-68.17-40.35-15.89-28.26-21-63.66-16.87-96.17,11.14-73.14,70.89-139.39,127.84-188.43,31.34,19.19,64.74,36.31,100.5,45.4,56.74,13.51,124.81-.09,164.1-44.84,7.66-9.18,13.96-20.64,15.24-32.72,0-.03.01-.05.02-.07,0-.03,0-.07,0-.1.03-.34.05-.68.07-1.02.05-.61.1-1.22.12-1.83.02-.46,0-.92,0-1.38,0-.46.02-.92,0-1.38-.02-.61-.08-1.22-.12-1.83-.03-.34-.04-.68-.07-1.02,0-.03,0-.07,0-.1,0-.03-.01-.05-.02-.07-1.28-12.08-7.58-23.54-15.24-32.72-39.29-44.76-107.36-58.35-164.1-44.84-35.76,9.09-69.16,26.21-100.5,45.4-56.94-49.04-116.7-115.29-127.84-188.43-4.13-32.51.98-67.91,16.87-96.17,14.4-25.08,39.76-38.53,68.17-40.35,36.94-2.37,74.14,13.45,107.55,27.5,73.46,30.87,143.7,75.88,193.75,138.76,11.23,14.11,24,30.16,30.15,47.35.48,1.34,2.02,2.02,3.33,1.45.63-.27,1.06-.77,1.31-1.36v.05s.04-.1.09-.28c.03-.1.06-.2.08-.3.4-1.46,1.52-5.86,2.46-12.9.85-6.3,1.42-15.86,1.72-21.83.04-.64.08-1.29.12-1.93.03-.84.06-1.69.09-2.53.03-.61.04-.97.04-.97v.03c3.08-97.99-31.78-244.88-105.48-312.43ZM497.7,748.85c5.52-12.56,10.21-26.16,13.77-39.39.62-2.45,1.21-4.89,1.76-7.33.42,19.59-2.68,39.32-5.83,58.57-14.07,77.72-44.63,165.6-95.41,226.68-16.23,18.65-36.73,37.07-61.59,38.58-28.73,2.32-42.38-37.4-49.27-70.79,23.1-10.47,44.75-24.09,64.74-39.71,55.58-43.44,103.38-101.91,131.83-166.61ZM335.63,501.51c33.65-12.81,71.82-14.01,106.06-2.57,15.33,5.23,33.11,13.96,43.64,27.33,6.33,8.04,6.33,19.43,0,27.47-10.54,13.37-28.31,22.1-43.64,27.33-34.24,11.44-72.41,10.24-106.06-2.58-24.07-9.17-46.61-23.08-67.74-38.49,21.12-15.41,43.67-29.32,67.74-38.49ZM497.7,331.15c-28.45-64.7-76.25-123.17-131.83-166.61-19.98-15.62-41.63-29.24-64.74-39.71,6.89-33.39,20.54-73.11,49.27-70.79,24.86,1.51,45.36,19.93,61.59,38.58,50.78,61.08,81.34,148.95,95.41,226.68,3.15,19.24,6.26,38.98,5.83,58.57-.56-2.44-1.14-4.88-1.76-7.33-3.56-13.23-8.25-26.84-13.77-39.39Z"/>
  <path class="cls-1" d="M1027.43,489.31h0c0,27.99-22.69,50.69-50.69,50.69h0c27.99,0,50.69,22.69,50.69,50.69h0c0-27.99,22.69-50.69,50.69-50.69h0c-27.99,0-50.69-22.69-50.69-50.69Z"/>
  <path class="cls-1" d="M910.14,540c92.22-74.12,163.88-186.79,135.82-308.07-20.85-93.19-96.61-140.95-189.84-128.98-11.46,1.47-22.81,3.68-33.99,6.59-5.77-34.16-19.38-68.44-46.72-87.7-35.26-24.66-81.34-9.24-109.92,17.27-73.69,67.54-108.55,214.43-105.47,312.43v-.03s0,.36.03.97c.03.84.05,1.69.09,2.53.04.64.08,1.29.12,1.93.3,5.96.87,15.52,1.72,21.83.95,7.03,2.06,11.44,2.46,12.9.02.1.05.2.08.3.05.17.08.28.08.28v-.05c.25.59.68,1.09,1.31,1.36,1.31.56,2.85-.11,3.33-1.45,6.14-17.18,18.91-33.24,30.15-47.35,50.04-62.88,120.28-107.89,193.75-138.76,33.41-14.04,70.61-29.86,107.55-27.5,28.41,1.82,53.78,15.27,68.17,40.35,15.89,28.26,21,63.66,16.87,96.17-11.14,73.14-70.89,139.39-127.84,188.43-31.34-19.19-64.74-36.31-100.5-45.4-56.74-13.51-124.81.09-164.1,44.84-7.66,9.18-13.96,20.64-15.24,32.72,0,.03-.01.05-.02.07,0,.03,0,.07,0,.1-.03.34-.05.68-.07,1.02-.05.61-.1,1.22-.12,1.83-.02.46,0,.92,0,1.38,0,.46-.02.92,0,1.38.02.61.08,1.22.12,1.83.03.34.04.68.07,1.02,0,.03,0,.07,0,.1,0,.03.01.05.02.07,1.28,12.08,7.58,23.54,15.24,32.72,39.29,44.76,107.36,58.35,164.1,44.84,35.76-9.09,69.16-26.21,100.5-45.4,56.94,49.04,116.7,115.29,127.84,188.43,4.13,32.51-.98,67.91-16.87,96.17-14.4,25.08-39.76,38.53-68.17,40.35-36.94,2.37-74.14-13.45-107.55-27.5-73.46-30.87-143.7-75.88-193.75-138.76-11.23-14.11-24-30.16-30.15-47.35-.48-1.34-2.02-2.02-3.33-1.45-.63.27-1.06.77-1.31,1.36v-.05s-.04.1-.09.28c-.03.1-.06.2-.08.3-.4,1.46-1.52,5.86-2.46,12.9-.85,6.3-1.42,15.86-1.72,21.83-.04.64-.08,1.29-.12,1.93-.03.84-.06,1.69-.09,2.53-.03.61-.04.97-.04.97v-.03c-3.08,97.99,31.78,244.88,105.48,312.43,28.58,26.51,74.66,41.93,109.92,17.27,27.34-19.27,40.95-53.54,46.72-87.7,11.17,2.91,22.53,5.12,33.99,6.59,93.23,11.97,168.99-35.79,189.84-128.98,28.06-121.29-43.61-233.95-135.82-308.07ZM582.3,331.15c-5.52,12.56-10.21,26.16-13.77,39.39-.62,2.45-1.21,4.89-1.76,7.33-.42-19.59,2.68-39.32,5.83-58.57,14.07-77.72,44.63-165.6,95.41-226.68,16.23-18.65,36.73-37.07,61.59-38.58,28.73-2.32,42.38,37.4,49.27,70.79-23.1,10.47-44.75,24.09-64.74,39.71-55.58,43.44-103.38,101.91-131.83,166.61ZM744.37,578.49c-33.65,12.82-71.82,14.01-106.06,2.58-15.33-5.23-33.11-13.96-43.64-27.33-6.33-8.04-6.33-19.43,0-27.47,10.53-13.37,28.31-22.1,43.64-27.33,34.24-11.44,72.41-10.24,106.06,2.57,24.07,9.17,46.61,23.08,67.74,38.49-21.12,15.41-43.67,29.32-67.74,38.49ZM729.6,1025.95c-24.86-1.51-45.36-19.93-61.59-38.58-50.78-61.08-81.34-148.95-95.41-226.68-3.15-19.24-6.26-38.98-5.83-58.57.56,2.44,1.14,4.88,1.76,7.33,3.56,13.23,8.25,26.84,13.77,39.39,28.45,64.7,76.25,123.17,131.83,166.61,19.98,15.62,41.63,29.24,64.74,39.71-6.89,33.39-20.54,73.11-49.27,70.79Z"/>
</svg>