<?xml version="1.0" encoding="UTF-8"?>
<svg id="Layer_1" xmlns="http://www.w3.org/2000/svg" viewBox="0 0 1080 382.15">
  <defs>
    <style>
      .cls-1 {
        fill: #bf6066;
      }
    </style>
  </defs>
  <g>
    <path class="cls-1" d="M211.58,262.58v-.5c0-2.53-1.98-4.51-4.51-4.51h-41.66c-2.53,0-4.51,1.98-4.51,4.51v.5c0,2.57,1.94,4.51,4.51,4.51,1.82,0,3.25.26,4.24.78.83.44,1.37.93,1.65,1.48.35.71.5,1.49.46,2.36-.06,1.04-.29,1.95-.71,2.79-.01.03-.03.05-.04.08l-34.54,74.61-23.18-66.06c-.7-1.89-1.36-3.81-1.82-5.77-.46-1.96-.12-4.01.67-5.85.31-.73.68-1.45,1.1-2.12.72-1.14,1.76-2.56,3.28-2.56h.25c2.22,0,4.01-1.8,4.01-4.01v-.5c0-.62-.15-1.24-.42-1.8l-.25-.5c-.19-.38-.44-.73-.74-1.03l-.25-.25c-.75-.76-1.78-1.18-2.84-1.18h-46.15c-2.21,0-3.54,1.34-4.05,2.59-.31.77-.37,1.59-.21,2.37.03.54.16,1.07.4,1.56.84,1.72,2.47,2.75,4.36,2.75,1.29,0,2.54.71,3.66,1.29,3.32,1.7,6.4,3.9,8.94,6.64,2.67,2.88,4.45,6.24,5.86,9.88.03.09.07.18.1.26.12.31.24.63.36.94l4.44,14.22-23.13,49.15s-23.41-66.09-23.41-66.09c-.77-2.09-1.57-4.29-1.87-6.51-.23-1.64.1-3.35.73-4.87.57-1.38,1.06-2.67,2.24-3.67.65-.55,1.41-.97,2.22-1.23.87-.28,1.75-.22,2.54-.76,1.25-.85,1.88-2.29,1.88-3.78,0-.62-.15-1.24-.42-1.8l-.25-.5c-.39-.77-1.01-1.4-1.79-1.79l-.5-.25c-.56-.28-1.18-.43-1.8-.43H4.51c-2.93,0-4.51,2.2-4.51,4.26,0,.63.15,1.24.43,1.8l.23.46c.84,1.72,2.47,2.75,4.36,2.75.28,0,1.41.11,3.92,1.49,2.14,1.18,4.28,2.68,6.37,4.46,3.29,3.12,4.7,5.04,5.3,6.09.97,1.72,2.01,4.09,3.09,7l32.93,93.1c.57,1.59,2.08,2.65,3.78,2.65h4.24c1.55,0,2.97-.9,3.63-2.3l30.8-65.34,23.41,64.99c.57,1.59,2.08,2.65,3.77,2.65h3.99c1.56,0,2.97-.9,3.63-2.31,7.64-16.25,15.48-32.86,23.32-49.38,2.64-5.57,5.28-11.14,7.92-16.71,2.74-5.79,5.47-11.58,8.2-17.37,1.39-2.96,2.79-7.21,4.18-10.17,1.25-2.66,2.38-5.31,4.05-7.75,1.19-1.73,2.97-3.29,4.68-4.51,2.34-1.68,4.8-2.97,7.32-3.83,2.67-.92,5.25-1.57,7.67-1.95,2.46-.38,4.44-.58,5.87-.58,2.53,0,4.51-1.98,4.51-4.51Z"/>
    <path class="cls-1" d="M312.75,354.53c-1.04-.74-2.29-1.07-3.56-.88-1.16.17-2.24.74-3.2,1.69-.31.31-.56.66-.75,1.04-1.03,2.06-1.85,3.14-2.36,3.69-.76.83-1.72,1.61-2.85,2.34-1.61,1.04-4,1.3-5.55.02-1.7-1.39-1.34-3.64-1.36-5.56,0-.62,0-1.24,0-1.86v-54.78c0-6.63-.67-12.59-2-17.72-1.4-5.43-3.8-10.06-7.13-13.77-3.36-3.75-7.88-6.6-13.42-8.48-5.31-1.8-11.91-2.71-19.62-2.71-4.83,0-9.55.64-14.05,1.9-4.54,1.27-8.66,3.13-12.24,5.51-3.67,2.44-6.64,5.33-8.83,8.58-2.36,3.49-3.56,7.35-3.56,11.48,0,3.07.79,5.91,2.33,8.44,1.88,3.09,4.96,4.8,8.67,4.8,4.65,0,7.29-2.01,8.7-3.69,1.59-1.91,2.81-4.28,3.63-7.04.68-2.31,1.37-4.79,2.03-7.37.58-2.27,1.4-4.42,2.42-6.39.85-1.65,2.09-2.99,3.78-4.12,1.56-1.04,3.96-1.57,7.13-1.57,6.36,0,11,1.38,13.78,4.09,2.76,2.7,4.16,7.44,4.16,14.09v16.8c-1.93.31-4.12.69-6.57,1.14-4.19.77-8.75,1.9-13.54,3.35-4.78,1.45-9.7,3.26-14.64,5.39-5.12,2.21-9.83,4.99-13.99,8.27-4.29,3.38-7.82,7.42-10.47,11.99-2.76,4.76-4.16,10.3-4.16,16.48,0,8.13,1.71,14.69,5.09,19.51,3.35,4.8,7.79,8.3,13.19,10.42,2.47.95,5.12,1.58,7.89,1.87,2.6.27,5.31.31,7.99.14,6.43-.36,12.94-1.93,19.33-4.69,3.89-1.67,7.65-3.75,11.03-6.31-.37.28,1.88,3.13,2.13,3.45,2.01,2.57,4.64,4.74,7.66,6,2.48,1.03,5.52,1.55,9.02,1.55,3.76,0,7.13-.73,10.02-2.17,2.73-1.36,5.16-3.15,7.22-5.31,1.94-2.03,3.64-4.24,5.03-6.57,1.27-2.11,2.42-4.11,3.42-5.95,1.11-1.91.82-3.54.55-4.35-.39-1.18-1.22-2.14-2.37-2.78ZM231.87,356.69c-1.79-3.14-2.87-6.74-3.23-10.73-.36-3.9.31-7.65,2.03-11.45,1.72-3.8,4.68-7.36,8.8-10.6,4.19-3.29,10.06-5.9,17.45-7.74,3.17-.79,6.22-1.39,9.06-1.79,1.03-.14,2-.28,2.92-.41v34.98c0,1.57-.04,3.27-.12,5.05-.06,1.32-.1,2.69-.12,4.08-2.35,2.37-5.21,4.49-8.53,6.32-3.62,1.99-7.29,3-10.91,3s-7-.97-10.02-2.96c-3.15-2.08-5.55-4.61-7.33-7.74Z"/>
    <path class="cls-1" d="M412.58,284.09c-2.17,3.95-6.41,5.95-12.62,5.95-4.2,0-6.54-2.07-7.77-3.82-1.14-1.61-2.23-3.55-3.24-5.77-.84-1.83-1.85-3.69-3-5.52-.84-1.33-2.11-2.4-3.9-3.23-.91-.4-2.04-.62-3.29-.62-2.09,0-3.95.51-5.65,1.54-2.26,1.37-3.92,2.36-5.07,3.02-2.54,2.01-4.7,4.32-6.39,6.87-1.67,2.52-3.04,4.97-4.06,7.32v64.86c0,2.87.17,5.14.53,6.75.2.94.86,2.65,2.89,5.53,1.25,1.52,2.64,2.83,4.15,3.92,1.32.97,2.7,1.54,4.24,1.78,1.95.31,3.4,1.99,3.4,3.96v.51c0,.62-.14,1.23-.42,1.79l-.25.51c-.68,1.36-2.06,2.21-3.59,2.21h-46.15c-2.53,0-4.51-1.98-4.51-4.5v-.51c0-2.53,1.99-4.5,4.51-4.5.85,0,1.95-.43,3.17-1.22,1.47-.96,2.81-2.32,4.01-4.04.06-.08.12-.17.18-.24,2.25-2.76,2.79-4.33,2.91-5.02.29-1.67.44-4.01.44-6.92v-59.68c0-4.3-.46-7.68-1.36-10.05-.49-1.26-1.04-1.66-2.36-1.66-1.73,0-3.84.71-6.29,2.09-.89.61-1.98.86-3.04.68-.83-.14-2.33-.64-3.26-2.54l-.07-.14c-.46-.7-.71-1.5-.71-2.33,0-1.17.45-2.27,1.31-3.12.11-.12.24-.23.37-.33,1.5-1.16,3.74-2.9,6.73-5.23,3.12-2.43,6.33-4.88,9.53-7.28,3.25-2.44,6.33-4.81,9.15-7.04,2.92-2.32,4.88-3.82,6-4.56.65-.44,1.43-.68,2.22-.68h1.75c2.93,0,4.51,2.2,4.51,4.26v14.04c2.62-2.71,5.58-5.08,8.84-7.09.34-.21.69-.42,1.04-.62,7.88,5.99,17.7,9.75,28.18,10.36,1.37.12,2.76.18,4.14.18,4.44,0,8.88-.63,13.18-1.82.02.04.03.08.05.12,1.72,4.1,1.56,8.19-.43,11.83Z"/>
    <path class="cls-1" d="M568.29,259.52c-4.63,3.98-11.31,6.63-18.92,7.49.85-.64,1.68-1.27,2.53-1.91,3.25-2.44,6.33-4.81,9.15-7.04,2.92-2.32,4.88-3.82,5.99-4.56.66-.44,1.44-.68,2.23-.68h1.75c.87,0,1.61.19,2.24.52-1.38,2.31-3.06,4.42-4.97,6.17Z"/>
    <path class="cls-1" d="M590.75,376.63v.51c0,.62-.15,1.23-.42,1.79l-.25.51c-.68,1.36-2.07,2.21-3.59,2.21h-46.15c-2.53,0-4.51-1.98-4.51-4.5v-.51c0-2.53,1.99-4.5,4.51-4.5.85,0,1.95-.43,3.17-1.22,1.46-.96,2.81-2.32,4.01-4.04.06-.08.12-.17.18-.24,2.25-2.76,2.78-4.33,2.9-5.02.3-1.67.44-4.01.44-6.92v-59.68c0-.41,0-.8-.02-1.19,1.2-.08,2.4-.18,3.59-.31,8.22-.97,15.66-3.08,22.2-6.34-.47.91-.91,1.79-1.29,2.68v64.86c0,2.87.18,5.14.53,6.75.21.94.87,2.65,2.89,5.53,1.25,1.52,2.65,2.83,4.16,3.92,1.32.97,2.7,1.54,4.24,1.78,1.95.31,3.4,1.99,3.4,3.96Z"/>
    <path class="cls-1" d="M630.54,284.09c-2.16,3.95-6.41,5.95-12.62,5.95-4.2,0-6.54-2.07-7.77-3.82-1.14-1.61-2.23-3.55-3.24-5.77-.85-1.83-1.85-3.69-3-5.52-.84-1.33-2.11-2.4-3.9-3.23-.91-.4-2.05-.62-3.29-.62-.25,0-.5,0-.74.03,3.08-4.13,5.58-8.64,7.43-13.37,1.25-.11,2.51-.17,3.78-.17,6,0,11.17,1.57,15.35,4.65,4.08,3.01,6.91,6.39,8.43,10.04,1.71,4.1,1.56,8.19-.44,11.83Z"/>
    <path class="cls-1" d="M540,350.6l-.19-.19c-.91-1.27-2.12-1.65-2.81-1.76-1.08-.17-2.16.08-3.05.69-2.43,1.39-4.54,2.08-6.26,2.08-1.32,0-1.87-.38-2.36-1.66-.9-2.34-1.36-5.72-1.36-10.04v-48.54c-11.24-2.86-22.71-7.91-34.34-15.11,3.21,2.45,6.5,5.67,9.85,9.62v54.41c-4.84,7.97-9.97,13.86-15.25,17.52-5.27,3.67-10.46,5.52-15.42,5.52-3.48,0-6.69-.89-9.85-2.71-3.21-1.85-6.09-4.6-8.56-8.16-2.55-3.69-4.64-8.32-6.17-13.77-1.55-5.52-2.34-11.91-2.34-18.99,0-7.43.84-14.35,2.49-20.55,1.63-6.14,3.89-11.51,6.73-15.96,2.75-4.3,6.04-7.72,9.78-10.13,3.61-2.34,7.34-3.48,11.41-3.48,3.83,0,7.88,1.1,12.02,3.26-2.07-1.39-4.15-2.85-6.22-4.37-4.61-3.35-9.14-6.87-13.59-10.48-5.05.44-9.99,1.75-14.72,3.94-5.85,2.71-11.19,6.62-15.85,11.64-4.63,4.98-8.45,11.1-11.37,18.17-2.9,7.02-4.55,14.99-4.91,23.67-.69,5.99-.33,12.81,1.06,20.25,1.39,7.5,3.82,14.71,7.22,21.42,3.46,6.83,7.88,12.64,13.15,17.29,5.63,4.97,12.36,7.48,20,7.48,5.02,0,10.05-1.07,14.94-3.2,4.71-2.05,9.17-4.75,13.26-8.03,4-3.21,7.74-6.83,11.12-10.73.37-.41.72-.83,1.07-1.25v19.2c0,2.53,1.98,4.51,4.5,4.51h1.25c1.15,0,2.26-.44,3.15-1.25.71-.59,2.25-1.81,5.53-4.32,2.81-2.15,5.88-4.48,9.2-6.96,3.53-2.65,6.65-5.03,9.53-7.28l6.74-5.24c.13-.1.25-.21.37-.33.92-.91,1.43-2.1,1.43-3.33,0-1.06-.43-2.08-1.18-2.84ZM519.61,224.36c.48-4.78,2.06-9.44,4.45-13.6-.32-.24-.64-.48-.96-.72-3.27-2.45-6.34-4.82-9.15-7.04-2.94-2.34-4.91-3.83-5.99-4.56-.66-.44-1.44-.68-2.23-.68h-1.75c-2.93,0-4.5,2.2-4.5,4.26v51.04c7.76,4.76,15.95,8.81,24.48,11.37v-24.38c-.18-.21-.35-.43-.51-.66-2.97-4.15-4.33-9.98-3.83-15.03Z"/>
    <path class="cls-1" d="M737.61,275.8c-5.7-5.61-12.44-10.09-20.05-13.33-7.64-3.25-15.96-4.9-24.71-4.9s-17.06,1.65-24.71,4.9c-7.61,3.24-14.36,7.72-20.05,13.33-5.7,5.61-10.27,12.23-13.59,19.66-3.35,7.5-5.05,15.67-5.05,24.28s1.7,16.57,5.04,24.14c3.33,7.53,7.91,14.16,13.62,19.69,5.69,5.52,12.43,9.95,20.03,13.19,7.64,3.25,15.96,4.9,24.71,4.9s17.06-1.65,24.71-4.9c7.59-3.23,14.33-7.66,20.03-13.19,5.71-5.53,10.29-12.16,13.62-19.69,3.35-7.58,5.04-15.7,5.04-24.14s-1.7-16.77-5.05-24.28c-3.32-7.43-7.89-14.04-13.59-19.66ZM718.88,364.79s-.05.03-.08.05c-4.7,2.79-9.78,4.14-15.55,4.14-8.09,0-16.24-2.62-24.2-7.78-8.09-5.24-14.94-12.61-20.37-21.91-3.57-6.36-6.04-12.91-7.35-19.48-1.31-6.56-1.59-12.87-.82-18.76.75-5.78,2.57-11.09,5.4-15.79,2.77-4.59,6.46-8.25,10.99-10.88,2.44-1.43,4.94-2.45,7.41-3.02,2.59-.59,5.33-.89,8.15-.89,7.93,0,16,2.58,23.98,7.67,8.08,5.16,14.94,12.5,20.37,21.8,3.72,6.35,6.27,12.9,7.58,19.44,1.31,6.56,1.59,12.88.82,18.76-.75,5.79-2.54,11.12-5.3,15.83-2.72,4.63-6.32,8.16-11.02,10.8Z"/>
    <path class="cls-1" d="M873.11,282.4c-3.46-6.82-7.88-12.64-13.15-17.29-5.64-4.97-12.37-7.49-19.99-7.49-5.05,0-10.09,1.13-15,3.35-4.69,2.12-9.13,4.86-13.21,8.14-4,3.22-7.74,6.82-11.12,10.73-.45.51-.88,1.03-1.31,1.54v-79.36c0-2.39-1.87-4.26-4.26-4.26h-1.75c-.79,0-1.57.24-2.23.68-1.12.75-3.08,2.24-6,4.56-2.81,2.23-5.89,4.6-9.14,7.04-3.27,2.45-6.5,4.96-9.59,7.45-2.88,2.32-5.04,3.97-6.44,4.9-.23.15-.44.32-.63.52-.91.92-1.41,2.19-1.41,3.57,0,1.06.42,2.08,1.17,2.83l.13.13c.31.42.69.78,1.15,1.06.75.46,2.31,1.09,4.35.07.07-.04.15-.08.22-.12,2.53-1.46,4.7-2.2,6.47-2.2,1.32,0,1.88.39,2.36,1.66.9,2.36,1.36,5.74,1.36,10.04v99.78c0,4.31-.46,7.69-1.36,10.04-.49,1.27-1.04,1.66-2.36,1.66-1.77,0-3.95-.74-6.47-2.2-.08-.05-.17-.09-.25-.13-1.44-.7-3-.65-4.28.15-.59.37-1.06.87-1.4,1.45-.7.74-1.09,1.73-1.09,2.75,0,1.25.52,2.45,1.45,3.36.11.11.22.21.34.3l6.74,5.24c2.97,2.31,6.17,4.76,9.54,7.28,3.32,2.49,6.38,4.81,9.2,6.96,2.69,2.06,4.55,3.51,5.52,4.32.89.81,2,1.25,3.15,1.25h1.25c2.07,0,4.26-1.58,4.26-4.51v-8.52c3.51,3.18,7.2,5.73,11.05,7.63,6.6,3.25,13.45,4.9,20.36,4.9,6.38,0,12.61-1.38,18.52-4.11,5.85-2.7,11.19-6.62,15.85-11.64,4.63-4.99,8.46-11.1,11.37-18.16,2.89-7.01,4.54-14.97,4.91-23.67.68-6,.33-12.81-1.06-20.26-1.4-7.5-3.83-14.7-7.23-21.41ZM848.65,287c2.56,3.69,4.64,8.33,6.17,13.77,1.56,5.53,2.34,11.92,2.34,19,0,7.43-.84,14.34-2.48,20.55-1.63,6.14-3.9,11.51-6.74,15.96-2.75,4.31-6.04,7.72-9.77,10.14-3.61,2.34-7.34,3.47-11.42,3.47s-8.48-1.22-12.93-3.63c-4.61-2.49-9.46-6.75-14.43-12.65-.01-.02-.03-.04-.05-.05,0,0,0-.01,0-.02v-54.36c4.83-7.96,9.99-13.84,15.34-17.51,5.37-3.67,10.6-5.54,15.57-5.54,3.47,0,6.69.89,9.84,2.71,3.2,1.85,6.09,4.6,8.56,8.17Z"/>
    <path class="cls-1" d="M988.59,314.89c1.14,0,2.22-.5,2.96-1.36.74-.86,1.06-2.01.88-3.13-1.02-6.43-2.94-12.86-5.73-19.11-2.79-6.25-6.31-11.97-10.47-16.98-4.25-5.11-9.26-9.28-14.89-12.4-5.8-3.21-12.09-4.84-18.69-4.84-7.05,0-13.84,1.7-20.19,5.04-6.24,3.3-11.73,7.82-16.31,13.43-4.54,5.56-8.17,12.18-10.81,19.66-2.63,7.47-3.97,15.55-3.97,24.02s1.34,16.52,3.97,23.91c2.64,7.4,6.27,13.97,10.8,19.53,4.58,5.62,10.07,10.14,16.31,13.43,6.35,3.35,13.14,5.04,20.19,5.04,6.5,0,12.59-1.3,18.09-3.87,5.37-2.51,10.2-5.85,14.37-9.93,4.13-4.04,7.66-8.75,10.49-13.98,2.79-5.15,4.81-10.6,6.02-16.2.26-.84.66-2.45-.46-4-.59-.81-1.48-1.37-2.45-1.55-.09-.03-.2-.06-.33-.11-.02,0-.04-.01-.06-.02-.45-.2-.95-.33-1.5-.39-.84-.17-1.72-.1-2.52.24-.69.29-1.94,1.05-2.55,2.88-.02.07-.04.13-.06.2-2.23,8.18-6.13,15.17-11.61,20.8-5.28,5.43-12.24,8.21-21.36,8.5-5.26.28-10.11-.86-14.81-3.5-4.61-2.59-8.48-6.88-11.48-12.73-2.44-4.87-4.53-10.52-6.22-16.8l-.46-2.3c-.17-.86-.35-1.64-.53-2.36-.14-.56-.28-1.19-.42-1.87-.43-3-.79-6.03-1.07-9.05,11.92-.13,23.78-.19,35.31-.19h39.53ZM925.61,272.49c2.39-2.06,4.95-3.31,7.9-3.85,1.07-.21,2.11-.32,3.14-.32,2.73,0,5.33.75,7.9,2.27,3.9,2.31,7.43,5.52,10.5,9.53,3.18,4.17,5.96,8.91,8.24,14.08,1.57,3.57,2.83,7.09,3.76,10.52l-53.53.21c.18-4.09.65-7.99,1.41-11.63.97-4.71,2.39-8.88,4.23-12.41,1.77-3.4,3.95-6.23,6.46-8.4Z"/>
    <path class="cls-1" d="M1019.13,275.12c1.16-1.48,2.64-2.76,4.4-3.8,1.88-1.11,3.89-1.96,5.97-2.51,2.11-.56,4.07-.84,5.82-.84,7.5,0,14.2,2.26,20.48,6.91,6.24,4.63,11.41,12.59,15.36,23.67.05.14.1.27.17.4,1.22,2.5,3.38,2.69,4.02,2.69h.24c2.87,0,4.41-2.15,4.41-4.17v-35.38c0-3.42-2.49-4.66-4.17-4.66h-.49c-.99,0-1.89.32-2.59.86-.59.37-1.08.91-1.4,1.56-.61,1.23-1.37,2.66-2.24,4.25,0,0-.49.41-2.3.41s-3.54-.29-5.14-.87c-2.05-.74-4.24-1.55-6.53-2.42-2.54-.96-5.39-1.79-8.47-2.48-3.21-.71-7.02-1.07-11.34-1.07-4.75,0-9.21.89-13.27,2.64-4.08,1.76-7.61,4.26-10.49,7.42-2.83,3.1-5.09,6.75-6.72,10.83-1.64,4.11-2.48,8.58-2.48,13.29,0,5,1.01,9.5,2.99,13.38,1.89,3.69,4.39,7.1,7.43,10.14.07.07.14.14.22.2,4.77,4.09,10,7.59,15.54,10.4,5.22,2.65,10.47,5.46,15.55,8.31,2.98,1.73,5.87,3.59,8.59,5.53,2.56,1.84,4.78,3.87,6.59,6.03,1.78,2.14,3.18,4.39,4.16,6.71.9,2.12,1.29,4.54,1.16,7.18,0,.06,0,.13,0,.19,0,1.58-.46,2.97-1.41,4.23-1.16,1.55-2.6,2.86-4.29,3.9-1.77,1.09-3.74,1.92-5.88,2.47-2.19.56-4.2.85-5.97.85-7.5,0-14.2-2.26-20.48-6.91-6.25-4.63-11.41-12.59-15.36-23.66-.06-.16-.12-.31-.19-.45-1.21-2.39-3.19-2.64-3.99-2.64h-.24c-2.87,0-4.41,2.15-4.41,4.17v35.38c0,3.42,2.49,4.66,4.17,4.66h.49c.99,0,1.89-.32,2.59-.86.59-.38,1.08-.91,1.41-1.56.61-1.23,1.34-2.62,2.24-4.24,0,0,.5-.41,2.3-.41s3.54.29,5.14.86c2.05.74,4.26,1.52,6.64,2.33,2.42.84,5.2,1.65,8.26,2.42,3.23.81,7.08,1.22,11.44,1.22,4.78,0,9.26-.94,13.34-2.79,4.03-1.83,7.56-4.34,10.51-7.47,2.94-3.13,5.23-6.81,6.79-10.94,1.54-4.09,2.33-8.54,2.33-13.22,0-5.01-1.01-9.48-3.01-13.29-1.88-3.58-4.37-6.94-7.41-9.98-.07-.07-.15-.14-.22-.21-4.77-4.09-10-7.59-15.54-10.4-5.22-2.65-10.47-5.46-15.55-8.32-2.99-1.73-5.88-3.59-8.59-5.53-2.56-1.83-4.78-3.86-6.59-6.03-1.79-2.14-3.23-4.46-4.3-6.88-.98-2.22-1.39-4.59-1.26-7.19.11-1.65.64-3.06,1.61-4.3Z"/>
  </g>
  <path class="cls-1" d="M361.79,172.14c-.74-.73-1.73-1.15-2.77-1.15-.97,0-2.06-.42-3.25-1.25-1.5-1.04-2.79-2.29-3.82-3.71-.02-.03-.04-.05-.06-.08-2.3-3-2.9-4.67-3.06-5.4-.34-1.58-.52-3.8-.52-6.6v-42.67c0-3.07.02-6.14.05-9.21.03-2.99.1-5.99-.23-8.97-.03-.27-.1-.55-.1-.82-.42-3.12-1.11-6.2-2.17-9.16-1.06-2.95-2.49-5.76-4.32-8.3-1.68-2.32-3.7-4.39-5.97-6.13-8.3-6.36-19.44-9.58-33.1-9.58-4,0-8,.69-11.89,2.05-3.73,1.3-7.38,3.01-10.84,5.09-3.36,2.01-6.65,4.28-9.79,6.74-2.49,1.95-4.83,3.91-6.97,5.84-1.37-2.64-3.02-4.99-4.94-7.03-3.08-3.26-6.61-5.87-10.52-7.78-3.83-1.87-8.06-3.18-12.57-3.88-4.34-.68-8.85-1.02-13.4-1.02-4,0-8,.69-11.89,2.05-3.72,1.3-7.4,3-10.93,5.07-3.48,2.04-6.87,4.35-10.08,6.89-.66.52-1.3,1.04-1.94,1.56v-14.14c0-2.34-1.83-4.16-4.16-4.16h-1.46c-1.04,0-2.05.37-2.89,1.06-1.12.78-2.95,2.2-5.56,4.34-2.62,2.14-5.57,4.44-8.77,6.84-3.15,2.36-6.28,4.75-9.32,7.11-2.79,2.17-4.91,3.82-6.37,4.95-1.48.92-1.89,2.22-2.01,2.96-.15.97.06,1.96.57,2.79l.12.24c.18.36.42.69.7.98.82.84,1.89,1.3,3.03,1.31.91,0,1.74-.27,2.46-.78,1.39-.79,2.88-1.49,4.46-1.83.57-.12,1.27-.27,1.86-.22,1.57.15,2.41,1.49,2.82,2.88.41,1.38.51,2.81.63,4.24.17,2.01.21,4.02.21,6.03v54.67c0,2.79-.18,5.01-.52,6.6-.2.9-.85,2.53-2.81,5.15-1.35,1.75-2.79,3.13-4.27,4.1-1.2.78-2.27,1.19-3.1,1.19-2.02,0-4.16,1.55-4.16,4.41v.49c0,2.86,2.15,4.41,4.16,4.41h45.1c2.02,0,4.16-1.55,4.16-4.41v-.49c0-1.92-1.39-3.55-3.28-3.87-1.37-.23-2.76-.83-4.13-1.79-1.53-1.06-2.91-2.33-4.11-3.79-1.98-2.82-2.63-4.49-2.83-5.41-.34-1.58-.52-3.8-.52-6.6v-65.32c2.05-1.88,4.29-3.87,6.68-5.93,2.75-2.37,5.79-4.59,9.01-6.58,3.2-1.98,6.51-3.63,9.83-4.92,3.11-1.2,6.25-1.81,9.31-1.81,6.56,0,11.76,2.64,15.89,8.08,4.32,5.69,6.52,13.3,6.52,22.62v53.87c0,2.79-.18,5.01-.52,6.6-.2.9-.85,2.53-2.81,5.15-1.35,1.75-2.79,3.13-4.27,4.1-1.2.78-2.27,1.19-3.1,1.19-2.47,0-4.41,1.94-4.41,4.41v.49c0,2.47,1.94,4.41,4.41,4.41h45.1c2.02,0,4.16-1.55,4.16-4.41v-.49c0-1.92-1.39-3.55-3.28-3.87-1.37-.23-2.76-.83-4.13-1.79-1.53-1.06-2.91-2.33-4.11-3.79-1.98-2.82-2.63-4.49-2.83-5.41-.34-1.58-.52-3.8-.52-6.6v-53.38c0-2.17-.09-4.37-.26-6.53-.12-1.54-.37-3.12-.74-4.7,1.97-1.88,4.16-3.86,6.56-5.88,3.02-2.56,6.21-4.92,9.46-7.01,3.18-2.05,6.56-3.77,10.03-5.13,3.26-1.28,6.47-1.92,9.54-1.92,6.71,0,11.95,2.64,15.99,8.05,4.26,5.7,6.41,13.32,6.41,22.64v53.87c0,2.84-.14,5.12-.43,6.76-.12.67-.64,2.21-2.84,4.91-.06.08-.12.16-.18.24-1.15,1.66-2.49,2.97-3.97,3.9-1.78,1.11-2.72,1.23-3.04,1.23-2.47,0-4.41,1.94-4.41,4.41v.49c0,2.47,1.94,4.41,4.41,4.41h45.1c2.17,0,3.92-1.76,3.92-3.92v-1.22c0-1.04-.41-2.04-1.15-2.77l-.24-.24Z"/>
  <path class="cls-1" d="M538.57,56.07h-.49c-.99,0-1.89.32-2.59.86-.59.37-1.08.91-1.4,1.55-.62,1.24-1.38,2.67-2.24,4.25,0,0-.49.41-2.3.41s-3.54-.29-5.13-.87c-2.03-.73-4.22-1.54-6.52-2.42-2.53-.96-5.38-1.79-8.46-2.48-3.2-.71-7.01-1.07-11.33-1.07-4.74,0-9.2.89-13.26,2.64-4.08,1.76-7.6,4.26-10.48,7.42-2.82,3.1-5.08,6.74-6.71,10.81-1.64,4.11-2.47,8.57-2.47,13.28,0,5,1.01,9.49,2.99,13.37,1.89,3.69,4.38,7.09,7.42,10.13.07.07.14.14.22.2,4.76,4.08,9.99,7.58,15.52,10.39,5.2,2.64,10.44,5.45,15.53,8.31,2.98,1.73,5.87,3.59,8.58,5.53,2.56,1.83,4.78,3.86,6.58,6.02,1.77,2.13,3.17,4.39,4.16,6.7.9,2.12,1.29,4.54,1.16,7.18,0,.06,0,.13,0,.19,0,1.58-.46,2.96-1.41,4.23-1.16,1.54-2.6,2.85-4.28,3.89-1.77,1.09-3.74,1.92-5.87,2.47-2.19.56-4.2.85-5.97.85-7.5,0-14.19-2.26-20.46-6.91-6.24-4.62-11.4-12.58-15.34-23.64-.06-.16-.12-.31-.2-.46-1.21-2.38-3.19-2.64-3.98-2.64h-.24c-2.86,0-4.41,2.15-4.41,4.16v35.35c0,3.41,2.49,4.65,4.16,4.65h.49c.99,0,1.89-.32,2.6-.86.59-.38,1.08-.91,1.4-1.56.61-1.22,1.36-2.65,2.24-4.24,0,0,.5-.41,2.3-.41s3.54.29,5.13.86c2.05.74,4.26,1.52,6.63,2.33,2.42.84,5.19,1.65,8.25,2.42,3.22.8,7.07,1.21,11.43,1.21,4.77,0,9.25-.94,13.32-2.79,4.02-1.83,7.56-4.34,10.5-7.47,2.94-3.13,5.22-6.8,6.78-10.93,1.54-4.09,2.32-8.53,2.32-13.21,0-5.01-1.01-9.47-3.01-13.28-1.88-3.58-4.37-6.93-7.4-9.97-.07-.07-.15-.14-.22-.21-4.76-4.08-9.99-7.58-15.52-10.39-5.21-2.64-10.45-5.45-15.54-8.31-2.98-1.72-5.86-3.58-8.58-5.53-2.56-1.83-4.77-3.85-6.58-6.02-1.79-2.14-3.23-4.45-4.3-6.87-.98-2.22-1.39-4.58-1.26-7.18.11-1.64.64-3.05,1.61-4.3,1.16-1.48,2.64-2.75,4.4-3.8,1.88-1.11,3.88-1.95,5.96-2.51,2.11-.56,4.07-.84,5.82-.84,7.49,0,14.18,2.26,20.46,6.91,6.23,4.62,11.4,12.58,15.34,23.64.05.14.11.27.17.4,1.22,2.49,3.38,2.69,4.01,2.69h.24c2.86,0,4.41-2.15,4.41-4.16v-35.35c0-3.41-2.49-4.65-4.16-4.65Z"/>
  <path class="cls-1" d="M618.38,162.35c1.04-1.56,1.41-4.24-.97-6.64-.19-.19-.39-.36-.61-.5-1.57-1.04-4.25-1.41-6.65.98-.2.2-.38.43-.54.67-.9,1.41-2,2.65-3.29,3.68-.11.09-.22.19-.32.29-.96.96-2.31,1.85-3.99,2.62-1.59.73-3.58,1.1-5.91,1.1-2.81,0-4.8-.64-6.07-1.97-1.57-1.63-2.65-3.62-3.3-6.08-.73-2.77-1.14-5.78-1.21-8.97-.08-3.33-.12-6.46-.12-9.29v-67.99h19.97c2.17,0,3.92-1.76,3.92-3.92v-2.44c0-2.17-1.76-3.92-3.92-3.92h-19.97V4.17c0-2.33-1.83-4.16-4.16-4.16h-1.95c-.77,0-1.53.23-2.18.66-1.1.73-2.99,2.2-5.79,4.49-2.61,2.14-5.56,4.44-8.77,6.84-3.26,2.44-6.39,4.8-9.4,7.08-3.03,2.29-5.27,4.01-6.74,5.15-.13.1-.26.21-.37.33-1.37,1.37-1.65,3.44-.73,5.25l.24.49c.18.36.42.7.71.99.81.83,1.89,1.29,3.02,1.3.86-.03,1.74-.27,2.46-.78,2.37-1.34,4.42-2.02,6.1-2.02,1.07,0,2.8.54,3.37,1.45.35.55.38,1.1.4,1.74.02.76.04,1.53.06,2.29.02.62.01,1.24.02,1.87,0,1.17,0,2.34,0,3.51,0,1.29,0,2.58,0,3.87,0,1.32-.01,2.64-.02,3.96,0,1.26-.01,2.51-.02,3.77,0,1.1,0,2.21,0,3.31,0,.86,0,1.72.01,2.58,0,.52,0,1.05.04,1.57,0,.09.01.19.03.28h-5.83c-2.17,0-3.92,1.76-3.92,3.92v2.44c0,2.17,1.76,3.92,3.92,3.92h5.83v77.5c0,3.16.08,6.51.25,9.93.18,3.8.88,7.36,2.07,10.56,1.32,3.56,3.58,6.54,6.7,8.85,3.2,2.37,7.55,3.58,12.94,3.58,6.18,0,11.5-.92,15.79-2.75,4.14-1.76,7.69-3.84,10.5-6.12,3.19-2.48,5.83-5.37,7.84-8.58.18-.23.33-.47.47-.72.04-.05.07-.1.11-.15Z"/>
  <path class="cls-1" d="M643.1,48.57c3.8,0,7.09-1.31,9.78-3.89,2.71-2.59,4.14-5.97,4.14-9.78s-1.37-7.14-4.07-9.84c-2.7-2.7-6.01-4.07-9.84-4.07s-7.19,1.43-9.78,4.13c-2.58,2.69-3.89,5.99-3.89,9.78s1.33,7.1,3.95,9.72c2.62,2.62,5.89,3.96,9.72,3.96Z"/>
  <path class="cls-1" d="M668.6,171.41c-5.27-.81-9.91-5.88-11.02-10.98-.34-1.58-.52-3.8-.52-6.6V60.61c0-2.02-1.55-4.16-4.41-4.16h-1.71c-.78,0-1.53.23-2.18.66-1.09.73-3.01,2.19-5.87,4.45-2.73,2.17-5.74,4.48-8.93,6.88-3.14,2.36-6.28,4.75-9.32,7.11-2.92,2.28-5.12,3.98-6.58,5.12-.13.1-.25.21-.37.32-.83.83-1.28,1.91-1.27,3.04,0,.82.25,1.6.69,2.28l.07.15c.9,1.84,2.37,2.34,3.17,2.47,1.04.17,2.11-.07,2.98-.66,2.39-1.36,4.46-2.05,6.14-2.05,2.77,0,3.23,3.73,3.41,5.81.16,1.87.23,3.75.23,5.63v56.18c0,2.31.03,4.73-.58,7.01-.67,2.5-2.33,4.53-3.93,6.5-1.48,1.82-3.47,3.53-5.95,3.53-2.47,0-4.41,1.94-4.41,4.41v.49c0,2.47,1.94,4.41,4.41,4.41h45.1c1.49,0,2.84-.84,3.51-2.17l.24-.49c.27-.54.41-1.15.41-1.75v-.49c0-1.94-1.41-3.58-3.33-3.88Z"/>
  <path class="cls-1" d="M763.92,130.97c-.09-.03-.19-.06-.33-.11-.35-.17-.73-.3-1.13-.37-.87-.26-2.38-.53-3.83.52-.69.5-1.2,1.22-1.45,2.03v.02c-.13.25-.23.51-.3.78-1.04,4.16-2.54,8.04-4.47,11.51-1.89,3.42-4.25,6.48-7.01,9.09-2.71,2.57-5.87,4.64-9.37,6.14-3.49,1.5-7.53,2.33-12.01,2.47-.03,0-.06,0-.09,0-5.26.29-10.11-.86-14.81-3.5-4.61-2.59-8.48-6.88-11.48-12.73-3.52-7.03-6.05-14.81-7.5-23.11-1.46-8.3-1.82-16.55-1.05-24.53,1.05-8.71,3.42-16.04,7.04-21.8,3.37-5.37,7.47-8.43,12.52-9.37,3.63-.67,6.74-.43,9.52.73,2.92,1.22,5.51,3.06,7.7,5.44,2.31,2.53,4.25,5.42,5.77,8.6,1.56,3.26,2.72,6.57,3.45,9.78.69,3.24,2.49,5.88,5.18,7.64,2.63,1.72,5.77,2.3,9.08,1.69.46-.06,1.05-.19,2.05-.47,1.41-.38,2.79-1.12,4.1-2.19,1.28-1.05,2.38-2.42,3.26-4.08,1.11-2.08,1.3-4.6.58-7.47-2.47-10.06-7.49-17.89-14.92-23.26-7.33-5.3-16.28-7.99-26.57-7.99-7.05,0-13.84,1.7-20.19,5.04-6.24,3.3-11.73,7.82-16.31,13.43-4.54,5.56-8.17,12.18-10.81,19.66-2.63,7.47-3.97,15.55-3.97,24.02s1.34,16.52,3.97,23.91c2.64,7.4,6.27,13.97,10.8,19.53,4.58,5.62,10.07,10.14,16.31,13.43,6.35,3.35,13.14,5.04,20.19,5.04,6.5,0,12.59-1.3,18.09-3.87,5.37-2.51,10.21-5.85,14.37-9.93,4.13-4.04,7.66-8.75,10.49-13.98,2.79-5.15,4.81-10.6,6.02-16.19.26-.84.66-2.45-.47-4-.59-.81-1.48-1.37-2.45-1.55Z"/>
  <path class="cls-1" d="M878.15,156.47c-.39-1.16-1.21-2.11-2.34-2.73-1.79-1.25-4.41-1.36-6.58.81-.3.3-.55.64-.73,1.02-1,2.01-1.8,3.07-2.3,3.61-.74.81-1.68,1.58-2.78,2.29-.74.48-1.6.71-2.62.71-1.6,0-2.8-.29-3.2-.78-.22-.26-.92-1.35-.92-4.56v-58.99c0-6.47-.66-12.3-1.95-17.31-1.37-5.3-3.72-9.83-6.97-13.46-3.29-3.66-7.7-6.45-13.12-8.29-5.19-1.75-11.64-2.64-19.17-2.64-4.72,0-9.34.62-13.73,1.85-4.44,1.24-8.46,3.06-11.97,5.39-3.58,2.39-6.49,5.21-8.63,8.38-2.31,3.41-3.48,7.18-3.48,11.21,0,3,.77,5.78,2.28,8.25,1.84,3.02,4.84,4.69,8.47,4.69,4.54,0,7.13-1.96,8.5-3.6,1.55-1.87,2.75-4.18,3.55-6.88.67-2.28,1.34-4.7,1.99-7.2.57-2.22,1.37-4.32,2.37-6.24.83-1.61,2.04-2.92,3.69-4.03,1.53-1.02,3.87-1.53,6.97-1.53,6.22,0,10.75,1.35,13.47,4,2.69,2.63,4.06,7.27,4.06,13.77v17.83c-1.88.3-4.03.67-6.42,1.11-4.09.75-8.54,1.85-13.23,3.27-4.67,1.42-9.48,3.19-14.31,5.27-5.01,2.16-9.61,4.88-13.67,8.08-4.2,3.31-7.64,7.25-10.23,11.72-2.7,4.65-4.06,10.07-4.06,16.11,0,7.94,1.67,14.36,4.97,19.07,2.33,3.33,4.89,6.46,8.29,8.75,3.32,2.23,7.02,3.48,10.91,4.26,4.37.88,8.81.77,13.18-.02,2.14-.39,4.29-.9,6.35-1.63s4.01-1.66,5.98-2.59c.86-.41,1.72-.81,2.59-1.2,3.94-1.69,7.57-3.78,10.86-6.22.65,2.33,1.73,4.43,3.23,6.22,1.62,1.95,3.73,3.47,6.26,4.52,2.42,1.01,5.39,1.52,8.82,1.52,3.68,0,6.97-.71,9.8-2.12,2.67-1.33,5.05-3.08,7.06-5.19,1.9-1.99,3.55-4.15,4.91-6.42,1.24-2.07,2.36-4.02,3.34-5.81,1.08-1.86.8-3.45.54-4.24ZM803.96,161.97c-3.04-2-5.44-4.54-7.16-7.56-1.75-3.07-2.81-6.59-3.16-10.48-.35-3.81.3-7.47,1.98-11.19,1.68-3.71,4.57-7.19,8.6-10.36,4.09-3.22,9.83-5.76,17.05-7.57,3.1-.77,6.07-1.36,8.85-1.75,1.01-.14,1.96-.27,2.86-.4v34.18c0,1.54-.04,3.2-.12,4.94-.06,1.29-.1,2.63-.12,3.98-2.29,2.32-5.09,4.39-8.34,6.17-3.53,1.94-7.12,2.93-10.67,2.93s-6.84-.94-9.79-2.89Z"/>
  <path class="cls-1" d="M930.57,171.41c-1.5-.23-2.85-.8-4.14-1.73-1.47-1.07-2.83-2.36-4.06-3.84-1.98-2.82-2.63-4.49-2.83-5.41-.34-1.58-.52-3.8-.52-6.6V4.16c0-2.02-1.55-4.16-4.41-4.16h-1.22c-1.04,0-2.05.37-2.89,1.06-1.12.77-2.97,2.18-5.64,4.3-2.75,2.18-5.76,4.5-8.93,6.88-3.15,2.36-6.28,4.75-9.32,7.11-2.92,2.28-5.12,3.98-6.58,5.12-.13.1-.25.21-.36.32-.83.83-1.28,1.91-1.27,3.04,0,.82.25,1.6.69,2.28l.09.18c.18.36.42.7.71.99.81.83,1.89,1.29,3.02,1.3.86-.03,1.74-.27,2.46-.78,2.19-1.55,5.71-3.34,8.01-1.02,1.15,1.16,1.42,3.03,1.55,4.58.16,1.94.18,3.9.18,5.85v112.62c0,2.84-.14,5.12-.43,6.76-.12.71-.64,2.3-2.66,4.99-1.35,1.75-2.79,3.13-4.27,4.1-1.2.78-2.27,1.19-3.1,1.19-2.47,0-4.41,1.94-4.41,4.41v.49c0,2.47,1.94,4.41,4.41,4.41h45.1c1.49,0,2.84-.84,3.51-2.17l.24-.49c.27-.54.41-1.15.41-1.75v-.49c0-1.94-1.41-3.58-3.33-3.88Z"/>
  <path class="cls-1" d="M598.87,226.81c-4.51-17.1-19.5-30.23-37.68-29.58-4.13.15-8.24.83-12.18,2.07-3.96,1.25-7.68,3.09-10.8,5.62-12.61,10.21-11.79,22.42-11.75,22.71,0,0,.01,0,.03-.03.04.77.11,1.55.26,2.35.63,3.49,2.32,6.07,5.03,7.67,2.57,1.52,5.33,2.03,8.2,1.52,3.41-.62,6.08-2.28,7.92-4.93l.08-.13c1.4-2.3,1.72-4.88.91-7.46-.82-2.62-3.13-4.94-3.19-7.78-.07-3.24,3.01-5.44,5.85-6.15,1.82-.45,3.72-.45,5.58-.29,6.52.57,13,3.06,17.9,7.47,7.22,6.1,10.35,16.04,8.66,25.31-1.32,7.34-5.27,14.52-10.77,19.54-6.47,5.61-15.19,8.48-23.66,9.3-28.17,2.71-53.49-13.46-74.81-30.11-8.32-6.4-16.36-13.19-24.62-19.68,1.76-5.43,2.88-11.06,3.3-16.75.37-5.2.31-12.55.45-17.85.28-17.14.3-34.67,0-51.83h-.15c.11-1.29.17-2.59.17-3.91v-65.29c0-1.75,1.66-2.97,3.03-3.74,2.21-1.25,4.69-1.82,7.21-1.82,1.64-.12,2.85-1.41,2.85-3.09v-.49c0-1.77-1.33-3.1-3.09-3.1h-40.71c-1.77,0-3.1,1.33-3.1,3.1,0,1.43.69,2.59,2.01,3.16.88.38,1.84.41,2.78.49,2.68.23,5.28,1.75,6.86,3.92.83,1.14,1.28,2.51,1.26,3.92-.07,5.67,0,6.37,0,6.37v56.58c0,16.1-7.39,24.96-14.23,29.71-6.75,4.69-15.67,4.53-22.38-.22-6.92-4.9-14.55-13.85-14.55-29.5v-56.58h0v-8.71c0-1.75,1.66-2.97,3.03-3.74,2.21-1.25,4.69-1.82,7.21-1.82,1.64-.12,2.85-1.41,2.85-3.09v-.49c0-1.77-1.33-3.1-3.09-3.1h-40.71c-1.77,0-3.1,1.33-3.1,3.1,0,1.43.69,2.59,2.01,3.16.88.38,1.84.41,2.78.49,2.68.23,5.28,1.75,6.86,3.92.8,1.11,1.24,2.42,1.25,3.79v.9c-.04,3.75-.02,5.03,0,5.43v56.02c0,25.73,21.05,47.37,46.78,47.22,7.2-.04,14.09-1.69,20.49-4.89,1.96-.98,3.82-2.08,5.59-3.29.12,5.92.23,11.78.29,17.44.05,3.91.22,11.01.21,14.88-.02,2.56-.22,5.11-.6,7.64-10.64-7.14-22.7-13.3-35.74-13.73-10.08-.39-20.74,1.59-28.74,8.14-9.55,7.7-14.83,21.24-10.64,33.28,5.52,15.7,21.49,26.05,37.88,26.97,13.81,1.26,27.48-4.84,36.93-14.9,5.35-5.39,9.74-11.67,13.05-18.49,11.76,9.7,23.59,20.17,36.1,29.22,20.54,15.1,45.37,26.85,71.57,23.92,10.05-1.18,19.79-4.34,27.95-10.66,14.16-11.41,21.84-31.19,17.12-49.1ZM415.64,244.58c-13.76,11.91-38.73,7.61-46.46-9.26-3.25-7.52.27-16.48,6.1-21.67,5.15-4.72,13.24-6.47,20.42-6.44,12.96.09,24.69,6.77,35.35,14.48-3.01,8.81-8.29,16.8-15.4,22.89Z"/>
</svg>