<svg width="246" height="246" viewBox="0 0 246 246" fill="none" xmlns="http://www.w3.org/2000/svg">
<path d="M11.9743 134.546C11.9743 128.171 17.1426 123 23.5203 123C17.1448 123 11.9743 117.832 11.9743 111.454C11.9743 117.829 6.806 123 0.428223 123C6.80372 123 11.9743 128.168 11.9743 134.546Z" fill="white"/>
<path d="M94.4162 8.90616C87.9063 2.86777 77.4103 -0.644564 69.3788 4.97244C63.1514 9.36171 60.0513 17.1677 58.737 24.9485C56.1928 24.2857 53.6052 23.7823 50.9949 23.4475C29.7592 20.721 12.5027 31.5997 7.75355 52.8263C1.3621 80.4534 17.6869 106.115 38.6903 122.998C17.6847 139.883 1.3621 165.547 7.75127 193.172C12.5004 214.398 29.7569 225.277 50.9926 222.55C53.6029 222.215 56.1882 221.712 58.7348 221.049C60.049 228.83 63.1491 236.638 69.3765 241.025C77.408 246.642 87.904 243.13 94.4139 237.092C111.199 221.708 119.139 188.249 118.438 165.927V165.934C118.438 165.934 118.438 165.852 118.431 165.713C118.424 165.522 118.419 165.328 118.41 165.137C118.401 164.991 118.392 164.843 118.383 164.697C118.315 163.339 118.185 161.162 117.991 159.725C117.775 158.121 117.522 157.119 117.431 156.786C117.426 156.764 117.419 156.741 117.413 156.718C117.401 156.679 117.394 156.654 117.394 156.654V156.666C117.337 156.531 117.24 156.417 117.096 156.356C116.798 156.228 116.447 156.381 116.337 156.686C114.939 160.599 112.03 164.257 109.47 167.471C98.072 181.794 82.0729 192.046 65.3381 199.078C57.728 202.276 49.2547 205.879 40.8405 205.342C34.3694 204.927 28.5907 201.864 25.3129 196.151C21.6935 189.714 20.5296 181.651 21.4703 174.245C24.0078 157.586 37.6175 142.496 50.5894 131.325C57.728 135.696 65.3358 139.596 73.4811 141.666C86.4052 144.744 101.91 141.646 110.859 131.453C112.604 129.362 114.039 126.752 114.331 124C114.331 123.993 114.333 123.989 114.335 123.984C114.335 123.977 114.335 123.968 114.335 123.961C114.342 123.884 114.347 123.806 114.351 123.729C114.363 123.59 114.374 123.451 114.379 123.312C114.383 123.207 114.379 123.103 114.379 122.998C114.379 122.893 114.383 122.788 114.379 122.683C114.374 122.544 114.36 122.406 114.351 122.267C114.344 122.189 114.342 122.112 114.335 122.034C114.335 122.027 114.335 122.018 114.335 122.011C114.335 122.005 114.333 122 114.331 121.996C114.039 119.244 112.604 116.634 110.859 114.543C101.91 104.347 86.4052 101.252 73.4811 104.329C65.3358 106.4 57.728 110.299 50.5894 114.67C37.6198 103.5 24.0078 88.4097 21.4703 71.75C20.5296 64.345 21.6935 56.2817 25.3129 49.8447C28.5929 44.132 34.3694 41.0684 40.8405 40.6538C49.2547 40.114 57.728 43.7174 65.3381 46.9177C82.0706 53.9492 98.0697 64.2015 109.47 78.5242C112.028 81.7381 114.937 85.3939 116.337 89.3094C116.447 89.6147 116.798 89.7695 117.096 89.6397C117.24 89.5782 117.337 89.4643 117.394 89.3299V89.3413C117.394 89.3413 117.403 89.3186 117.415 89.2775C117.422 89.2548 117.429 89.232 117.433 89.2092C117.524 88.8767 117.779 87.8744 117.993 86.2709C118.187 84.8359 118.317 82.6583 118.385 81.2985C118.394 81.1527 118.403 81.0047 118.413 80.8589C118.419 80.6675 118.426 80.4739 118.433 80.2826C118.44 80.1437 118.442 80.0617 118.442 80.0617V80.0685C119.144 57.7485 111.203 24.2903 94.4162 8.90388V8.90616ZM113.365 170.571C114.622 167.711 115.691 164.613 116.501 161.599C116.643 161.041 116.777 160.485 116.902 159.93C116.998 164.392 116.292 168.886 115.574 173.271C112.37 190.973 105.409 210.991 93.8422 224.903C90.1453 229.151 85.4759 233.347 79.8133 233.691C73.2693 234.219 70.1601 225.172 68.5907 217.567C73.8524 215.182 78.7838 212.079 83.3371 208.521C95.9969 198.627 106.885 185.309 113.365 170.571ZM76.4491 114.233C84.1138 111.315 92.8081 111.042 100.607 113.647C104.099 114.839 108.149 116.827 110.547 119.873C111.989 121.704 111.989 124.298 110.547 126.13C108.147 129.175 104.099 131.164 100.607 132.355C92.8081 134.961 84.1138 134.687 76.4491 131.767C70.9664 129.678 65.8323 126.51 61.0194 123C65.8301 119.49 70.9664 116.322 76.4491 114.233ZM113.365 75.4287C106.885 60.6914 95.9969 47.3733 83.3371 37.4786C78.786 33.9207 73.8547 30.8184 68.5907 28.4335C70.1601 20.828 73.2693 11.7807 79.8133 12.3092C85.4759 12.6531 90.1453 16.8488 93.8422 21.0968C105.409 35.0095 112.37 55.0243 115.574 72.7295C116.292 77.1119 117 81.6083 116.902 86.0704C116.775 85.5147 116.643 84.9589 116.501 84.4008C115.691 81.3873 114.622 78.2873 113.365 75.4287Z" fill="white"/>
<path d="M234.026 111.454C234.026 117.829 228.857 123 222.48 123C228.855 123 234.026 128.168 234.026 134.546C234.026 128.171 239.194 123 245.572 123C239.196 123 234.026 117.832 234.026 111.454Z" fill="white"/>
<path d="M207.31 123C228.315 106.117 244.638 80.4534 238.246 52.8285C233.497 31.6019 216.241 20.7232 195.005 23.4497C192.395 23.7845 189.81 24.2879 187.263 24.9507C185.949 17.1699 182.849 9.36163 176.621 4.97463C168.59 -0.642367 158.094 2.86997 151.584 8.90836C134.799 24.2925 126.859 57.7507 127.56 80.073V80.0661C127.56 80.0661 127.56 80.1481 127.567 80.2871C127.574 80.4784 127.578 80.672 127.587 80.8634C127.597 81.0091 127.606 81.1572 127.615 81.303C127.683 82.6605 127.813 84.8381 128.007 86.2754C128.223 87.8766 128.476 88.8811 128.567 89.2137C128.571 89.2365 128.578 89.2592 128.585 89.282C128.597 89.3207 128.603 89.3458 128.603 89.3458V89.3344C128.66 89.4688 128.758 89.5827 128.902 89.6442C129.2 89.7717 129.551 89.6191 129.66 89.3139C131.059 85.4007 133.968 81.7426 136.528 78.5286C147.926 64.206 163.925 53.9537 180.66 46.9222C188.27 43.7242 196.743 40.1207 205.157 40.6583C211.628 41.0729 217.407 44.1365 220.685 49.8491C224.304 56.2861 225.468 64.3495 224.527 71.7545C221.99 88.4142 208.38 103.504 195.408 114.675C188.27 110.304 180.662 106.404 172.517 104.334C159.593 101.256 144.088 104.354 135.138 114.547C133.394 116.638 131.959 119.248 131.667 122C131.667 122.007 131.665 122.011 131.662 122.016C131.662 122.023 131.662 122.032 131.662 122.039C131.656 122.116 131.651 122.194 131.646 122.271C131.635 122.41 131.624 122.549 131.619 122.688C131.615 122.793 131.619 122.897 131.619 123.002C131.619 123.107 131.615 123.212 131.619 123.317C131.624 123.456 131.637 123.594 131.646 123.733C131.653 123.811 131.656 123.888 131.662 123.966C131.662 123.973 131.662 123.982 131.662 123.989C131.662 123.995 131.665 124 131.667 124.004C131.959 126.756 133.394 129.366 135.138 131.457C144.088 141.653 159.593 144.748 172.517 141.671C180.662 139.6 188.27 135.701 195.408 131.33C208.378 142.5 221.99 157.59 224.527 174.25C225.468 181.655 224.304 189.718 220.685 196.155C217.405 201.868 211.628 204.932 205.157 205.346C196.743 205.886 188.27 202.283 180.66 199.082C163.927 192.051 147.928 181.799 136.528 167.476C133.97 164.262 131.061 160.606 129.66 156.691C129.551 156.385 129.2 156.23 128.902 156.36C128.758 156.422 128.66 156.536 128.603 156.67V156.659C128.603 156.659 128.594 156.681 128.583 156.722C128.576 156.745 128.569 156.768 128.565 156.791C128.474 157.123 128.218 158.126 128.004 159.729C127.811 161.164 127.681 163.342 127.613 164.702C127.603 164.847 127.594 164.995 127.585 165.141C127.578 165.332 127.572 165.526 127.565 165.717C127.558 165.856 127.556 165.938 127.556 165.938V165.932C126.854 188.251 134.794 221.71 151.582 237.096C158.091 243.135 168.587 246.647 176.619 241.03C182.846 236.641 185.946 228.835 187.261 221.054C189.805 221.717 192.393 222.22 195.003 222.555C216.239 225.281 233.495 214.403 238.244 193.176C244.636 165.549 228.311 139.887 207.307 123.005L207.31 123ZM132.635 75.4286C131.378 78.2895 130.309 81.3872 129.499 84.4007C129.357 84.9588 129.223 85.5146 129.098 86.0704C129.002 81.6082 129.708 77.1141 130.426 72.7294C133.63 55.0265 140.591 35.0094 152.158 21.0967C155.855 16.8487 160.524 12.653 166.187 12.3091C172.731 11.7806 175.84 20.828 177.409 28.4335C172.148 30.8183 167.216 33.9206 162.663 37.4785C150.003 47.3732 139.115 60.6914 132.635 75.4286ZM169.551 131.767C161.886 134.687 153.192 134.958 145.393 132.355C141.901 131.164 137.851 129.175 135.453 126.13C134.011 124.298 134.011 121.704 135.453 119.873C137.851 116.827 141.901 114.839 145.393 113.647C153.192 111.042 161.886 111.315 169.551 114.233C175.034 116.322 180.168 119.49 184.981 123C180.17 126.51 175.034 129.678 169.551 131.767ZM166.187 233.689C160.524 233.345 155.855 229.149 152.158 224.901C140.591 210.988 133.63 190.973 130.426 173.268C129.708 168.886 129 164.389 129.098 159.927C129.225 160.483 129.357 161.039 129.499 161.597C130.309 164.61 131.378 167.71 132.635 170.569C139.115 185.306 150.003 198.624 162.663 208.519C167.214 212.077 172.145 215.179 177.409 217.564C175.84 225.17 172.731 234.217 166.187 233.689Z" fill="white"/>
</svg>
