<svg width="991" height="978" viewBox="0 0 991 978" fill="none" xmlns="http://www.w3.org/2000/svg">
<path d="M46.6717 535.362C46.6717 509.595 67.5765 488.69 93.3433 488.69C67.5765 488.69 46.6717 467.785 46.6717 442.019C46.6717 467.785 25.7669 488.69 0 488.69C25.7669 488.69 46.6717 509.595 46.6717 535.362Z" fill="#912933"/>
<path d="M154.663 488.689C69.7511 556.942 3.75431 660.687 29.6032 772.371C48.8053 858.185 118.556 902.169 204.412 891.132C214.956 889.778 225.399 887.665 235.697 884.978C241.01 916.468 253.525 948.061 278.717 965.807C311.172 988.517 353.617 974.32 379.938 949.908C447.802 887.706 479.887 752.45 477.056 662.225C477.056 662.225 477.056 661.918 477.015 661.364C476.995 660.584 476.974 659.805 476.933 659.025C476.892 658.43 476.851 657.835 476.831 657.24C476.564 651.742 476.031 642.941 475.251 637.136C474.389 630.653 473.343 626.591 472.974 625.257C472.974 625.155 472.933 625.073 472.892 624.97C472.851 624.806 472.81 624.724 472.81 624.724V624.765C472.584 624.232 472.174 623.76 471.599 623.514C470.389 623.001 468.973 623.616 468.543 624.847C462.88 640.664 451.125 655.455 440.786 668.441C394.709 726.335 330.025 767.796 262.387 796.209C231.615 809.133 197.375 823.699 163.361 821.525C137.205 819.842 113.838 807.472 100.585 784.372C85.958 758.338 81.26 725.76 85.0553 695.808C95.3128 628.458 150.334 567.466 202.771 522.313C231.635 539.976 262.387 555.752 295.314 564.123C347.566 576.555 410.239 564.04 446.427 522.826C453.485 514.374 459.29 503.829 460.46 492.689C460.46 492.669 460.46 492.648 460.46 492.628C460.46 492.607 460.46 492.566 460.46 492.525C460.501 492.217 460.501 491.889 460.521 491.581C460.562 491.028 460.624 490.453 460.644 489.899C460.644 489.468 460.644 489.058 460.644 488.627C460.644 488.196 460.644 487.786 460.644 487.355C460.644 486.801 460.583 486.227 460.521 485.673C460.501 485.365 460.48 485.037 460.46 484.729C460.46 484.688 460.46 484.668 460.46 484.627C460.46 484.606 460.46 484.586 460.46 484.565C459.27 473.446 453.485 462.881 446.427 454.429C410.239 413.214 347.566 400.7 295.314 413.132C262.387 421.502 231.635 437.278 202.771 454.942C150.334 409.788 95.3128 348.776 85.0553 281.446C81.26 251.515 85.958 218.916 100.585 192.883C113.838 169.783 137.205 157.412 163.361 155.73C197.375 153.555 231.635 168.121 262.387 181.046C330.025 209.479 394.709 250.92 440.786 308.813C451.125 321.799 462.88 336.59 468.543 352.408C468.994 353.638 470.389 354.274 471.599 353.741C472.174 353.495 472.584 353.023 472.81 352.49V352.531C472.81 352.531 472.851 352.428 472.892 352.284C472.912 352.182 472.953 352.1 472.974 351.997C473.343 350.664 474.369 346.602 475.251 340.119C476.031 334.313 476.564 325.512 476.831 320.014C476.872 319.419 476.913 318.824 476.933 318.23C476.974 317.45 476.995 316.67 477.015 315.891C477.036 315.337 477.056 314.988 477.056 314.988C479.887 224.784 447.802 89.5281 379.938 27.3265C353.617 2.91366 311.192 -11.2827 278.717 11.4274C253.525 29.1934 240.99 60.7865 235.697 92.2566C225.399 89.5691 214.956 87.4561 204.412 86.1021C118.556 75.0855 48.8053 119.07 29.6032 204.864C3.77482 316.547 69.7511 420.292 154.663 488.545V488.689ZM456.541 680.997C461.629 669.426 465.937 656.912 469.22 644.726C469.773 642.551 470.286 640.377 470.799 638.202C471.169 656.153 468.358 674.247 465.486 691.911C452.541 763.467 424.394 844.399 377.62 900.63C362.685 917.802 343.791 934.767 320.916 936.162C294.452 938.296 281.897 901.718 275.558 870.966C296.832 861.324 316.772 848.789 335.174 834.408C386.359 794.404 430.364 740.572 456.562 680.997H456.541ZM307.315 453.239C338.313 441.443 373.455 440.335 404.987 450.859C419.101 455.68 435.472 463.722 445.176 476.031C451.002 483.437 451.002 493.92 445.176 501.326C435.472 513.635 419.101 521.677 404.987 526.498C373.455 537.022 338.313 535.935 307.315 524.118C285.159 515.687 264.398 502.865 244.949 488.668C264.398 474.472 285.159 461.671 307.315 453.218V453.239ZM320.916 41.2152C343.811 42.6102 362.685 59.5556 377.62 76.7472C424.374 132.979 452.52 213.911 465.486 285.467C468.378 303.11 471.169 321.204 470.799 339.175C470.307 337.001 469.773 334.826 469.22 332.652C465.937 320.466 461.629 307.931 456.541 296.381C430.344 236.805 386.318 182.974 335.154 142.97C316.752 128.589 296.811 116.054 275.537 106.412C281.876 75.6599 294.452 39.0816 320.896 41.2357L320.916 41.2152Z" fill="#912933"/>
<path d="M944.328 442.019C944.328 467.785 923.424 488.69 897.657 488.69C923.424 488.69 944.328 509.595 944.328 535.362C944.328 509.595 965.233 488.69 991 488.69C965.233 488.69 944.328 467.785 944.328 442.019Z" fill="#912933"/>
<path d="M611.062 949.906C637.383 974.319 679.808 988.516 712.283 965.806C737.476 948.04 750.011 916.446 755.303 884.976C765.602 887.664 776.044 889.777 786.589 891.131C872.444 902.147 942.195 858.163 961.397 772.369C987.226 660.686 921.249 556.941 836.338 488.688C921.249 420.434 987.246 316.69 961.397 205.006C942.195 119.192 872.444 75.2076 786.589 86.2446C776.044 87.5986 765.602 89.7117 755.303 92.3991C749.99 60.9086 737.476 29.3155 712.283 11.57C679.829 -11.1402 637.383 3.05624 611.062 27.4691C543.199 89.6706 511.113 224.926 513.944 315.151C513.944 315.151 513.944 315.459 513.985 316.013C514.006 316.792 514.026 317.572 514.067 318.352C514.108 318.946 514.149 319.541 514.17 320.136C514.437 325.634 514.97 334.435 515.75 340.241C516.632 346.724 517.657 350.786 518.027 352.119C518.027 352.222 518.068 352.304 518.109 352.406C518.15 352.571 518.191 352.653 518.191 352.653V352.612C518.416 353.145 518.827 353.617 519.401 353.863C520.612 354.376 522.027 353.76 522.458 352.53C528.12 336.712 539.875 321.921 550.215 308.935C596.291 251.042 660.975 209.581 728.613 181.168C759.386 168.243 793.626 153.678 827.639 155.852C853.796 157.534 877.163 169.905 890.415 193.005C905.043 219.038 909.741 251.616 905.945 281.568C895.688 348.919 840.666 409.91 788.23 455.064C759.365 437.4 728.613 421.624 695.687 413.254C643.435 400.822 580.762 413.336 544.573 454.551C537.516 463.003 531.71 473.548 530.541 484.687C530.541 484.708 530.541 484.728 530.541 484.749C530.541 484.79 530.541 484.81 530.541 484.851C530.5 485.159 530.5 485.487 530.479 485.795C530.438 486.349 530.377 486.923 530.356 487.477C530.356 487.908 530.356 488.318 530.356 488.749C530.356 489.18 530.356 489.59 530.356 490.021C530.356 490.575 530.418 491.15 530.479 491.703C530.5 492.011 530.52 492.339 530.541 492.647C530.541 492.688 530.541 492.709 530.541 492.75C530.541 492.77 530.541 492.791 530.541 492.811C531.731 503.93 537.516 514.496 544.573 522.948C580.762 564.163 643.435 576.677 695.687 564.245C728.613 555.874 759.365 540.098 788.23 522.435C840.666 567.589 895.688 628.6 905.945 695.93C909.741 725.862 905.043 758.46 890.415 784.494C877.163 807.594 853.796 819.964 827.639 821.647C793.626 823.821 759.365 809.255 728.613 796.331C660.975 767.897 596.291 726.457 550.215 668.563C539.875 655.577 528.12 640.786 522.458 624.969C522.007 623.738 520.612 623.102 519.401 623.636C518.827 623.882 518.416 624.354 518.191 624.887V624.846C518.191 624.846 518.15 624.949 518.109 625.092C518.088 625.195 518.047 625.277 518.027 625.379C517.657 626.713 516.632 630.775 515.75 637.258C514.97 643.063 514.437 651.864 514.17 657.362C514.129 657.957 514.088 658.552 514.067 659.147C514.026 659.927 514.006 660.706 513.985 661.486C513.965 662.04 513.944 662.388 513.944 662.388C511.113 752.593 543.199 887.848 611.062 950.05V949.906ZM534.459 296.38C529.371 307.95 525.063 320.465 521.781 332.651C521.227 334.825 520.714 337 520.201 339.174C519.832 321.203 522.643 303.129 525.515 285.466C538.46 213.91 566.606 132.978 613.381 76.7462C628.315 59.5751 647.21 42.6092 670.084 41.2142C696.548 39.0806 709.104 75.6589 715.443 106.39C694.169 116.032 674.228 128.567 655.826 142.948C604.641 182.952 560.636 236.784 534.439 296.359L534.459 296.38ZM683.685 524.117C652.687 535.913 617.545 537.021 586.013 526.497C571.899 521.676 555.528 513.634 545.825 501.325C539.998 493.919 539.998 483.436 545.825 476.03C555.528 463.721 571.899 455.679 586.013 450.858C617.545 440.334 652.687 441.421 683.685 453.238C705.842 461.669 726.603 474.491 746.051 488.688C726.603 502.884 705.842 515.685 683.685 524.138V524.117ZM534.459 680.996C560.657 740.571 604.682 794.403 655.847 834.407C674.249 848.788 694.189 861.323 715.463 870.965C709.124 901.717 696.548 938.295 670.105 936.161C647.21 934.766 628.336 917.821 613.401 900.629C566.647 844.398 538.501 763.466 525.535 691.909C522.643 674.267 519.853 656.172 520.222 638.201C520.714 640.376 521.248 642.55 521.801 644.725C525.084 656.911 529.392 669.446 534.48 680.996H534.459Z" fill="#912933"/>
</svg>
